<svg width="42" height="24" viewBox="0 0 42 24" fill="none" xmlns="http://www.w3.org/2000/svg">
<mask id="path-1-inside-1_10305_48667" fill="white">
<path d="M0 0H42V24H0V0Z"></path>
</mask>
<path d="M0 0H42V24H0V0Z" fill="white"></path>
<path d="M0 0V-1H-1V0H0ZM42 0H43V-1H42V0ZM42 24V25H43V24H42ZM0 24H-1V25H0V24ZM0 0V1H42V0V-1H0V0ZM42 0H41V24H42H43V0H42ZM42 24V23H0V24V25H42V24ZM0 24H1V0H0H-1V24H0Z" fill="#E6E6E6" mask="url(#path-1-inside-1_10305_48667)"></path>
<path d="M10.2305 7.76465C11.3511 7.76465 11.9258 8.86581 12.0625 9.37402L13.8389 16.0654H12.1719C12.0717 15.5196 11.5151 14.4277 10.2305 14.4277C8.8751 14.428 8.29909 15.5196 8.18066 16.0654H6.54102L8.37207 9.28906C8.45416 8.9501 8.94636 7.76494 10.2305 7.76465ZM10.2031 9.37402C9.93033 9.37424 9.84858 9.59962 9.79395 9.8252L8.83691 13.5244C9.00999 13.3362 9.53094 12.9601 10.2305 12.96C10.9302 12.96 11.4154 13.3362 11.5703 13.5244L10.6133 9.8252C10.5586 9.65574 10.4762 9.37402 10.2031 9.37402Z" fill="#FB5022"></path>
<rect x="15.1234" y="7.93408" width="1.63996" height="8.13134" fill="#FB5022"></rect>
<path d="M27.5324 16.0651H25.9648V12.1689C25.9648 12.1305 25.9626 12.0932 25.9587 12.0559C25.9037 11.5167 25.4593 11.096 24.9197 11.096C24.3801 11.096 23.9357 11.5167 23.8807 12.0559C23.8768 12.0932 23.8746 12.1305 23.8746 12.1689V16.0651H22.3345V12.1689C22.3345 12.1305 22.3323 12.0932 22.3284 12.0559C22.2734 11.5167 21.829 11.096 21.2894 11.096C20.7498 11.096 20.3053 11.5167 20.2503 12.0559C20.2465 12.0932 20.2443 12.1305 20.2443 12.1689V16.0651H18.6766V12.0559C18.6915 10.6657 19.7943 9.54313 21.1519 9.54313C22.0066 9.54313 22.6865 9.98866 23.0754 10.668C23.4659 9.97285 24.1573 9.51489 25.0297 9.51489C26.4026 9.51489 27.5176 10.6499 27.5324 12.0559V16.0651Z" fill="#FB5022"></path>
<path d="M31.7694 9.51562C32.5788 9.51568 33.3057 9.92547 33.8192 10.5781V9.68555H35.4589V16.0664H33.8192V15.1719C33.3057 15.8249 32.579 16.2353 31.7694 16.2354C30.2146 16.2354 28.954 14.7306 28.954 12.875C28.9542 11.0196 30.2147 9.51562 31.7694 9.51562ZM32.2069 11.0967C31.3163 11.0967 30.5937 11.8927 30.5936 12.875C30.5936 13.8574 31.3163 14.6543 32.2069 14.6543C33.0974 14.6541 33.8192 13.8572 33.8192 12.875C33.8191 11.8929 33.0973 11.0969 32.2069 11.0967Z" fill="#FB5022"></path>
</svg>