<svg width="42" height="24" viewBox="0 0 42 24" fill="none" xmlns="http://www.w3.org/2000/svg">
<mask id="path-1-inside-1_10305_48658" fill="white">
<path d="M0 0H42V24H0V0Z"></path>
</mask>
<path d="M0 0H42V24H0V0Z" fill="#0B0B0C"></path>
<path d="M0 0V-1H-1V0H0ZM42 0H43V-1H42V0ZM42 24V25H43V24H42ZM0 24H-1V25H0V24ZM0 0V1H42V0V-1H0V0ZM42 0H41V24H42H43V0H42ZM42 24V23H0V24V25H42V24ZM0 24H1V0H0H-1V24H0Z" fill="#E6E6E6" mask="url(#path-1-inside-1_10305_48658)"></path>
<path d="M7.9206 7.76465L4.14197 16.2244H8.66552L9.22631 14.8755H10.5082L11.0689 16.2244H16.0481V15.1949L16.4918 16.2244H19.0674L19.5111 15.1731V16.2244H29.8664L31.1255 14.9106L32.3045 16.2244L37.6233 16.2352L33.8327 12.0181L37.6233 7.76465H32.387L31.1613 9.05417L30.0194 7.76465H18.7542L17.7869 9.94817L16.7968 7.76465H12.2827V8.75909L11.7805 7.76465C11.7805 7.76465 7.9206 7.76465 7.9206 7.76465ZM8.79588 8.96594H11.0009L13.5072 14.7025V8.96594H15.9227L17.8586 13.079L19.6427 8.96594H22.0462V15.0363H20.5837L20.5718 10.2796L18.4397 15.0363H17.1315L14.9875 10.2796V15.0363H11.979L11.4086 13.6754H8.32716L7.75798 15.0351H6.14604C6.14604 15.0351 8.79588 8.96594 8.79588 8.96594ZM23.3841 8.96594H29.3306L31.1494 10.9535L33.0268 8.96594H34.8455L32.0821 12.0169L34.8455 15.0328H32.9443L31.1255 13.0221L29.2386 15.0328H23.3841V8.96594ZM9.86854 9.99302L8.85333 12.4174H10.8826L9.86854 9.99302ZM24.8526 10.2228V11.331H28.0967V12.5661H24.8526V13.7759H28.4913L30.182 11.994L28.563 10.2218H24.8526V10.2228Z" fill="white"></path>
</svg>