<svg width="42" height="24" viewBox="0 0 42 24" fill="none" xmlns="http://www.w3.org/2000/svg">
<mask id="path-1-inside-1_10305_48660" fill="white">
<path d="M0 0H42V24H0V0Z"></path>
</mask>
<path d="M0 0H42V24H0V0Z" fill="#0B0B0C"></path>
<path d="M0 0V-1H-1V0H0ZM42 0H43V-1H42V0ZM42 24V25H43V24H42ZM0 24H-1V25H0V24ZM0 0V1H42V0V-1H0V0ZM42 0H41V24H42H43V0H42ZM42 24V23H0V24V25H42V24ZM0 24H1V0H0H-1V24H0Z" fill="#E6E6E6" mask="url(#path-1-inside-1_10305_48660)"></path>
<g clip-path="url(#clip0_10305_48660)">
<path d="M11.9133 7.5761C11.5776 7.9788 11.0404 8.29641 10.5032 8.25104C10.4361 7.70655 10.6991 7.12804 11.0068 6.77072C11.3426 6.35668 11.9301 6.06175 12.4057 6.03906C12.4617 6.60624 12.2434 7.16207 11.9133 7.5761ZM12.4001 8.3588C11.6223 8.31343 10.9565 8.80687 10.5872 8.80687C10.2123 8.80687 9.64713 8.38149 9.03162 8.39283C8.23146 8.40418 7.48726 8.86359 7.07879 9.59524C6.23947 11.0585 6.86057 13.2252 7.67192 14.4162C8.0692 15.0061 8.54481 15.6527 9.17151 15.63C9.76463 15.6073 9.99964 15.2386 10.7159 15.2386C11.4377 15.2386 11.6447 15.63 12.2714 15.6186C12.9205 15.6073 13.329 15.0288 13.7262 14.4389C14.1795 13.7696 14.3641 13.1174 14.3753 13.0834C14.3641 13.072 13.1219 12.5899 13.1107 11.138C13.0995 9.9242 14.0899 9.34568 14.1347 9.31165C13.5752 8.47224 12.7023 8.38149 12.4001 8.3588ZM16.8933 6.714V15.5562H18.2474V12.5332H20.1219C21.8341 12.5332 23.0371 11.3421 23.0371 9.61793C23.0371 7.89372 21.8565 6.714 20.1667 6.714H16.8933V6.714ZM18.2474 7.87103H19.8085C20.9836 7.87103 21.6551 8.50627 21.6551 9.6236C21.6551 10.7409 20.9836 11.3818 19.803 11.3818H18.2474V7.87103V7.87103ZM25.5104 15.6243C26.3609 15.6243 27.1498 15.1876 27.5079 14.4956H27.5359V15.5562H28.7893V11.155C28.7893 9.87883 27.7821 9.05643 26.2322 9.05643C24.7941 9.05643 23.731 9.89017 23.6918 11.0359H24.9116C25.0124 10.4914 25.5104 10.1341 26.193 10.1341C27.0211 10.1341 27.4856 10.5254 27.4856 11.2457V11.7335L25.7957 11.8356C24.2234 11.932 23.3729 12.5842 23.3729 13.7186C23.3729 14.8643 24.2514 15.6243 25.5104 15.6243ZM25.8741 14.575C25.1522 14.575 24.6934 14.2234 24.6934 13.6846C24.6934 13.1287 25.1355 12.8054 25.9804 12.7544L27.4856 12.658V13.1571C27.4856 13.9852 26.7917 14.575 25.8741 14.575ZM30.4624 17.9611C31.7829 17.9611 32.404 17.4506 32.9468 15.9022L35.3249 9.1415H33.9484L32.3536 14.3652H32.3257L30.731 9.1415H29.3153L31.6094 15.5789L31.4863 15.9703C31.2793 16.6339 30.9436 16.8891 30.3449 16.8891C30.2385 16.8891 30.0315 16.8778 29.9476 16.8664V17.927C30.0259 17.9497 30.3617 17.9611 30.4624 17.9611Z" fill="white"></path>
</g>
<defs>
<clipPath id="clip0_10305_48660">
<rect width="28.6489" height="11.922" fill="white" transform="translate(6.67554 6.03906)"></rect>
</clipPath>
</defs>
</svg>