<svg width="42" height="24" viewBox="0 0 42 24" fill="none" xmlns="http://www.w3.org/2000/svg">
<mask id="path-1-inside-1_10305_48665" fill="white">
<path d="M0 0H42V24H0V0Z"></path>
</mask>
<path d="M0 0H42V24H0V0Z" fill="white"></path>
<path d="M0 0V-1H-1V0H0ZM42 0H43V-1H42V0ZM42 24V25H43V24H42ZM0 24H-1V25H0V24ZM0 0V1H42V0V-1H0V0ZM42 0H41V24H42H43V0H42ZM42 24V23H0V24V25H42V24ZM0 24H1V0H0H-1V24H0Z" fill="#E6E6E6" mask="url(#path-1-inside-1_10305_48665)"></path>
<g clip-path="url(#clip0_10305_48665)">
<path d="M7.92957 20.2463V16.4247H9.08428C9.92359 16.4247 10.4635 16.7468 10.4635 17.4129C10.4635 17.7896 10.2925 18.0516 10.0519 18.2045C10.3994 18.3683 10.6025 18.6849 10.6025 19.1162C10.6025 19.886 10.0519 20.2463 9.19655 20.2463L7.92957 20.2463ZM8.67264 18.0134H9.22328C9.56006 18.0134 9.70441 17.8441 9.70441 17.533C9.70441 17.1999 9.44246 17.0907 9.08962 17.0907H8.67264V18.0134ZM8.67264 19.5803H9.13239C9.58145 19.5803 9.8434 19.4656 9.8434 19.1053C9.8434 18.7504 9.61888 18.603 9.19655 18.603H8.67264V19.5803ZM12.0435 20.3119C11.3111 20.3119 10.9423 19.9461 10.9423 19.4547C10.9423 18.9142 11.3753 18.5976 12.0168 18.5921C12.1762 18.5951 12.3352 18.6097 12.4926 18.6358V18.5048C12.4926 18.1717 12.3055 18.0134 11.9473 18.0134C11.706 18.0103 11.4664 18.0548 11.2416 18.1444L11.108 17.5548C11.3379 17.4565 11.7067 17.391 12.0328 17.391C12.8187 17.391 13.2089 17.8169 13.2089 18.5539V20.0716C12.9898 20.1863 12.5781 20.3119 12.0435 20.3119V20.3119ZM12.4926 19.6949V19.1108C12.368 19.0825 12.2407 19.0678 12.113 19.0671C11.8671 19.0671 11.6747 19.1654 11.6747 19.422C11.6747 19.6513 11.835 19.7714 12.1184 19.7714C12.2472 19.7757 12.3753 19.7495 12.4926 19.6949ZM13.7283 20.2463V17.6312C14.1125 17.4736 14.5225 17.3921 14.9365 17.391C15.717 17.391 16.1661 17.7841 16.1661 18.5102V20.2463H15.4283V18.5648C15.4283 18.1881 15.2573 18.0134 14.9312 18.0134C14.7692 18.0111 14.6087 18.0446 14.4607 18.1117V20.2463L13.7283 20.2463ZM18.7442 17.5548L18.6052 18.1499C18.4142 18.0654 18.2092 18.019 18.0011 18.0134C17.5681 18.0134 17.3329 18.3246 17.3329 18.8378C17.3329 19.4001 17.5788 19.6895 18.0385 19.6895C18.2437 19.6837 18.4456 19.6354 18.6319 19.5475L18.7495 20.1535C18.5075 20.2635 18.2446 20.3176 17.9797 20.3119C17.0923 20.3119 16.5791 19.7495 16.5791 18.8596C16.5791 17.9752 17.087 17.391 17.937 17.391C18.2141 17.3896 18.4886 17.4453 18.7442 17.5548H18.7442ZM20.3379 20.3119C19.5147 20.3119 19.0015 19.7277 19.0015 18.8487C19.0015 17.9752 19.5147 17.391 20.3379 17.391C21.1666 17.391 21.6691 17.9752 21.6691 18.8487C21.6691 19.7277 21.1666 20.3119 20.3379 20.3119H20.3379ZM20.3379 19.6895C20.7175 19.6895 20.9153 19.3674 20.9153 18.8487C20.9153 18.3355 20.7175 18.0134 20.3379 18.0134C19.9637 18.0134 19.7552 18.3355 19.7552 18.8487C19.7552 19.3674 19.9637 19.6895 20.3379 19.6895H20.3379ZM22.096 20.2463V17.6312C22.4802 17.4736 22.8902 17.3921 23.3042 17.391C24.0847 17.391 24.5337 17.7841 24.5337 18.5102V20.2463H23.796V18.5648C23.796 18.1881 23.6249 18.0134 23.2988 18.0134C23.1369 18.0111 22.9764 18.0446 22.8284 18.1117V20.2463L22.096 20.2463ZM26.1975 20.3119C25.5613 20.3119 25.2352 19.957 25.2352 19.2363V18.0571H24.8717V17.4565H25.2352V16.8505L25.973 16.8123V17.4565H26.5664V18.0571H25.973V19.2254C25.973 19.5421 26.1013 19.6895 26.3418 19.6895C26.4372 19.6892 26.5322 19.6783 26.6252 19.6567L26.6626 20.2627C26.5099 20.2973 26.3538 20.3137 26.1975 20.3119H26.1975ZM28.0596 20.3119C27.3272 20.3119 26.9583 19.9461 26.9583 19.4547C26.9583 18.9142 27.3913 18.5976 28.0329 18.5921C28.1923 18.5951 28.3513 18.6097 28.5086 18.6358V18.5048C28.5086 18.1717 28.3215 18.0134 27.9634 18.0134C27.7221 18.0103 27.4825 18.0548 27.2577 18.1444L27.124 17.5548C27.3539 17.4565 27.7228 17.391 28.0489 17.391C28.8347 17.391 29.225 17.8169 29.225 18.5539V20.0716C29.0058 20.1863 28.5942 20.3119 28.0596 20.3119H28.0596ZM28.5086 19.6949V19.1108C28.384 19.0825 28.2568 19.0678 28.1291 19.0671C27.8832 19.0671 27.6907 19.1654 27.6907 19.422C27.6907 19.6513 27.8511 19.7714 28.1344 19.7714C28.2633 19.7757 28.3913 19.7495 28.5086 19.6949H28.5086ZM31.749 17.5548L31.61 18.1499C31.4191 18.0654 31.214 18.019 31.006 18.0134C30.5729 18.0134 30.3377 18.3246 30.3377 18.8378C30.3377 19.4001 30.5836 19.6895 31.0434 19.6895C31.2486 19.6837 31.4505 19.6354 31.6368 19.5475L31.7544 20.1535C31.5123 20.2635 31.2495 20.3176 30.9846 20.3119C30.0972 20.3119 29.5839 19.7495 29.5839 18.8596C29.5839 17.9752 30.0918 17.391 30.9418 17.391C31.2189 17.3896 31.4935 17.4453 31.749 17.5548H31.749ZM33.371 20.3119C32.7349 20.3119 32.4088 19.957 32.4088 19.2363V18.0571H32.0452V17.4565H32.4088V16.8505L33.1465 16.8123V17.4565H33.7399V18.0571H33.1465V19.2254C33.1465 19.5421 33.2748 19.6895 33.5154 19.6895C33.6107 19.6892 33.7057 19.6783 33.7987 19.6567L33.8361 20.2627C33.6835 20.2973 33.5274 20.3137 33.371 20.3119H33.371Z" fill="#1E3764"></path>
<path d="M13.0754 14.5138C16.9791 14.5138 18.931 11.856 20.8828 9.19824H7.92957V14.5138H13.0754Z" fill="url(#paint0_linear_10305_48665)"></path>
<path d="M28.6902 3.88269C24.7865 3.88269 22.8347 6.54048 20.8828 9.19828H33.8361V3.88269H28.6902Z" fill="url(#paint1_linear_10305_48665)"></path>
</g>
<defs>
<linearGradient id="paint0_linear_10305_48665" x1="10.5496" y1="12.1014" x2="20.073" y2="8.63777" gradientUnits="userSpaceOnUse">
<stop stop-color="#005AB9"></stop>
<stop offset="1" stop-color="#1E3764"></stop>
</linearGradient>
<linearGradient id="paint1_linear_10305_48665" x1="21.6671" y1="9.65931" x2="31.7719" y2="6.28354" gradientUnits="userSpaceOnUse">
<stop stop-color="#FBA900"></stop>
<stop offset="1" stop-color="#FFD800"></stop>
</linearGradient>
<clipPath id="clip0_10305_48665">
<rect width="26.5779" height="16.4804" fill="white" transform="translate(7.59375 3.85706)"></rect>
</clipPath>
</defs>
</svg>