<svg width="42" height="24" viewBox="0 0 42 24" fill="none" xmlns="http://www.w3.org/2000/svg">
<mask id="path-1-inside-1_10305_48674" fill="white">
<path d="M0 0H42V24H0V0Z"></path>
</mask>
<path d="M0 0H42V24H0V0Z" fill="#0B0B0C"></path>
<path d="M0 0V-1H-1V0H0ZM42 0H43V-1H42V0ZM42 24V25H43V24H42ZM0 24H-1V25H0V24ZM0 0V1H42V0V-1H0V0ZM42 0H41V24H42H43V0H42ZM42 24V23H0V24V25H42V24ZM0 24H1V0H0H-1V24H0Z" fill="#E6E6E6" mask="url(#path-1-inside-1_10305_48674)"></path>
<path fill-rule="evenodd" clip-rule="evenodd" d="M14.4242 14.1492C14.4105 14.1354 14.4038 14.1187 14.4038 14.0989V11.2096C14.4038 11.1899 14.4105 11.1732 14.4242 11.1593C14.4378 11.1455 14.4542 11.1385 14.4737 11.1385H15.0099C15.0293 11.1385 15.0458 11.1455 15.0595 11.1593C15.073 11.1732 15.0799 11.1899 15.0799 11.2096V14.0989C15.0799 14.1187 15.073 14.1354 15.0595 14.1492C15.0458 14.1631 15.0293 14.1699 15.0099 14.1699H14.4737C14.4542 14.1699 14.4378 14.1631 14.4242 14.1492ZM14.4562 10.6116C14.3785 10.5327 14.3397 10.432 14.3397 10.3097C14.3397 10.1874 14.3785 10.0867 14.4562 10.0077C14.5339 9.92879 14.633 9.88928 14.7535 9.88928C14.8739 9.88928 14.9729 9.92879 15.0507 10.0077C15.1284 10.0867 15.1673 10.1874 15.1673 10.3097C15.1673 10.432 15.1284 10.5327 15.0507 10.6116C14.9729 10.6906 14.8739 10.73 14.7535 10.73C14.633 10.73 14.5339 10.6906 14.4562 10.6116ZM13.7773 11.1593C13.7909 11.1732 13.7977 11.1899 13.7977 11.2096V11.6773C13.7977 11.6971 13.7909 11.7139 13.7773 11.7277C13.7636 11.7415 13.7471 11.7484 13.7277 11.7484H13.1507C13.1313 11.7484 13.1216 11.7583 13.1216 11.778V14.0989C13.1216 14.1187 13.1148 14.1354 13.1012 14.1492C13.0875 14.1631 13.071 14.1699 13.0517 14.1699H12.5155C12.496 14.1699 12.4795 14.1631 12.4659 14.1492C12.4523 14.1354 12.4455 14.1187 12.4455 14.0989V11.778C12.4455 11.7583 12.4358 11.7484 12.4164 11.7484H12.055C12.0356 11.7484 12.0191 11.7415 12.0055 11.7277C11.9918 11.7139 11.9851 11.6971 11.9851 11.6773V11.2096C11.9851 11.1899 11.9918 11.1732 12.0055 11.1593C12.0191 11.1455 12.0356 11.1385 12.055 11.1385H12.4164C12.4358 11.1385 12.4455 11.1287 12.4455 11.109V11.0024C12.4455 10.7458 12.4785 10.5475 12.5446 10.4073C12.6106 10.2673 12.7195 10.1676 12.871 10.1083C13.0225 10.0492 13.2362 10.0216 13.5121 10.0255H13.7161C13.7355 10.0255 13.752 10.0324 13.7656 10.0462C13.7792 10.0601 13.786 10.0768 13.786 10.0965V10.511C13.786 10.5307 13.7792 10.5475 13.7656 10.5613C13.752 10.5752 13.7355 10.582 13.7161 10.582H13.5645C13.3974 10.582 13.2819 10.6156 13.2178 10.6826C13.1537 10.7498 13.1216 10.8721 13.1216 11.0497V11.109C13.1216 11.1287 13.1313 11.1385 13.1507 11.1385H13.7277C13.7471 11.1385 13.7636 11.1455 13.7773 11.1593Z" fill="white"></path>
<path fill-rule="evenodd" clip-rule="evenodd" d="M17.9502 11.3813C18.1386 11.5708 18.2329 11.8294 18.2329 12.1569V14.0989C18.2329 14.1187 18.2261 14.1355 18.2125 14.1493C18.1989 14.1631 18.1824 14.17 18.163 14.17H17.6268C17.6073 14.17 17.5908 14.1631 17.5772 14.1493C17.5636 14.1355 17.5568 14.1187 17.5568 14.0989V12.299C17.5568 12.1176 17.5063 11.9705 17.4053 11.858C17.3042 11.7455 17.1702 11.6892 17.0031 11.6892C16.8361 11.6892 16.701 11.7445 16.5981 11.855C16.4951 11.9656 16.4437 12.1116 16.4437 12.2931V14.0989C16.4437 14.1187 16.4368 14.1355 16.4233 14.1493C16.4096 14.1631 16.3931 14.17 16.3737 14.17H15.8375C15.818 14.17 15.8016 14.1631 15.788 14.1493C15.7743 14.1355 15.7676 14.1187 15.7676 14.0989V11.2156C15.7676 11.1959 15.7743 11.1791 15.788 11.1652C15.8016 11.1515 15.818 11.1445 15.8375 11.1445H16.3737C16.3931 11.1445 16.4096 11.1515 16.4233 11.1652C16.4368 11.1791 16.4437 11.1959 16.4437 11.2156V11.405C16.4437 11.4169 16.4475 11.4248 16.4553 11.4287C16.463 11.4327 16.4689 11.4287 16.4728 11.4169C16.6321 11.2037 16.8729 11.0972 17.1955 11.0972C17.5102 11.0972 17.7617 11.1919 17.9502 11.3813Z" fill="white"></path>
<path fill-rule="evenodd" clip-rule="evenodd" d="M20.4097 11.6803C20.396 11.6941 20.3795 11.701 20.3601 11.701H19.7657C19.7462 11.701 19.7365 11.7109 19.7365 11.7306V13.1575C19.7365 13.3075 19.7686 13.416 19.8327 13.4831C19.8968 13.5503 19.9988 13.5838 20.1387 13.5838H20.3135C20.3329 13.5838 20.3494 13.5907 20.3631 13.6045C20.3766 13.6184 20.3835 13.6351 20.3835 13.6548V14.0989C20.3835 14.1423 20.3601 14.168 20.3135 14.1758L20.0104 14.1817C19.7035 14.1817 19.4743 14.1285 19.3227 14.0219C19.1712 13.9153 19.0934 13.714 19.0896 13.418V11.7306C19.0896 11.7109 19.0798 11.701 19.0605 11.701H18.7283C18.7088 11.701 18.6923 11.6941 18.6787 11.6803C18.665 11.6665 18.6583 11.6498 18.6583 11.6299V11.2155C18.6583 11.1958 18.665 11.179 18.6787 11.1652C18.6923 11.1514 18.7088 11.1444 18.7283 11.1444H19.0605C19.0798 11.1444 19.0896 11.1346 19.0896 11.1149V10.4221C19.0896 10.4024 19.0963 10.3857 19.11 10.3718C19.1236 10.358 19.14 10.3511 19.1595 10.3511H19.6666C19.686 10.3511 19.7025 10.358 19.7161 10.3718C19.7297 10.3857 19.7365 10.4024 19.7365 10.4221V11.1149C19.7365 11.1346 19.7462 11.1444 19.7657 11.1444H20.3601C20.3795 11.1444 20.396 11.1514 20.4097 11.1652C20.4232 11.179 20.4301 11.1958 20.4301 11.2155V11.6299C20.4301 11.6498 20.4232 11.6665 20.4097 11.6803Z" fill="white"></path>
<path fill-rule="evenodd" clip-rule="evenodd" d="M21.7443 11.7988C21.649 11.8718 21.582 11.9734 21.5432 12.1037C21.5199 12.1708 21.5043 12.2576 21.4966 12.3642C21.4888 12.384 21.4966 12.3938 21.5199 12.3938H22.703C22.7224 12.3938 22.7322 12.384 22.7322 12.3642C22.7243 12.2656 22.7127 12.1905 22.6972 12.1392C22.6622 11.9971 22.5932 11.8867 22.4903 11.8076C22.3873 11.7287 22.2581 11.6892 22.1027 11.6892C21.9589 11.6892 21.8395 11.7258 21.7443 11.7988ZM23.4199 12.6484L23.4141 12.8319C23.4141 12.8793 23.3907 12.903 23.3441 12.903H21.5199C21.5004 12.903 21.4908 12.9129 21.4908 12.9326C21.5024 13.0628 21.5199 13.1516 21.5432 13.199C21.6365 13.4832 21.8638 13.6273 22.2251 13.6312C22.4893 13.6312 22.6991 13.5207 22.8546 13.2997C22.87 13.276 22.8895 13.2641 22.9128 13.2641C22.9283 13.2641 22.942 13.27 22.9536 13.2819L23.315 13.5838C23.35 13.6115 23.3558 13.643 23.3325 13.6786C23.212 13.8523 23.0517 13.9864 22.8516 14.0812C22.6515 14.1759 22.4291 14.2233 22.1843 14.2233C21.8812 14.2233 21.6238 14.1542 21.4121 14.016C21.2003 13.8779 21.0458 13.6845 20.9488 13.4358C20.8593 13.2227 20.8147 12.9266 20.8147 12.5477C20.8147 12.3189 20.838 12.1333 20.8846 11.9912C20.9623 11.715 21.109 11.4968 21.3247 11.3369C21.5403 11.1771 21.7997 11.0972 22.1027 11.0972C22.8681 11.0972 23.2994 11.5037 23.3966 12.3168C23.4121 12.4155 23.4199 12.5261 23.4199 12.6484Z" fill="white"></path>
<path fill-rule="evenodd" clip-rule="evenodd" d="M24.4164 13.9835C24.1987 13.8276 24.0472 13.6174 23.9618 13.3529C23.8996 13.1753 23.8685 12.9385 23.8685 12.6425C23.8685 12.3583 23.8996 12.1254 23.9618 11.9438C24.0434 11.6833 24.1939 11.4771 24.4135 11.3251C24.6329 11.1732 24.8923 11.0972 25.1915 11.0972C25.4946 11.0972 25.7588 11.1741 25.9842 11.3281C26.2094 11.482 26.3591 11.6754 26.4329 11.9083C26.4523 11.9715 26.4659 12.0347 26.4737 12.0978V12.1096C26.4737 12.1491 26.4523 12.1728 26.4096 12.1806L25.8851 12.2576H25.8734C25.8384 12.2576 25.8151 12.2379 25.8035 12.1984C25.8035 12.1787 25.8015 12.1629 25.7976 12.1511C25.7898 12.1195 25.7821 12.0918 25.7743 12.0681C25.7394 11.9577 25.6694 11.8668 25.5645 11.7958C25.4596 11.7248 25.3352 11.6892 25.1915 11.6892C25.0438 11.6892 24.9185 11.7277 24.8156 11.8047C24.7126 11.8817 24.6437 11.9873 24.6087 12.1214C24.5698 12.2478 24.5504 12.4234 24.5504 12.6484C24.5504 12.8655 24.5679 13.0412 24.6029 13.1753C24.6417 13.3135 24.7116 13.423 24.8127 13.5039C24.9137 13.5849 25.04 13.6253 25.1915 13.6253C25.3391 13.6253 25.4664 13.5868 25.5733 13.5098C25.6801 13.4329 25.749 13.3293 25.7802 13.199C25.784 13.1911 25.786 13.1812 25.786 13.1694C25.7898 13.1655 25.7918 13.1596 25.7918 13.1516C25.8035 13.1043 25.8306 13.0846 25.8734 13.0924L26.398 13.1753C26.4174 13.1793 26.4338 13.1882 26.4475 13.202C26.4611 13.2158 26.4659 13.2345 26.4621 13.2582C26.4504 13.3214 26.4407 13.3668 26.4329 13.3944C26.3591 13.647 26.2094 13.8473 25.9842 13.9953C25.7588 14.1433 25.4946 14.2174 25.1915 14.2174C24.8923 14.2174 24.6339 14.1395 24.4164 13.9835Z" fill="white"></path>
<path fill-rule="evenodd" clip-rule="evenodd" d="M28.5165 11.6803C28.5028 11.6941 28.4863 11.701 28.4669 11.701H27.8725C27.853 11.701 27.8433 11.7109 27.8433 11.7306V13.1575C27.8433 13.3075 27.8754 13.416 27.9395 13.4831C28.0036 13.5503 28.1056 13.5838 28.2455 13.5838H28.4203C28.4397 13.5838 28.4562 13.5907 28.4699 13.6045C28.4834 13.6184 28.4902 13.6351 28.4902 13.6548V14.0989C28.4902 14.1423 28.4669 14.168 28.4203 14.1758L28.1173 14.1817C27.8103 14.1817 27.5811 14.1285 27.4295 14.0219C27.278 13.9153 27.2002 13.714 27.1964 13.418V11.7306C27.1964 11.7109 27.1867 11.701 27.1673 11.701H26.8351C26.8156 11.701 26.7991 11.6941 26.7855 11.6803C26.7719 11.6665 26.7651 11.6498 26.7651 11.6299V11.2155C26.7651 11.1958 26.7719 11.179 26.7855 11.1652C26.7991 11.1514 26.8156 11.1444 26.8351 11.1444H27.1673C27.1867 11.1444 27.1964 11.1346 27.1964 11.1149V10.4221C27.1964 10.4024 27.2031 10.3857 27.2168 10.3718C27.2304 10.358 27.2469 10.3511 27.2663 10.3511H27.7734C27.7928 10.3511 27.8093 10.358 27.8229 10.3718C27.8365 10.3857 27.8433 10.4024 27.8433 10.4221V11.1149C27.8433 11.1346 27.853 11.1444 27.8725 11.1444H28.4669C28.4863 11.1444 28.5028 11.1514 28.5165 11.1652C28.5301 11.179 28.5369 11.1958 28.5369 11.2155V11.6299C28.5369 11.6498 28.5301 11.6665 28.5165 11.6803Z" fill="white"></path>
<path fill-rule="evenodd" clip-rule="evenodd" d="M30.8302 11.1651C30.8438 11.1513 30.8603 11.1444 30.8798 11.1444H31.4101C31.4295 11.1444 31.446 11.1513 31.4597 11.1651C31.4732 11.179 31.4801 11.1957 31.4801 11.2154V14.0988C31.4801 14.1186 31.4732 14.1354 31.4597 14.1491C31.446 14.163 31.4295 14.1699 31.4101 14.1699H30.8798C30.8603 14.1699 30.8438 14.163 30.8302 14.1491C30.8166 14.1354 30.8098 14.1186 30.8098 14.0988V13.9093C30.8098 13.8975 30.8059 13.8897 30.7982 13.8857C30.7903 13.8818 30.7826 13.8857 30.7749 13.8975C30.6155 14.1068 30.3765 14.2113 30.058 14.2113C29.7627 14.2113 29.515 14.1245 29.3149 13.9508C29.1148 13.7771 29.0148 13.5304 29.0148 13.2107V11.2154C29.0148 11.1957 29.0215 11.179 29.0351 11.1651C29.0487 11.1513 29.0652 11.1444 29.0847 11.1444H29.6209C29.6403 11.1444 29.6568 11.1513 29.6704 11.1651C29.684 11.179 29.6908 11.1957 29.6908 11.2154V13.0153C29.6908 13.2009 29.7384 13.3489 29.8336 13.4594C29.9288 13.5699 30.0618 13.6252 30.2328 13.6252C30.4077 13.6252 30.5476 13.5699 30.6525 13.4594C30.7574 13.3489 30.8098 13.2009 30.8098 13.0153V11.2154C30.8098 11.1957 30.8166 11.179 30.8302 11.1651Z" fill="white"></path>
<path fill-rule="evenodd" clip-rule="evenodd" d="M33.8287 11.1859C33.8598 11.2017 33.8714 11.2313 33.8637 11.2747L33.7646 11.8076C33.7607 11.8549 33.7335 11.8688 33.683 11.849C33.6247 11.8293 33.5567 11.8194 33.479 11.8194C33.4285 11.8194 33.3896 11.8214 33.3625 11.8253C33.1993 11.8333 33.0632 11.8914 32.9545 12C32.8457 12.1086 32.7913 12.2496 32.7913 12.4233V14.0988C32.7913 14.1186 32.7845 14.1354 32.7709 14.1492C32.7572 14.163 32.7408 14.1699 32.7214 14.1699H32.1852C32.1657 14.1699 32.1492 14.163 32.1356 14.1492C32.122 14.1354 32.1152 14.1186 32.1152 14.0988V11.2155C32.1152 11.1957 32.122 11.179 32.1356 11.1651C32.1492 11.1513 32.1657 11.1444 32.1852 11.1444H32.7214C32.7408 11.1444 32.7572 11.1513 32.7709 11.1651C32.7845 11.179 32.7913 11.1957 32.7913 11.2155V11.4819C32.7913 11.4977 32.7942 11.5066 32.8001 11.5085C32.8059 11.5106 32.8126 11.5056 32.8204 11.4937C32.9836 11.2372 33.2109 11.1089 33.5023 11.1089C33.6267 11.1089 33.7355 11.1346 33.8287 11.1859Z" fill="white"></path>
<path fill-rule="evenodd" clip-rule="evenodd" d="M35.0205 11.7988C34.9253 11.8718 34.8583 11.9734 34.8195 12.1037C34.7962 12.1708 34.7806 12.2576 34.7729 12.3642C34.765 12.384 34.7729 12.3938 34.7962 12.3938H35.9793C35.9987 12.3938 36.0084 12.384 36.0084 12.3642C36.0006 12.2656 35.9889 12.1905 35.9734 12.1392C35.9385 11.9971 35.8694 11.8867 35.7666 11.8076C35.6636 11.7287 35.5343 11.6892 35.379 11.6892C35.2352 11.6892 35.1157 11.7258 35.0205 11.7988ZM36.6961 12.6484L36.6903 12.8319C36.6903 12.8793 36.667 12.903 36.6204 12.903H34.7962C34.7767 12.903 34.767 12.9129 34.767 12.9326C34.7787 13.0628 34.7962 13.1516 34.8195 13.199C34.9127 13.4832 35.14 13.6273 35.5014 13.6312C35.7655 13.6312 35.9753 13.5207 36.1308 13.2997C36.1463 13.276 36.1658 13.2641 36.1891 13.2641C36.2046 13.2641 36.2182 13.27 36.2299 13.2819L36.5912 13.5838C36.6262 13.6115 36.632 13.643 36.6087 13.6786C36.4882 13.8523 36.328 13.9864 36.1279 14.0812C35.9277 14.1759 35.7054 14.2233 35.4606 14.2233C35.1575 14.2233 34.9001 14.1542 34.6883 14.016C34.4765 13.8779 34.3221 13.6845 34.225 13.4358C34.1356 13.2227 34.0909 12.9266 34.0909 12.5477C34.0909 12.3189 34.1143 12.1333 34.1609 11.9912C34.2386 11.715 34.3853 11.4968 34.6009 11.3369C34.8166 11.1771 35.0759 11.0972 35.379 11.0972C36.1444 11.0972 36.5757 11.5037 36.6728 12.3168C36.6883 12.4155 36.6961 12.5261 36.6961 12.6484Z" fill="white"></path>
<path fill-rule="evenodd" clip-rule="evenodd" d="M7.71155 11.8514C7.72546 11.834 7.74079 11.8177 7.75729 11.8027C7.74079 11.8177 7.72546 11.834 7.71155 11.8514Z" fill="white"></path>
<path fill-rule="evenodd" clip-rule="evenodd" d="M7.71142 11.8508C7.69063 11.8767 7.67295 11.905 7.65894 11.9355C7.67295 11.905 7.69063 11.8767 7.71142 11.8508Z" fill="white"></path>
<path fill-rule="evenodd" clip-rule="evenodd" d="M9.66203 11.2213C9.64964 11.2294 9.63698 11.2371 9.62378 11.2438C9.63698 11.2371 9.64964 11.2294 9.66203 11.2213Z" fill="white"></path>
<mask id="mask0_10305_48674" style="mask-type:alpha" maskUnits="userSpaceOnUse" x="5" y="8" width="5" height="8">
<path d="M5.41443 8.39014H9.85041V15.6691H5.41443V8.39014Z" fill="white"></path>
</mask>
<g mask="url(#mask0_10305_48674)">
<path fill-rule="evenodd" clip-rule="evenodd" d="M9.44438 8.39001C9.37408 8.39001 9.30805 8.40843 9.25066 8.44072H9.25056C9.25056 8.44072 5.62 10.5685 5.61768 10.5698C5.50066 10.6366 5.41418 10.7595 5.41418 10.9058V14.9087C5.41418 15.0795 5.54229 15.2192 5.69751 15.2668L7.11723 15.6544C7.15092 15.6638 7.18636 15.669 7.22303 15.669C7.43092 15.669 7.62232 15.5066 7.6222 15.302V14.7412L6.85383 14.6444C6.66842 14.6175 6.52954 14.445 6.52842 14.2473V11.374C6.53445 11.2134 6.63251 11.0771 6.77029 11.0166L9.85017 9.74503V8.76423C9.83381 8.55487 9.65467 8.39001 9.44438 8.39001Z" fill="white"></path>
</g>
<path fill-rule="evenodd" clip-rule="evenodd" d="M7.93295 11.7067C7.7565 11.7554 7.62244 11.9101 7.62244 12.1029V14.7413L8.33838 14.8315C8.56212 14.862 8.73874 14.6494 8.73874 14.4247L8.74172 12.9663C8.74128 12.7694 8.90547 12.6135 9.0977 12.5851L10.6147 12.3909C10.615 12.3908 10.6152 12.3906 10.6154 12.3906C10.7979 12.3648 10.9542 12.2216 10.9542 12.0344V9.83744C10.9542 9.63396 10.7608 9.48474 10.5577 9.48474C10.5087 9.48474 10.462 9.49417 10.4186 9.5105L9.85041 9.74509V10.8797C9.85041 11.0617 9.72734 11.2156 9.56491 11.2675L7.93295 11.7067Z" fill="white"></path>
</svg>