<svg width="42" height="24" viewBox="0 0 42 24" fill="none" xmlns="http://www.w3.org/2000/svg">
<mask id="path-1-inside-1_10305_48662" fill="white">
<path d="M0 0H42V24H0V0Z"></path>
</mask>
<path d="M0 0H42V24H0V0Z" fill="#0B0B0C"></path>
<path d="M0 0V-1H-1V0H0ZM42 0H43V-1H42V0ZM42 24V25H43V24H42ZM0 24H-1V25H0V24ZM0 0V1H42V0V-1H0V0ZM42 0H41V24H42H43V0H42ZM42 24V23H0V24V25H42V24ZM0 24H1V0H0H-1V24H0Z" fill="#E6E6E6" mask="url(#path-1-inside-1_10305_48662)"></path>
<g clip-path="url(#clip0_10305_48662)">
<path d="M20.1696 11.8553V15.5556H19.0352V6.41748H22.0439C22.4031 6.40972 22.7602 6.47563 23.0946 6.61141C23.429 6.74719 23.7341 6.95015 23.9923 7.20858C24.2531 7.45132 24.4606 7.74901 24.601 8.08165C24.7414 8.4143 24.8113 8.77418 24.8061 9.13711C24.8136 9.50198 24.7447 9.86421 24.6042 10.199C24.4638 10.5337 24.255 10.8331 23.9923 11.0766C23.4661 11.5957 22.8167 11.855 22.0439 11.8545H20.1696V11.8553ZM20.1696 7.54252V10.7324H22.0721C22.2807 10.7388 22.4883 10.7001 22.6816 10.6187C22.8748 10.5374 23.0496 10.4152 23.1946 10.26C23.3389 10.1148 23.4536 9.94121 23.5319 9.74941C23.6102 9.55762 23.6505 9.35152 23.6505 9.14331C23.6505 8.93509 23.6102 8.72899 23.5319 8.5372C23.4536 8.3454 23.3389 8.1718 23.1946 8.02666C23.0514 7.86815 22.8773 7.74295 22.6837 7.65936C22.4902 7.57577 22.2818 7.53569 22.0721 7.54179H20.1696V7.54252Z" fill="white"></path>
<path d="M27.4203 9.09924C28.2588 9.09924 28.9207 9.3311 29.406 9.79483C29.8912 10.2585 30.1336 10.8943 30.1331 11.7022V15.5556H29.048V14.688H28.9987C28.5289 15.4025 27.9041 15.7598 27.1243 15.7598C26.4587 15.7598 25.9018 15.5556 25.4537 15.1473C25.2386 14.9599 25.0666 14.7252 24.9504 14.4603C24.8341 14.1954 24.7764 13.907 24.7814 13.6162C24.7814 12.9692 25.0177 12.4547 25.4903 12.0726C25.9629 11.6905 26.5938 11.499 27.3829 11.4981C28.0566 11.4981 28.6114 11.6256 29.0473 11.8808V11.6125C29.0486 11.4142 29.0072 11.2181 28.9261 11.0384C28.8451 10.8587 28.7264 10.6999 28.5787 10.5735C28.2787 10.2935 27.8877 10.1406 27.4837 10.1455C26.85 10.1455 26.3485 10.4221 25.9793 10.9753L24.9801 10.3242C25.5298 9.50755 26.3431 9.09924 27.4203 9.09924ZM25.9525 13.6417C25.9518 13.7911 25.9855 13.9385 26.051 14.0717C26.1164 14.2048 26.2117 14.3199 26.3288 14.4072C26.5797 14.6115 26.8911 14.7197 27.2103 14.7135C27.689 14.7127 28.1479 14.5155 28.4864 14.1652C28.8622 13.7992 29.0501 13.3697 29.0501 12.8768C28.6964 12.5852 28.2031 12.4393 27.5704 12.4393C27.1095 12.4393 26.7253 12.5543 26.4176 12.7842C26.1069 13.0175 25.9525 13.3012 25.9525 13.6417V13.6417Z" fill="white"></path>
<path d="M36.3621 9.30334L32.574 18.3116H31.4029L32.8086 15.1596L30.3177 9.30334H31.5509L33.3512 13.7947H33.3759L35.1269 9.30334H36.3621Z" fill="white"></path>
<path d="M15.5852 11.0575C15.5856 10.6998 15.5564 10.3427 15.4978 9.99011H10.7134V12.012H13.4537C13.3976 12.3349 13.2789 12.6427 13.1048 12.9169C12.9307 13.1911 12.7047 13.4259 12.4404 13.6073V14.9197H14.0759C15.0335 14.0061 15.5852 12.6551 15.5852 11.0575Z" fill="white"></path>
<path d="M10.7135 16.1877C12.0826 16.1877 13.2353 15.7225 14.076 14.9205L12.4405 13.6081C11.9853 13.9274 11.3991 14.1097 10.7135 14.1097C9.39015 14.1097 8.26696 13.1866 7.86532 11.9427H6.18054V13.2953C6.60281 14.1647 7.2503 14.8956 8.05074 15.4064C8.85118 15.9172 9.77306 16.1877 10.7135 16.1877V16.1877Z" fill="white"></path>
<path d="M7.86526 11.9428C7.65293 11.291 7.65293 10.5851 7.86526 9.93333V8.58081H6.18048C5.82526 9.31223 5.64026 10.1195 5.64026 10.9381C5.64026 11.7566 5.82526 12.5639 6.18048 13.2953L7.86526 11.9428Z" fill="white"></path>
<path d="M10.7135 7.76633C11.437 7.7541 12.1361 8.03696 12.6597 8.55378L14.1077 7.05544C13.1895 6.16305 11.9731 5.67311 10.7135 5.68833C9.77306 5.68838 8.85118 5.95888 8.05074 6.46963C7.2503 6.98039 6.60281 7.7113 6.18054 8.58076L7.86532 9.93328C8.26696 8.6894 9.39015 7.76633 10.7135 7.76633Z" fill="white"></path>
</g>
<defs>
<clipPath id="clip0_10305_48662">
<rect width="30.7199" height="12.6233" fill="white" transform="translate(5.64001 5.68835)"></rect>
</clipPath>
</defs>
</svg>