<svg width="42" height="24" viewBox="0 0 42 24" fill="none" xmlns="http://www.w3.org/2000/svg">
<mask id="path-1-inside-1_10305_48656" fill="white">
<path d="M0 0H42V24H0V0Z"></path>
</mask>
<path d="M0 0H42V24H0V0Z" fill="#0B0B0C"></path>
<path d="M0 0V-1H-1V0H0ZM42 0H43V-1H42V0ZM42 24V25H43V24H42ZM0 24H-1V25H0V24ZM0 0V1H42V0V-1H0V0ZM42 0H41V24H42H43V0H42ZM42 24V23H0V24V25H42V24ZM0 24H1V0H0H-1V24H0Z" fill="#E6E6E6" mask="url(#path-1-inside-1_10305_48656)"></path>
<path d="M24.0183 15.3507H18.0509V4.53925H24.0183V15.3507Z" fill="#0B0B0C"></path>
<path d="M18.437 9.94498C18.437 7.75377 19.4517 5.79615 21.0401 4.53926C19.8819 3.61607 18.4149 3.07104 16.8266 3.07104C13.0653 3.07104 10.0099 6.15208 10.0099 9.94498C10.0099 13.7379 13.0653 16.8189 16.8266 16.8189C18.4149 16.8189 19.8819 16.2739 21.0401 15.3507C19.4517 14.0938 18.437 12.1362 18.437 9.94498Z" fill="white"></path>
<path d="M32.0702 9.94498C32.0702 13.7379 29.0149 16.8189 25.2536 16.8189C23.6652 16.8189 22.1982 16.2739 21.04 15.3507C22.6284 14.0938 23.6432 12.1362 23.6432 9.94498C23.6432 7.75377 22.6284 5.79615 21.04 4.53926C22.1982 3.61607 23.6652 3.07104 25.2536 3.07104C29.0149 3.07104 32.0702 6.15208 32.0702 9.94498Z" fill="white"></path>
<path d="M26.0257 18.4095C26.1029 18.4095 26.2243 18.4206 26.3015 18.454L26.1802 18.8322C26.0919 18.7988 26.0147 18.7877 25.9375 18.7877C25.6838 18.7877 25.5514 18.9545 25.5514 19.2548V20.2781H25.1543V18.454H25.5404V18.6764C25.6507 18.5096 25.8051 18.4095 26.0257 18.4095ZM24.5697 18.8099H23.93V19.633C23.93 19.811 23.9962 19.9333 24.1947 19.9333C24.294 19.9333 24.4263 19.9 24.5477 19.8332L24.658 20.178C24.5366 20.267 24.3381 20.3226 24.1616 20.3226C23.6984 20.3226 23.5329 20.0668 23.5329 19.6441V18.8099H23.1689V18.4429H23.5329V17.8867H23.93V18.4429H24.5697V18.8099V18.8099ZM19.5289 19.1992C19.5731 18.9323 19.7275 18.7543 20.0143 18.7543C20.268 18.7543 20.4334 18.91 20.4775 19.1992H19.5289ZM20.8857 19.3661C20.8857 18.7988 20.5327 18.4095 20.0253 18.4095C19.4958 18.4095 19.1208 18.7988 19.1208 19.3661C19.1208 19.9445 19.5069 20.3226 20.0474 20.3226C20.3231 20.3226 20.5658 20.2559 20.7864 20.0668L20.5878 19.7776C20.4334 19.9 20.2459 19.9667 20.0584 19.9667C19.8047 19.9667 19.5731 19.8443 19.5179 19.5218H20.8636C20.8746 19.4662 20.8857 19.4217 20.8857 19.3661ZM22.6174 18.9211C22.5071 18.8544 22.2865 18.7654 22.0549 18.7654C21.8342 18.7654 21.7129 18.8433 21.7129 18.9768C21.7129 19.0991 21.8453 19.1325 22.0218 19.1547L22.2093 19.177C22.6064 19.2326 22.838 19.3994 22.838 19.722C22.838 20.0668 22.5402 20.3226 22.0107 20.3226C21.7129 20.3226 21.4372 20.2448 21.2276 20.089L21.4151 19.7776C21.5475 19.8777 21.746 19.9667 22.0218 19.9667C22.2865 19.9667 22.4299 19.8888 22.4299 19.7442C22.4299 19.6441 22.3306 19.5885 22.11 19.5551L21.9225 19.5329C21.5144 19.4773 21.2938 19.2882 21.2938 18.999C21.2938 18.632 21.5916 18.4095 22.0438 18.4095C22.3306 18.4095 22.5953 18.4762 22.7828 18.5986L22.6174 18.9211ZM27.4707 18.7765C27.3935 18.7765 27.3163 18.7877 27.2501 18.821C27.1839 18.8544 27.1177 18.8878 27.0736 18.9434C27.0295 18.999 26.9854 19.0546 26.9523 19.1325C26.9192 19.1992 26.9081 19.2882 26.9081 19.3661C26.9081 19.455 26.9192 19.5329 26.9523 19.5996C26.9854 19.6664 27.0184 19.7331 27.0736 19.7887C27.1287 19.8443 27.1839 19.8777 27.2501 19.9111C27.3163 19.9444 27.3935 19.9556 27.4707 19.9556C27.5479 19.9556 27.6251 19.9444 27.6913 19.9111C27.7575 19.8777 27.8237 19.8443 27.8678 19.7887C27.9229 19.7331 27.956 19.6775 27.9891 19.5996C28.0222 19.5329 28.0332 19.4439 28.0332 19.3661C28.0332 19.2771 28.0222 19.1992 27.9891 19.1325C27.956 19.0657 27.9229 18.999 27.8678 18.9434C27.8126 18.8878 27.7575 18.8544 27.6913 18.821C27.6251 18.7988 27.5479 18.7765 27.4707 18.7765ZM27.4707 18.4095C27.6141 18.4095 27.7464 18.4317 27.8567 18.4874C27.9781 18.5318 28.0773 18.5986 28.1656 18.6876C28.2538 18.7765 28.32 18.8767 28.3752 18.9879C28.4193 19.1102 28.4524 19.2326 28.4524 19.3661C28.4524 19.4995 28.4303 19.633 28.3752 19.7442C28.331 19.8666 28.2538 19.9667 28.1656 20.0446C28.0773 20.1335 27.9781 20.2003 27.8567 20.2448C27.7354 20.2893 27.603 20.3226 27.4707 20.3226C27.3273 20.3226 27.1949 20.3004 27.0846 20.2448C26.9633 20.2003 26.864 20.1335 26.7758 20.0446C26.6875 19.9556 26.6214 19.8555 26.5662 19.7442C26.5221 19.6219 26.489 19.4995 26.489 19.3661C26.489 19.2326 26.5111 19.0991 26.5662 18.9879C26.6103 18.8655 26.6875 18.7654 26.7758 18.6876C26.864 18.5986 26.9633 18.5318 27.0846 18.4874C27.1949 18.4317 27.3273 18.4095 27.4707 18.4095ZM17.2347 19.3661C17.2347 19.0435 17.4442 18.7765 17.7862 18.7765C18.1171 18.7765 18.3266 19.0324 18.3266 19.3661C18.3266 19.6997 18.106 19.9445 17.7862 19.9445C17.4442 19.9445 17.2347 19.6886 17.2347 19.3661ZM18.7017 19.3661V18.454H18.3046V18.6764C18.1832 18.5096 17.9957 18.4095 17.731 18.4095C17.2236 18.4095 16.8265 18.8099 16.8265 19.3661C16.8265 19.9222 17.2236 20.3226 17.731 20.3226C17.9847 20.3226 18.1722 20.2225 18.3046 20.0557V20.2781H18.7017V19.3661ZM16.4846 20.2781V19.1325C16.4846 18.6987 16.2088 18.4095 15.7676 18.4095C15.536 18.4095 15.2933 18.4762 15.1279 18.7321C15.0065 18.5318 14.808 18.4095 14.5323 18.4095C14.3447 18.4095 14.1462 18.4651 14.0028 18.6764V18.454H13.6057V20.2781H14.0028V19.266C14.0028 18.9545 14.1793 18.7765 14.444 18.7765C14.7087 18.7765 14.8411 18.9434 14.8411 19.2548V20.267H15.2382V19.2548C15.2382 18.9434 15.4257 18.7654 15.6794 18.7654C15.9441 18.7654 16.0765 18.9323 16.0765 19.2437V20.2559H16.4846V20.2781Z" fill="white"></path>
</svg>