<svg width="42" height="24" viewBox="0 0 42 24" fill="none" xmlns="http://www.w3.org/2000/svg">
<mask id="path-1-inside-1_10305_48653" fill="white">
<path d="M0 0H42V24H0V0Z"></path>
</mask>
<path d="M0 0H42V24H0V0Z" fill="white"></path>
<path d="M0 0V-1H-1V0H0ZM42 0H43V-1H42V0ZM42 24V25H43V24H42ZM0 24H-1V25H0V24ZM0 0V1H42V0V-1H0V0ZM42 0H41V24H42H43V0H42ZM42 24V23H0V24V25H42V24ZM0 24H1V0H0H-1V24H0Z" fill="#E6E6E6" mask="url(#path-1-inside-1_10305_48653)"></path>
<path d="M13.9663 20.3787V19.2617C13.9663 18.8344 13.7013 18.5546 13.2463 18.5546C13.0189 18.5546 12.7715 18.6283 12.6015 18.8713C12.469 18.6674 12.2791 18.5546 11.9942 18.5546C11.8043 18.5546 11.6143 18.611 11.4642 18.8149V18.5915H11.0667V20.3787H11.4642V19.3918C11.4642 19.0752 11.6342 18.9255 11.8992 18.9255C12.1642 18.9255 12.2967 19.0925 12.2967 19.3918V20.3787H12.6942V19.3918C12.6942 19.0752 12.8842 18.9255 13.1293 18.9255C13.3943 18.9255 13.5268 19.0925 13.5268 19.3918V20.3787H13.9663ZM19.8626 18.5915H19.2178V18.0514H18.8203V18.5915H18.4603V18.945H18.8203V19.7649C18.8203 20.1748 18.9903 20.4156 19.4453 20.4156C19.6153 20.4156 19.8052 20.3592 19.9377 20.2854L19.8229 19.9492C19.7081 20.023 19.5756 20.0425 19.4806 20.0425C19.2907 20.0425 19.2156 19.9297 19.2156 19.7454V18.945H19.8604V18.5915H19.8626ZM23.2371 18.5524C23.0096 18.5524 22.8572 18.6652 22.7623 18.8127V18.5893H22.3647V20.3765H22.7623V19.3701C22.7623 19.073 22.8948 18.9038 23.1421 18.9038C23.2172 18.9038 23.3121 18.9233 23.3894 18.9407L23.5043 18.5676C23.4248 18.5524 23.3121 18.5524 23.2371 18.5524ZM18.1379 18.739C17.948 18.6088 17.683 18.5524 17.3981 18.5524C16.9432 18.5524 16.6406 18.7758 16.6406 19.1294C16.6406 19.4265 16.8681 19.5957 17.2656 19.6499L17.4555 19.6694C17.6631 19.7063 17.7779 19.7627 17.7779 19.856C17.7779 19.9861 17.6256 20.0794 17.3605 20.0794C17.0955 20.0794 16.8857 19.9861 16.7532 19.8928L16.5633 20.19C16.7709 20.3396 17.0558 20.4134 17.3407 20.4134C17.8707 20.4134 18.1754 20.1705 18.1754 19.8365C18.1754 19.5198 17.9281 19.3528 17.5505 19.2964L17.3605 19.2769C17.1905 19.2573 17.058 19.2205 17.058 19.1099C17.058 18.9797 17.1905 18.906 17.4003 18.906C17.6278 18.906 17.8552 18.9992 17.9701 19.0556L18.1379 18.739ZM28.7138 18.5524C28.4864 18.5524 28.334 18.6652 28.239 18.8127V18.5893H27.8415V20.3765H28.239V19.3701C28.239 19.073 28.3715 18.9038 28.6189 18.9038C28.694 18.9038 28.7889 18.9233 28.8662 18.9407L28.9811 18.572C28.9038 18.5524 28.7911 18.5524 28.7138 18.5524ZM23.6346 19.4851C23.6346 20.0252 24.0144 20.4156 24.6018 20.4156C24.8668 20.4156 25.0568 20.3592 25.2467 20.2117L25.0568 19.895C24.9044 20.0078 24.7542 20.062 24.582 20.062C24.2595 20.062 24.0321 19.8386 24.0321 19.4851C24.0321 19.1489 24.2595 18.9255 24.582 18.9081C24.752 18.9081 24.9044 18.9645 25.0568 19.0752L25.2467 18.7585C25.0568 18.6088 24.8668 18.5546 24.6018 18.5546C24.0144 18.5524 23.6346 18.945 23.6346 19.4851ZM27.3115 19.4851V18.5915H26.914V18.8149C26.7815 18.6479 26.5916 18.5546 26.3443 18.5546C25.8319 18.5546 25.4344 18.945 25.4344 19.4851C25.4344 20.0252 25.8319 20.4156 26.3443 20.4156C26.6093 20.4156 26.7992 20.3223 26.914 20.1553V20.3787H27.3115V19.4851ZM25.8518 19.4851C25.8518 19.1684 26.0594 18.9081 26.4017 18.9081C26.7241 18.9081 26.9516 19.1511 26.9516 19.4851C26.9516 19.8018 26.7241 20.062 26.4017 20.062C26.0616 20.0425 25.8518 19.7996 25.8518 19.4851ZM21.0949 18.5524C20.5649 18.5524 20.1851 18.9255 20.1851 19.4829C20.1851 20.0425 20.5649 20.4134 21.1148 20.4134C21.3798 20.4134 21.6448 20.3397 21.8546 20.1705L21.6647 19.8907C21.5123 20.0035 21.3224 20.0772 21.1347 20.0772C20.8873 20.0772 20.6422 19.9644 20.5848 19.6499H21.9297C21.9297 19.5935 21.9297 19.5567 21.9297 19.5003C21.9474 18.9255 21.6051 18.5524 21.0949 18.5524ZM21.0949 18.8886C21.3423 18.8886 21.5123 19.0383 21.5498 19.3159H20.6025C20.64 19.0752 20.81 18.8886 21.0949 18.8886ZM30.9708 19.4851V17.8844H30.5733V18.8149C30.4408 18.6479 30.2509 18.5546 30.0035 18.5546C29.4912 18.5546 29.0937 18.945 29.0937 19.4851C29.0937 20.0252 29.4912 20.4156 30.0035 20.4156C30.2685 20.4156 30.4585 20.3223 30.5733 20.1553V20.3787H30.9708V19.4851ZM29.5111 19.4851C29.5111 19.1684 29.7187 18.9081 30.061 18.9081C30.3834 18.9081 30.6108 19.1511 30.6108 19.4851C30.6108 19.8018 30.3834 20.062 30.061 20.062C29.7187 20.0425 29.5111 19.7996 29.5111 19.4851ZM16.2034 19.4851V18.5915H15.8058V18.8149C15.6733 18.6479 15.4834 18.5546 15.2361 18.5546C14.7237 18.5546 14.3262 18.945 14.3262 19.4851C14.3262 20.0252 14.7237 20.4156 15.2361 20.4156C15.5011 20.4156 15.691 20.3223 15.8058 20.1553V20.3787H16.2034V19.4851ZM14.7259 19.4851C14.7259 19.1684 14.9335 18.9081 15.2758 18.9081C15.5983 18.9081 15.8257 19.1511 15.8257 19.4851C15.8257 19.8018 15.5983 20.062 15.2758 20.062C14.9335 20.0425 14.7259 19.7996 14.7259 19.4851Z" fill="black"></path>
<path d="M23.977 5.01819H18.0055V15.5549H23.977V5.01819Z" fill="#FF5A00"></path>
<path d="M18.4029 10.2866C18.4029 8.14583 19.4276 6.24583 21 5.01821C19.8428 4.1246 18.3831 3.58453 16.7908 3.58453C13.0189 3.58453 9.96692 6.58202 9.96692 10.2866C9.96692 13.9912 13.0189 16.9886 16.7908 16.9886C18.3831 16.9886 19.8428 16.4486 21 15.555C19.4254 14.3447 18.4029 12.4273 18.4029 10.2866Z" fill="#EB001B"></path>
<path d="M32.0331 10.2866C32.0331 13.9912 28.9811 16.9886 25.2092 16.9886C23.6169 16.9886 22.1572 16.4486 21 15.555C22.5922 14.3252 23.5971 12.4273 23.5971 10.2866C23.5971 8.14583 22.5724 6.24583 21 5.01821C22.155 4.1246 23.6147 3.58453 25.207 3.58453C28.9811 3.58453 32.0331 6.60154 32.0331 10.2866Z" fill="#F79E1B"></path>
</svg>