<svg width="42" height="24" viewBox="0 0 42 24" fill="none" xmlns="http://www.w3.org/2000/svg">
<mask id="path-1-inside-1_10305_48663" fill="white">
<path d="M0 0H42V24H0V0Z"></path>
</mask>
<path d="M0 0H42V24H0V0Z" fill="white"></path>
<path d="M0 0V-1H-1V0H0ZM42 0H43V-1H42V0ZM42 24V25H43V24H42ZM0 24H-1V25H0V24ZM0 0V1H42V0V-1H0V0ZM42 0H41V24H42H43V0H42ZM42 24V23H0V24V25H42V24ZM0 24H1V0H0H-1V24H0Z" fill="#E6E6E6" mask="url(#path-1-inside-1_10305_48663)"></path>
<path d="M16.9702 9.74963H15.1853C15.0631 9.74963 14.9593 9.83978 14.9402 9.96227L14.2183 14.6119C14.2039 14.7037 14.2739 14.7864 14.3655 14.7864H15.2176C15.3398 14.7864 15.4437 14.6962 15.4627 14.5735L15.6574 13.3194C15.6762 13.1966 15.7803 13.1065 15.9022 13.1065H16.4673C17.643 13.1065 18.3216 12.5285 18.4988 11.3831C18.5787 10.882 18.5022 10.4883 18.2712 10.2126C18.0175 9.90977 17.5676 9.74963 16.9702 9.74963ZM17.1761 11.4478C17.0785 12.0985 16.5891 12.0985 16.116 12.0985H15.8466L16.0356 10.8833C16.0468 10.8099 16.1094 10.7558 16.1825 10.7558H16.306C16.6283 10.7558 16.9323 10.7558 17.0895 10.9425C17.1832 11.0538 17.2119 11.2193 17.1761 11.4478Z" fill="#253B80"></path>
<path d="M22.3056 11.4269H21.4508C21.378 11.4269 21.3151 11.481 21.3039 11.5544L21.266 11.7973L21.2063 11.7092C21.0212 11.4364 20.6086 11.3452 20.1968 11.3452C19.2522 11.3452 18.4455 12.0719 18.2884 13.0914C18.2067 13.5999 18.3228 14.0862 18.6068 14.4253C18.8673 14.7371 19.24 14.867 19.6834 14.867C20.4444 14.867 20.8665 14.3699 20.8665 14.3699L20.8283 14.6111C20.814 14.7034 20.8839 14.7861 20.975 14.7861H21.7449C21.8674 14.7861 21.9707 14.696 21.99 14.5732L22.452 11.6013C22.4666 11.5099 22.3969 11.4269 22.3056 11.4269ZM21.1141 13.1168C21.0317 13.6129 20.6441 13.9459 20.1498 13.9459C19.9016 13.9459 19.7032 13.865 19.5759 13.7118C19.4495 13.5596 19.4015 13.343 19.4417 13.1017C19.5187 12.6099 19.9128 12.266 20.3995 12.266C20.6423 12.266 20.8396 12.3479 20.9695 12.5025C21.0998 12.6587 21.1515 12.8766 21.1141 13.1168Z" fill="#253B80"></path>
<path d="M26.8578 11.4269H25.9989C25.917 11.4269 25.84 11.4682 25.7935 11.5374L24.6089 13.3101L24.1067 11.6066C24.0752 11.5001 23.9783 11.4269 23.8687 11.4269H23.0247C22.9221 11.4269 22.8509 11.5287 22.8835 11.6268L23.8296 14.4473L22.9401 15.7228C22.8702 15.8233 22.9406 15.9615 23.0615 15.9615H23.9194C24.0008 15.9615 24.077 15.9212 24.1232 15.8533L26.98 11.6642C27.0484 11.564 26.9782 11.4269 26.8578 11.4269Z" fill="#253B80"></path>
<path d="M29.7015 9.74963H27.9163C27.7945 9.74963 27.6906 9.83978 27.6715 9.96227L26.9496 14.6119C26.9353 14.7037 27.0052 14.7864 27.0963 14.7864H28.0124C28.0975 14.7864 28.1703 14.7233 28.1836 14.6374L28.3885 13.3194C28.4073 13.1966 28.5114 13.1065 28.6333 13.1065H29.1981C30.3741 13.1065 31.0524 12.5285 31.2299 11.3831C31.31 10.882 31.233 10.4883 31.002 10.2126C30.7486 9.90977 30.2989 9.74963 29.7015 9.74963ZM29.9074 11.4478C29.8101 12.0985 29.3207 12.0985 28.8473 12.0985H28.5782L28.7674 10.8833C28.7787 10.8099 28.8408 10.7558 28.9141 10.7558H29.0376C29.3596 10.7558 29.6639 10.7558 29.821 10.9425C29.9147 11.0538 29.9432 11.2193 29.9074 11.4478Z" fill="#179BD7"></path>
<path d="M35.0367 11.4269H34.1825C34.1092 11.4269 34.0468 11.481 34.0358 11.5544L33.998 11.7973L33.938 11.7092C33.7529 11.4364 33.3406 11.3452 32.9287 11.3452C31.9842 11.3452 31.1777 12.0719 31.0206 13.0914C30.9392 13.5999 31.0548 14.0862 31.3388 14.4253C31.5998 14.7371 31.9719 14.867 32.4153 14.867C33.1764 14.867 33.5984 14.3699 33.5984 14.3699L33.5603 14.6111C33.546 14.7034 33.6159 14.7861 33.7075 14.7861H34.4772C34.5991 14.7861 34.7029 14.696 34.722 14.5732L35.1842 11.6013C35.1983 11.5099 35.1283 11.4269 35.0367 11.4269ZM33.8453 13.1168C33.7634 13.6129 33.3753 13.9459 32.881 13.9459C32.6333 13.9459 32.4344 13.865 32.307 13.7118C32.1807 13.5596 32.1332 13.343 32.1729 13.1017C32.2504 12.6099 32.644 12.266 33.1307 12.266C33.3734 12.266 33.5708 12.3479 33.7007 12.5025C33.8315 12.6587 33.8832 12.8766 33.8453 13.1168Z" fill="#179BD7"></path>
<path d="M36.0444 9.87706L35.3118 14.6118C35.2975 14.7035 35.3674 14.7863 35.4585 14.7863H36.195C36.3174 14.7863 36.4213 14.6961 36.4401 14.5734L37.1625 9.92399C37.1769 9.83225 37.1069 9.74927 37.0158 9.74927H36.1911C36.1183 9.74953 36.0556 9.80362 36.0444 9.87706Z" fill="#179BD7"></path>
<path d="M6.80585 15.6899L6.94235 14.8091L6.63829 14.802H5.1864L6.19539 8.30275C6.19852 8.28313 6.2087 8.26483 6.22358 8.25184C6.23845 8.23885 6.25751 8.23169 6.27734 8.23169H8.72543C9.53816 8.23169 10.099 8.4035 10.3919 8.7426C10.5291 8.90168 10.6166 9.06792 10.6589 9.25086C10.7032 9.44282 10.704 9.67216 10.6607 9.95187L10.6575 9.97229V10.1515L10.7948 10.2305C10.9104 10.2928 11.0023 10.3642 11.0728 10.4458C11.1902 10.5818 11.2662 10.7547 11.2983 10.9596C11.3314 11.1704 11.3205 11.4212 11.2662 11.7052C11.2035 12.0318 11.1023 12.3163 10.9655 12.5491C10.8397 12.7636 10.6795 12.9415 10.4892 13.0794C10.3076 13.2104 10.0917 13.3098 9.84769 13.3734C9.61124 13.436 9.34163 13.4675 9.04593 13.4675H8.85541C8.71917 13.4675 8.58685 13.5174 8.48297 13.6067C8.37884 13.6979 8.30994 13.8226 8.2888 13.9588L8.27444 14.0381L8.03329 15.5905L8.02233 15.6475C8.01945 15.6655 8.0145 15.6745 8.00719 15.6806C8.00066 15.6862 7.99127 15.6899 7.98213 15.6899H6.80585Z" fill="#253B80"></path>
<path d="M10.9249 9.99292C10.9176 10.0404 10.9092 10.0889 10.8998 10.1387C10.577 11.8226 9.47246 12.4043 8.06181 12.4043H7.34356C7.17105 12.4043 7.02567 12.5316 6.99879 12.7044L6.63106 15.0737L6.52692 15.7453C6.50943 15.8587 6.59556 15.9611 6.70831 15.9611H7.9822C8.13306 15.9611 8.2612 15.8497 8.28495 15.6986L8.29748 15.6328L8.53733 14.0866L8.55273 14.0017C8.57622 13.8501 8.70463 13.7387 8.85548 13.7387H9.046C10.2802 13.7387 11.2464 13.2297 11.5288 11.7566C11.6468 11.1412 11.5857 10.6274 11.2736 10.266C11.1791 10.157 11.0619 10.0666 10.9249 9.99292Z" fill="#179BD7"></path>
<path d="M10.5871 9.85612C10.5378 9.84154 10.4869 9.82828 10.4347 9.81635C10.3823 9.80469 10.3285 9.79435 10.2732 9.78533C10.0795 9.75352 9.86733 9.7384 9.64 9.7384H7.7212C7.67396 9.7384 7.62907 9.74927 7.58888 9.76889C7.5004 9.81211 7.43463 9.89722 7.41871 10.0014L7.01052 12.6278L6.99878 12.7045C7.02566 12.5316 7.17103 12.4043 7.34355 12.4043H8.06179C9.47245 12.4043 10.577 11.8224 10.8998 10.1388C10.9095 10.0889 10.9176 10.0404 10.9249 9.99293C10.8432 9.94892 10.7547 9.91127 10.6594 9.87919C10.6359 9.87124 10.6117 9.86355 10.5871 9.85612Z" fill="#222D65"></path>
<path d="M7.41871 10.0015C7.43463 9.89727 7.5004 9.81216 7.58887 9.76921C7.62933 9.74959 7.67396 9.73872 7.7212 9.73872H9.64C9.86732 9.73872 10.0795 9.75383 10.2732 9.78565C10.3285 9.79466 10.3823 9.805 10.4347 9.81667C10.4869 9.8286 10.5378 9.84186 10.5871 9.85644C10.6117 9.86386 10.6359 9.87155 10.6597 9.87924C10.755 9.91132 10.8434 9.94924 10.9251 9.99298C11.0212 9.37071 10.9243 8.94703 10.5931 8.56338C10.228 8.14103 9.56901 7.96021 8.72575 7.96021H6.27766C6.1054 7.96021 5.95846 8.08747 5.93184 8.2606L4.91215 14.8266C4.89206 14.9565 4.99071 15.0737 5.11964 15.0737H6.63104L7.01052 12.6279L7.41871 10.0015Z" fill="#253B80"></path>
</svg>