<svg width="42" height="24" viewBox="0 0 42 24" fill="none" xmlns="http://www.w3.org/2000/svg">
<mask id="path-1-inside-1_10305_48676" fill="white">
<path d="M0 0H42V24H0V0Z"></path>
</mask>
<path d="M0 0H42V24H0V0Z" fill="#0B0B0C"></path>
<path d="M0 0V-1H-1V0H0ZM42 0H43V-1H42V0ZM42 24V25H43V24H42ZM0 24H-1V25H0V24ZM0 0V1H42V0V-1H0V0ZM42 0H41V24H42H43V0H42ZM42 24V23H0V24V25H42V24ZM0 24H1V0H0H-1V24H0Z" fill="#E6E6E6" mask="url(#path-1-inside-1_10305_48676)"></path>
<path d="M6.79319 9.63679C6.81554 9.58093 6.92725 9.1564 6.88257 9H8.31255C8.60301 9 8.80411 9.27929 8.7259 9.54742L8.39075 10.7763C8.31255 11.0668 8.04443 11.2679 7.74279 11.2679H6.34632L6.79319 9.63679ZM12.1221 9H10.6251C10.6586 9.12289 10.5916 9.41335 10.5581 9.55859L10.1112 11.1673C9.94362 11.7482 9.69784 12.2733 8.93817 12.2733H7.75396C7.09483 12.2733 6.52507 12.709 6.34632 13.3458L6 14.5859H7.9774L8.31255 13.3905C8.48013 12.8096 8.7259 12.2845 9.48558 12.2845H10.681C11.3289 12.2845 11.9098 11.8488 12.0774 11.212L12.5355 9.55859C12.6137 9.27929 12.4014 9 12.1221 9Z" fill="white"></path>
<path d="M20.0987 10.7204C20.0875 10.7092 20.0875 10.7092 20.0875 10.698C19.8976 10.3293 19.5736 10.1618 19.1714 10.1729C18.8028 10.1729 18.4788 10.3182 18.233 10.5975C17.8085 11.0555 17.6521 11.6029 17.7414 12.2062C17.8196 12.7201 18.2442 13.1111 18.7581 13.0999C19.1826 13.0999 19.5178 12.91 19.7859 12.5972C19.797 12.586 19.8082 12.5749 19.8306 12.5525L19.7412 13.0217H20.5679C20.7131 12.0945 20.8472 11.1784 20.9924 10.2511H20.1657L20.0987 10.7204ZM19.9535 11.5918C19.9088 11.9604 19.6518 12.2621 19.3055 12.3403C19.2496 12.3514 19.2049 12.3514 19.1491 12.3626C18.7469 12.3626 18.4788 12.0386 18.557 11.6253C18.624 11.2566 18.9257 10.9661 19.3055 10.9438C19.7188 10.8991 19.9981 11.1896 19.9535 11.5918ZM32.7786 10.2511C32.6334 11.1672 32.4993 12.0945 32.3541 13.0217H31.5274L31.5832 12.6196C31.5832 12.6196 31.5832 12.6196 31.5721 12.6196C31.5609 12.6307 31.5497 12.6531 31.5385 12.6642C31.2704 13.0329 30.7677 13.2005 30.3432 13.0552C30.0415 12.9547 29.8851 12.7201 29.8181 12.4185C29.7622 12.1839 29.7958 11.9381 29.8293 11.7035C29.9075 11.2231 29.9745 10.7427 30.0527 10.2623H30.8794C30.8682 10.3629 30.8459 10.4634 30.8347 10.564C30.7677 10.9661 30.7118 11.3795 30.6448 11.7817C30.6336 11.8934 30.6336 11.9939 30.6783 12.0945C30.7565 12.2509 30.8906 12.2956 31.047 12.3067C31.3598 12.3179 31.6391 12.0833 31.6949 11.7817C31.7285 11.5918 31.762 11.4018 31.7843 11.2119C31.829 10.9103 31.9296 10.2623 31.9296 10.2623C32.2088 10.2511 32.7786 10.2511 32.7786 10.2511ZM28.8126 9.14514H29.6393C29.4383 10.4411 29.2372 11.7258 29.0472 13.0217H28.2205C28.4105 11.7258 28.6115 10.4411 28.8126 9.14514ZM35.4933 10.2511L35.4151 10.7315C35.404 10.7092 35.3928 10.7092 35.3928 10.698C35.2587 10.4299 35.0465 10.2735 34.756 10.2065C34.3873 10.1283 34.041 10.2065 33.7394 10.4299C33.3819 10.6868 33.1808 11.0443 33.0914 11.4689C33.0244 11.7817 33.0132 12.0833 33.1249 12.3849C33.259 12.7201 33.4936 12.9324 33.8511 12.9882C34.298 13.0664 34.689 12.91 35.013 12.6084C35.0576 12.5637 35.1023 12.519 35.1358 12.4743C35.1247 12.5525 35.1135 12.6307 35.1023 12.7089C35.0912 12.8318 35.0688 12.9435 35.0353 13.0552C34.9794 13.2675 34.8454 13.4239 34.6443 13.5021C34.3315 13.625 34.0187 13.6027 33.717 13.4351C33.6165 13.3792 33.5271 13.2899 33.4266 13.2117L32.9238 13.8149C33.192 14.0607 33.6053 14.2506 33.9852 14.273C34.3873 14.3065 34.7672 14.2283 35.1247 14.0384C35.5269 13.8149 35.795 13.4798 35.8843 13.0217C35.9067 12.91 35.929 12.8095 35.9402 12.6978C35.9849 12.3961 36.0296 12.0945 36.0743 11.7928C36.1301 11.4465 36.186 11.089 36.2418 10.7427C36.2642 10.5751 36.32 10.24 36.32 10.24C36.32 10.24 35.7391 10.2511 35.4933 10.2511ZM34.4879 12.2956C34.1862 12.2956 33.974 12.1392 33.907 11.8599C33.8623 11.6923 33.8958 11.5247 33.974 11.3683C34.1304 11.0443 34.4879 10.8544 34.8454 10.9103C35.1358 10.9661 35.3258 11.2007 35.3146 11.5024C35.2811 11.9381 34.9124 12.2956 34.4879 12.2956ZM27.1704 10.1953C26.7459 10.1171 26.3772 10.2288 26.0532 10.5193C25.9862 10.5751 25.9192 10.6422 25.8633 10.6868L25.9303 10.2511H25.1036C25.0478 10.6198 24.5115 14.1277 24.5003 14.2059H25.3271C25.4164 13.6585 25.4946 13.0999 25.584 12.5525H25.5952C25.6063 12.5637 25.6064 12.5749 25.6175 12.586C25.7628 12.843 25.975 13.0106 26.2655 13.0664C26.6788 13.1446 27.0587 13.0329 27.3715 12.7536C27.6508 12.519 27.8072 12.2062 27.8966 11.8599C27.9859 11.5359 28.0083 11.2007 27.9077 10.8656C27.796 10.5193 27.5502 10.2735 27.1704 10.1953ZM27.1145 11.5918C27.0698 11.9604 26.8129 12.2621 26.4666 12.3291C26.4107 12.3403 26.3549 12.3403 26.3102 12.3514C25.908 12.3514 25.651 12.0274 25.7292 11.6253C25.7963 11.2454 26.0979 10.9661 26.4777 10.9326C26.8799 10.8991 27.1592 11.2007 27.1145 11.5918ZM16.6019 10.1953C16.1774 10.1171 15.8087 10.2288 15.4848 10.5193C15.4177 10.5751 15.3507 10.6422 15.2948 10.6868L15.3619 10.2511H14.5352C14.4793 10.6198 13.9431 14.1277 13.9319 14.2059H14.7586C14.848 13.6585 14.9262 13.0999 15.0155 12.5525H15.0267C15.0379 12.5637 15.0379 12.5749 15.0491 12.586C15.1943 12.843 15.4066 13.0106 15.697 13.0664C16.1104 13.1446 16.4902 13.0329 16.803 12.7536C17.0823 12.519 17.2387 12.2062 17.3281 11.8599C17.4175 11.5359 17.4398 11.2007 17.3393 10.8656C17.2275 10.5193 16.9929 10.2735 16.6019 10.1953ZM16.5461 11.5918C16.5014 11.9604 16.2444 12.2621 15.8981 12.3291C15.8423 12.3403 15.7864 12.3403 15.7417 12.3514C15.3395 12.3514 15.0826 12.0274 15.1608 11.6253C15.2278 11.2454 15.5294 10.9661 15.9093 10.9326C16.3115 10.8991 16.5908 11.2007 16.5461 11.5918ZM24.6344 10.2511L22.8469 14.2059H22.0426C22.0873 14.0942 22.1878 13.882 22.2772 13.6474C22.5006 13.1335 22.3889 13.0106 22.2213 13.0106H21.7633C21.6516 13.0106 21.5622 12.9212 21.5622 12.8206L21.4505 10.24H22.2883L22.3889 12.5749C22.4001 12.8206 22.6347 12.8318 22.7464 12.5749L23.7854 10.24H24.6344V10.2511Z" fill="white"></path>
</svg>