<svg width="42" height="24" viewBox="0 0 42 24" fill="none" xmlns="http://www.w3.org/2000/svg">
<mask id="path-1-inside-1_10305_48649" fill="white">
<path d="M0 0H42V24H0V0Z"></path>
</mask>
<path d="M0 0H42V24H0V0Z" fill="#1434CB"></path>
<path d="M0 0V-1H-1V0H0ZM42 0H43V-1H42V0ZM42 24V25H43V24H42ZM0 24H-1V25H0V24ZM0 0V1H42V0V-1H0V0ZM42 0H41V24H42H43V0H42ZM42 24V23H0V24V25H42V24ZM0 24H1V0H0H-1V24H0Z" fill="#E6E6E6" mask="url(#path-1-inside-1_10305_48649)"></path>
<path d="M19.1108 16.9042H16.7246L18.2171 6.94647H20.6032L19.1108 16.9042Z" fill="white"></path>
<path d="M27.7612 7.18981C27.2905 6.98833 26.544 6.76587 25.6209 6.76587C23.2644 6.76587 21.605 8.12174 21.5949 10.0602C21.5753 11.4904 22.7829 12.2848 23.6862 12.7617C24.6094 13.249 24.9232 13.567 24.9232 14.0014C24.9138 14.6685 24.1772 14.976 23.4902 14.976C22.5375 14.976 22.027 14.8175 21.2513 14.4463L20.9371 14.2872L20.6031 16.5225C21.1628 16.7976 22.1939 17.0418 23.2644 17.0525C25.7682 17.0525 27.3983 15.7176 27.4176 13.6518C27.4271 12.5182 26.7894 11.6497 25.4146 10.9399C24.58 10.4843 24.0689 10.1771 24.0689 9.71091C24.0787 9.28711 24.5012 8.85303 25.4433 8.85303C26.2191 8.83177 26.789 9.03297 27.2208 9.23431L27.4367 9.34005L27.7612 7.18981V7.18981Z" fill="white"></path>
<path d="M30.9326 13.3765C31.1291 12.8044 31.8853 10.5904 31.8853 10.5904C31.8754 10.6117 32.0814 10.0078 32.1992 9.63709L32.366 10.4951C32.366 10.4951 32.8179 12.8786 32.916 13.3765C32.5431 13.3765 31.4039 13.3765 30.9326 13.3765ZM33.8781 6.94647H32.0324C31.4632 6.94647 31.0307 7.12641 30.7852 7.77267L27.2407 16.904H29.7445C29.7445 16.904 30.1567 15.675 30.2453 15.4103C30.52 15.4103 32.9557 15.4103 33.309 15.4103C33.3776 15.7599 33.5938 16.904 33.5938 16.904H35.8032L33.8781 6.94647V6.94647Z" fill="white"></path>
<path d="M14.7313 6.94647L12.3944 13.7367L12.1391 12.3595C11.707 10.7705 10.3521 9.04406 8.83997 8.18562L10.9805 16.8936H13.5039L17.2546 6.94647H14.7313V6.94647Z" fill="white"></path>
<path d="M10.2247 6.94647H6.38547L6.34619 7.14767C9.34101 7.974 11.3244 9.96585 12.1393 12.36L11.3047 7.78351C11.1673 7.14753 10.7451 6.96745 10.2247 6.94647Z" fill="white"></path>
</svg>