<svg xmlns="http://www.w3.org/2000/svg" width="462" height="79" viewBox="0 0 462 79" fill="none">
  <path d="M 124.6 24.4 C 118.8 18.6 110.8 15 102 15 C 84.4 15 70 29.4 70 47 C 70 55.8 73.6 63.8 79.4 69.6 C 85.2 75.4 93.2 79 102 79 C 110.8 79 118.8 75.4 124.6 69.6 C 130.4 63.8 134 55.8 134 47 C 134 38.2 130.4 30.2 124.6 24.4 Z M 102 71 C 88.78 71 78 60.24 78 47 C 78 33.76 88.78 23 102 23 C 115.22 23 126 33.76 126 47 C 126 60.24 115.24 71 102 71 Z" fill="currentColor" fill-rule="nonzero"/>
  <path d="M 264.6 24.4 C 258.8 18.6 250.8 15 242 15 C 224.4 15 210 29.4 210 47 C 210 55.8 213.6 63.8 219.4 69.6 C 225.2 75.4 233.2 79 242 79 C 250.8 79 258.8 75.4 264.6 69.6 C 270.4 63.8 274 55.8 274 47 C 274 38.2 270.4 30.2 264.6 24.4 Z M 242 71 C 228.78 71 218 60.24 218 47 C 218 33.76 228.78 23 242 23 C 255.22 23 266 33.76 266 47 C 266 60.24 255.24 71 242 71 Z" fill="currentColor" fill-rule="nonzero"/>
  <path d="M 408 15 L 400 15 L 400 79 L 408 79 L 408 15 Z" fill="currentColor" fill-rule="nonzero"/>
  <path d="M 408 4 C 408 1.791 406.209 0 404 0 C 401.791 0 400 1.791 400 4 C 400 6.209 401.791 8 404 8 C 406.209 8 408 6.209 408 4 Z" fill="currentColor" fill-rule="nonzero"/>
  <path d="M 33.5 14.98 C 22.82 14.98 13.44 20.72 8 29.44 L 8 0 L 0 0 L 0 79 L 8 79 L 8 64.52 C 13.44 73.22 22.82 78.98 33.5 78.98 C 50.36 78.98 64 64.64 64 46.98 C 64 29.32 50.36 14.98 33.5 14.98 Z M 31.9 70.98 C 18.7 70.98 8 60.22 8 46.98 C 8 33.74 18.7 22.98 31.9 22.98 C 45.1 22.98 55.8 33.72 55.8 46.98 C 55.8 60.24 45.1 70.98 31.9 70.98 Z" fill="currentColor" fill-rule="nonzero"/>
  <path d="M 173.5 14.98 C 162.82 14.98 153.44 20.72 148 29.44 L 148 0 L 140 0 L 140 79 L 148 79 L 148 64.52 C 153.44 73.22 162.82 78.98 173.5 78.98 C 190.36 78.98 204 64.64 204 46.98 C 204 29.32 190.36 14.98 173.5 14.98 Z M 171.9 70.98 C 158.7 70.98 148 60.22 148 46.98 C 148 33.74 158.7 22.98 171.9 22.98 C 185.1 22.98 195.8 33.72 195.8 46.98 C 195.8 60.24 185.1 70.98 171.9 70.98 Z" fill="currentColor" fill-rule="nonzero"/>
  <path d="M 390 41 L 390 79 L 382 79 L 382 43 C 382 37.48 379.76 32.48 376.14 28.86 C 372.52 25.24 367.52 23 362 23 C 350.96 23 342 31.96 342 43 L 342 79 L 334 79 L 334 0 L 342 0 L 342 27.16 C 346.6 19.86 354.72 15 364 15 C 371.18 15 377.68 17.9 382.38 22.62 C 387.08 27.32 390 33.82 390 41 Z" fill="currentColor" fill-rule="evenodd"/>
  <path d="M 450 23 C 454.36 23 458.46 24.16 462 26.22 L 462 17.36 C 458.3 15.84 454.24 15 450 15 C 432.4 15 418 29.4 418 47 C 418 55.8 421.6 63.8 427.4 69.6 C 433.2 75.4 441.2 79 450 79 C 454.24 79 458.3 78.16 462 76.64 L 462 67.78 C 458.46 69.84 454.36 71 450 71 C 436.76 71 426 60.24 426 47 C 426 33.76 436.76 23 450 23 Z" fill="currentColor" fill-rule="nonzero"/>
  <path d="M 312 23 C 316.36 23 320.46 24.16 324 26.22 L 324 17.36 C 320.3 15.84 316.24 15 312 15 C 294.4 15 280 29.4 280 47 C 280 55.8 283.6 63.8 289.4 69.6 C 295.2 75.4 303.2 79 312 79 C 316.24 79 320.3 78.16 324 76.64 L 324 67.78 C 320.46 69.84 316.36 71 312 71 C 298.76 71 288 60.24 288 47 C 288 33.76 298.76 23 312 23 Z" fill="currentColor" fill-rule="nonzero"/>
</svg>
