<svg width="1180" height="414" viewBox="0 0 1180 414" fill="none" xmlns="http://www.w3.org/2000/svg">
<path d="M377.2 176.3C365.6 164.7 349.6 157.5 332 157.5C296.8 157.5 268 186.3 268 221.5C268 239.1 275.2 255.1 286.8 266.7C298.4 278.3 314.4 285.5 332 285.5C349.6 285.5 365.6 278.3 377.2 266.7C388.8 255.1 396 239.1 396 221.5C396 203.9 388.8 187.9 377.2 176.3ZM332 269.5C305.56 269.5 284 247.98 284 221.5C284 195.02 305.56 173.5 332 173.5C358.44 173.5 380 195.02 380 221.5C380 247.98 358.48 269.5 332 269.5Z" fill="#0B0B0C"></path>
<path d="M657.2 176.3C645.6 164.7 629.6 157.5 612 157.5C576.8 157.5 548 186.3 548 221.5C548 239.1 555.2 255.1 566.8 266.7C578.4 278.3 594.4 285.5 612 285.5C629.6 285.5 645.6 278.3 657.2 266.7C668.8 255.1 676 239.1 676 221.5C676 203.9 668.8 187.9 657.2 176.3ZM612 269.5C585.56 269.5 564 247.98 564 221.5C564 195.02 585.56 173.5 612 173.5C638.44 173.5 660 195.02 660 221.5C660 247.98 638.48 269.5 612 269.5Z" fill="#0B0B0C"></path>
<path d="M944 157.5H928V285.5H944V157.5Z" fill="#0B0B0C"></path>
<path d="M944 135.5C944 131.082 940.418 127.5 936 127.5C931.582 127.5 928 131.082 928 135.5C928 139.918 931.582 143.5 936 143.5C940.418 143.5 944 139.918 944 135.5Z" fill="#0B0B0C"></path>
<path d="M195 157.46C173.64 157.46 154.88 168.94 144 186.38V127.5H128V285.5H144V256.54C154.88 273.94 173.64 285.46 195 285.46C228.72 285.46 256 256.78 256 221.46C256 186.14 228.72 157.46 195 157.46ZM191.8 269.46C165.4 269.46 144 247.94 144 221.46C144 194.98 165.4 173.46 191.8 173.46C218.2 173.46 239.6 194.94 239.6 221.46C239.6 247.98 218.2 269.46 191.8 269.46Z" fill="#0B0B0C"></path>
<path d="M475 157.46C453.64 157.46 434.88 168.94 424 186.38V127.5H408V285.5H424V256.54C434.88 273.94 453.64 285.46 475 285.46C508.72 285.46 536 256.78 536 221.46C536 186.14 508.72 157.46 475 157.46ZM471.8 269.46C445.4 269.46 424 247.94 424 221.46C424 194.98 445.4 173.46 471.8 173.46C498.2 173.46 519.6 194.94 519.6 221.46C519.6 247.98 498.2 269.46 471.8 269.46Z" fill="#0B0B0C"></path>
<path fill-rule="evenodd" clip-rule="evenodd" d="M908 209.5V285.5H892V213.5C892 202.46 887.52 192.46 880.28 185.22C873.04 177.98 863.04 173.5 852 173.5C829.92 173.5 812 191.42 812 213.5V285.5H796V127.5H812V181.82C821.2 167.22 837.44 157.5 856 157.5C870.36 157.5 883.36 163.3 892.76 172.74C902.16 182.14 908 195.14 908 209.5Z" fill="#0B0B0C"></path>
<path d="M1028 173.5C1036.72 173.5 1044.92 175.82 1052 179.94V162.22C1044.6 159.18 1036.48 157.5 1028 157.5C992.8 157.5 964 186.3 964 221.5C964 239.1 971.2 255.1 982.8 266.7C994.4 278.3 1010.4 285.5 1028 285.5C1036.48 285.5 1044.6 283.82 1052 280.78V263.06C1044.92 267.18 1036.72 269.5 1028 269.5C1001.52 269.5 980 247.98 980 221.5C980 195.02 1001.52 173.5 1028 173.5Z" fill="#0B0B0C"></path>
<path d="M752 173.5C760.72 173.5 768.92 175.82 776 179.94V162.22C768.6 159.18 760.48 157.5 752 157.5C716.8 157.5 688 186.3 688 221.5C688 239.1 695.2 255.1 706.8 266.7C718.4 278.3 734.4 285.5 752 285.5C760.48 285.5 768.6 283.82 776 280.78V263.06C768.92 267.18 760.72 269.5 752 269.5C725.52 269.5 704 247.98 704 221.5C704 195.02 725.52 173.5 752 173.5Z" fill="#0B0B0C"></path>
</svg>