<svg width="384" height="414" viewBox="0 0 384 414" fill="none" xmlns="http://www.w3.org/2000/svg">
<g clip-path="url(#clip0_1308_8891)">
<path d="M195 157.46C173.64 157.46 154.88 168.94 144 186.38V127.5H128V285.5H144V256.54C154.88 273.94 173.64 285.46 195 285.46C228.72 285.46 256 256.78 256 221.46C256 186.14 228.72 157.46 195 157.46ZM191.8 269.46C165.4 269.46 144 247.94 144 221.46C144 194.98 165.4 173.46 191.8 173.46C218.2 173.46 239.6 194.94 239.6 221.46C239.6 247.98 218.2 269.46 191.8 269.46Z" fill="#0B0B0C"></path>
</g>
<defs>
<clipPath id="clip0_1308_8891">
<rect width="128" height="158" fill="white" transform="translate(128 128)"></rect>
</clipPath>
</defs>
</svg>