<svg width="1180" height="446" viewBox="0 0 1180 446" fill="none" xmlns="http://www.w3.org/2000/svg">
<g clip-path="url(#clip0_1308_8898)">
<path d="M744 339.38C744 341.66 743.52 343.58 742.56 345.06C741.6 346.54 740.32 347.66 738.72 348.42C737.2 349.1 735.48 349.5 733.72 349.5C732.36 349.5 731.04 349.26 729.76 348.78C728.52 348.3 727.36 347.7 726.32 346.94C725.28 346.18 724.52 345.34 724 344.46L723.92 344.3V337.5L725.24 339.82C725.92 340.94 726.72 341.94 727.6 342.74C728.52 343.54 729.52 344.18 730.56 344.62C731.56 345.06 732.64 345.26 733.76 345.26C734.88 345.26 735.84 345.06 736.68 344.62C737.56 344.26 738.24 343.66 738.8 342.82C739.32 341.98 739.6 341.02 739.6 339.78C739.6 338.38 739.32 337.26 738.76 336.5C738.2 335.7 737.4 335.02 736.36 334.58C735.28 334.06 733.96 333.58 732.44 333.14C731.2 332.78 730.04 332.22 729 331.58C727.92 330.94 727.08 330.1 726.4 329.1C725.76 328.06 725.44 326.82 725.44 325.42C725.44 323.86 725.8 322.46 726.52 321.3C727.24 320.14 728.24 319.22 729.52 318.54C730.76 317.9 732.2 317.54 733.76 317.5H734.04C735.08 317.5 736.04 317.66 736.88 317.94C737.76 318.26 738.56 318.66 739.28 319.1C739.92 319.54 740.52 319.98 740.96 320.38L741.2 320.62V326.1L739.96 324.82C739.4 324.18 738.8 323.66 738.16 323.22C737.52 322.7 736.84 322.34 736.08 322.02C735.36 321.7 734.6 321.58 733.76 321.58C732.92 321.58 732.28 321.74 731.68 322.06C731.08 322.38 730.6 322.78 730.28 323.34C729.92 323.94 729.76 324.54 729.76 325.22C729.76 325.94 729.92 326.5 730.24 326.9C730.6 327.38 731.12 327.78 731.72 328.18C732.36 328.54 733.12 328.82 733.96 329.06C735.32 329.46 736.6 329.86 737.8 330.38C739 330.9 740.08 331.58 741 332.34C741.92 333.14 742.68 334.1 743.2 335.26C743.76 336.42 744 337.82 744 339.38Z" fill="#0B0B0C"></path>
<path d="M664 317.5H660V349.5H664V317.5Z" fill="#0B0B0C"></path>
<path d="M594 337.5C599.52 337.5 604 333.02 604 327.5C604 321.98 599.52 317.5 594 317.5H584V349.5H588V339.42L598.28 349.5H604L591.76 337.5H594ZM588 321.5H594C597.32 321.5 600 324.18 600 327.5C600 330.82 597.32 333.5 594 333.5H588V321.5Z" fill="#0B0B0C"></path>
<path d="M514.06 317.5L500 349.5H504.446L507.971 341.38H520.069L523.594 349.5H528L514.06 317.5ZM509.814 337.34L514.06 327.62L518.306 337.34H509.774H509.814Z" fill="#0B0B0C"></path>
<path d="M446 317.5H436V349.5H440V337.5H446C451.52 337.5 456 333.02 456 327.5C456 321.98 451.52 317.5 446 317.5ZM446 333.5H440V321.5H446C449.32 321.5 452 324.18 452 327.5C452 330.82 449.32 333.5 446 333.5Z" fill="#0B0B0C"></path>
<path d="M377.2 176.3C365.6 164.7 349.6 157.5 332 157.5C296.8 157.5 268 186.3 268 221.5C268 239.1 275.2 255.1 286.8 266.7C298.4 278.3 314.4 285.5 332 285.5C349.6 285.5 365.6 278.3 377.2 266.7C388.8 255.1 396 239.1 396 221.5C396 203.9 388.8 187.9 377.2 176.3ZM332 269.5C305.56 269.5 284 247.98 284 221.5C284 195.02 305.56 173.5 332 173.5C358.44 173.5 380 195.02 380 221.5C380 247.98 358.48 269.5 332 269.5Z" fill="#0B0B0C"></path>
<path d="M657.2 176.3C645.6 164.7 629.6 157.5 612 157.5C576.8 157.5 548 186.3 548 221.5C548 239.1 555.2 255.1 566.8 266.7C578.4 278.3 594.4 285.5 612 285.5C629.6 285.5 645.6 278.3 657.2 266.7C668.8 255.1 676 239.1 676 221.5C676 203.9 668.8 187.9 657.2 176.3ZM612 269.5C585.56 269.5 564 247.98 564 221.5C564 195.02 585.56 173.5 612 173.5C638.44 173.5 660 195.02 660 221.5C660 247.98 638.48 269.5 612 269.5Z" fill="#0B0B0C"></path>
<path d="M944 157.5H928V285.5H944V157.5Z" fill="#0B0B0C"></path>
<path d="M944 135.5C944 131.082 940.418 127.5 936 127.5C931.582 127.5 928 131.082 928 135.5C928 139.918 931.582 143.5 936 143.5C940.418 143.5 944 139.918 944 135.5Z" fill="#0B0B0C"></path>
<path d="M195 157.46C173.64 157.46 154.88 168.94 144 186.38V127.5H128V285.5H144V256.54C154.88 273.94 173.64 285.46 195 285.46C228.72 285.46 256 256.78 256 221.46C256 186.14 228.72 157.46 195 157.46ZM191.8 269.46C165.4 269.46 144 247.94 144 221.46C144 194.98 165.4 173.46 191.8 173.46C218.2 173.46 239.6 194.94 239.6 221.46C239.6 247.98 218.2 269.46 191.8 269.46Z" fill="#0B0B0C"></path>
<path d="M475 157.46C453.64 157.46 434.88 168.94 424 186.38V127.5H408V285.5H424V256.54C434.88 273.94 453.64 285.46 475 285.46C508.72 285.46 536 256.78 536 221.46C536 186.14 508.72 157.46 475 157.46ZM471.8 269.46C445.4 269.46 424 247.94 424 221.46C424 194.98 445.4 173.46 471.8 173.46C498.2 173.46 519.6 194.94 519.6 221.46C519.6 247.98 498.2 269.46 471.8 269.46Z" fill="#0B0B0C"></path>
<path fill-rule="evenodd" clip-rule="evenodd" d="M908 209.5V285.5H892V213.5C892 202.46 887.52 192.46 880.28 185.22C873.04 177.98 863.04 173.5 852 173.5C829.92 173.5 812 191.42 812 213.5V285.5H796V127.5H812V181.82C821.2 167.22 837.44 157.5 856 157.5C870.36 157.5 883.36 163.3 892.76 172.74C902.16 182.14 908 195.14 908 209.5Z" fill="#0B0B0C"></path>
<path d="M1028 173.5C1036.72 173.5 1044.92 175.82 1052 179.94V162.22C1044.6 159.18 1036.48 157.5 1028 157.5C992.8 157.5 964 186.3 964 221.5C964 239.1 971.2 255.1 982.8 266.7C994.4 278.3 1010.4 285.5 1028 285.5C1036.48 285.5 1044.6 283.82 1052 280.78V263.06C1044.92 267.18 1036.72 269.5 1028 269.5C1001.52 269.5 980 247.98 980 221.5C980 195.02 1001.52 173.5 1028 173.5Z" fill="#0B0B0C"></path>
<path d="M752 173.5C760.72 173.5 768.92 175.82 776 179.94V162.22C768.6 159.18 760.48 157.5 752 157.5C716.8 157.5 688 186.3 688 221.5C688 239.1 695.2 255.1 706.8 266.7C718.4 278.3 734.4 285.5 752 285.5C760.48 285.5 768.6 283.82 776 280.78V263.06C768.92 267.18 760.72 269.5 752 269.5C725.52 269.5 704 247.98 704 221.5C704 195.02 725.52 173.5 752 173.5Z" fill="#0B0B0C"></path>
</g>
<defs>
<clipPath id="clip0_1308_8898">
<rect width="924" height="222" fill="white" transform="translate(128 128)"></rect>
</clipPath>
</defs>
</svg>