<svg xmlns="http://www.w3.org/2000/svg" width="462" height="111" viewBox="0 0 462 111" fill="none">
  <path d="M 308 105.94 C 308 107.08 307.76 108.04 307.28 108.78 C 306.8 109.52 306.16 110.08 305.36 110.46 C 304.6 110.8 303.74 111 302.86 111 C 302.18 111 301.52 110.88 300.88 110.64 C 300.26 110.4 299.68 110.1 299.16 109.72 C 298.64 109.34 298.26 108.92 298 108.48 L 297.96 108.4 L 297.96 105 L 298.62 106.16 C 298.96 106.72 299.36 107.22 299.8 107.62 C 300.26 108.02 300.76 108.34 301.28 108.56 C 301.78 108.78 302.32 108.88 302.88 108.88 C 303.44 108.88 303.92 108.78 304.34 108.56 C 304.78 108.38 305.12 108.08 305.4 107.66 C 305.66 107.24 305.8 106.76 305.8 106.14 C 305.8 105.44 305.66 104.88 305.38 104.5 C 305.1 104.1 304.7 103.76 304.18 103.54 C 303.64 103.28 302.98 103.04 302.22 102.82 C 301.6 102.64 301.02 102.36 300.5 102.04 C 299.96 101.72 299.54 101.3 299.2 100.8 C 298.88 100.28 298.72 99.66 298.72 98.96 C 298.72 98.18 298.9 97.48 299.26 96.9 C 299.62 96.32 300.12 95.86 300.76 95.52 C 301.38 95.2 302.1 95.02 302.88 95 L 303.02 95 C 303.54 95 304.02 95.08 304.44 95.22 C 304.88 95.38 305.28 95.58 305.64 95.8 C 305.96 96.02 306.26 96.24 306.48 96.44 L 306.6 96.56 L 306.6 99.3 L 305.98 98.66 C 305.7 98.34 305.4 98.08 305.08 97.86 C 304.76 97.6 304.42 97.42 304.04 97.26 C 303.68 97.1 303.3 97.04 302.88 97.04 C 302.46 97.04 302.14 97.12 301.84 97.28 C 301.54 97.44 301.3 97.64 301.14 97.92 C 300.96 98.22 300.88 98.52 300.88 98.86 C 300.88 99.22 300.96 99.5 301.12 99.7 C 301.3 99.94 301.56 100.14 301.86 100.34 C 302.18 100.52 302.56 100.66 302.98 100.78 C 303.66 100.98 304.3 101.18 304.9 101.44 C 305.5 101.7 306.04 102.04 306.5 102.42 C 306.96 102.82 307.34 103.3 307.6 103.88 C 307.88 104.46 308 105.16 308 105.94 Z" fill="currentColor" fill-rule="nonzero"/>
  <path d="M 268 95 L 266 95 L 266 111 L 268 111 L 268 95 Z" fill="currentColor" fill-rule="nonzero"/>
  <path d="M 233 105 C 235.76 105 238 102.76 238 100 C 238 97.24 235.76 95 233 95 L 228 95 L 228 111 L 230 111 L 230 105.96 L 235.14 111 L 238 111 L 231.88 105 L 233 105 Z M 230 97 L 233 97 C 234.66 97 236 98.34 236 100 C 236 101.66 234.66 103 233 103 L 230 103 L 230 97 Z" fill="currentColor" fill-rule="nonzero"/>
  <path d="M 193.03 95 L 186 111 L 188.223 111 L 189.986 106.94 L 196.034 106.94 L 197.797 111 L 200 111 L 193.03 95 Z M 190.907 104.92 L 193.03 100.06 L 195.153 104.92 L 190.887 104.92 L 190.907 104.92 Z" fill="currentColor" fill-rule="nonzero"/>
  <path d="M 159 95 L 154 95 L 154 111 L 156 111 L 156 105 L 159 105 C 161.76 105 164 102.76 164 100 C 164 97.24 161.76 95 159 95 Z M 159 103 L 156 103 L 156 97 L 159 97 C 160.66 97 162 98.34 162 100 C 162 101.66 160.66 103 159 103 Z" fill="currentColor" fill-rule="nonzero"/>
  <path d="M 124.6 24.4 C 118.8 18.6 110.8 15 102 15 C 84.4 15 70 29.4 70 47 C 70 55.8 73.6 63.8 79.4 69.6 C 85.2 75.4 93.2 79 102 79 C 110.8 79 118.8 75.4 124.6 69.6 C 130.4 63.8 134 55.8 134 47 C 134 38.2 130.4 30.2 124.6 24.4 Z M 102 71 C 88.78 71 78 60.24 78 47 C 78 33.76 88.78 23 102 23 C 115.22 23 126 33.76 126 47 C 126 60.24 115.24 71 102 71 Z" fill="currentColor" fill-rule="nonzero"/>
  <path d="M 264.6 24.4 C 258.8 18.6 250.8 15 242 15 C 224.4 15 210 29.4 210 47 C 210 55.8 213.6 63.8 219.4 69.6 C 225.2 75.4 233.2 79 242 79 C 250.8 79 258.8 75.4 264.6 69.6 C 270.4 63.8 274 55.8 274 47 C 274 38.2 270.4 30.2 264.6 24.4 Z M 242 71 C 228.78 71 218 60.24 218 47 C 218 33.76 228.78 23 242 23 C 255.22 23 266 33.76 266 47 C 266 60.24 255.24 71 242 71 Z" fill="currentColor" fill-rule="nonzero"/>
  <path d="M 408 15 L 400 15 L 400 79 L 408 79 L 408 15 Z" fill="currentColor" fill-rule="nonzero"/>
  <path d="M 408 4 C 408 1.791 406.209 0 404 0 C 401.791 0 400 1.791 400 4 C 400 6.209 401.791 8 404 8 C 406.209 8 408 6.209 408 4 Z" fill="currentColor" fill-rule="nonzero"/>
  <path d="M 33.5 14.98 C 22.82 14.98 13.44 20.72 8 29.44 L 8 0 L 0 0 L 0 79 L 8 79 L 8 64.52 C 13.44 73.22 22.82 78.98 33.5 78.98 C 50.36 78.98 64 64.64 64 46.98 C 64 29.32 50.36 14.98 33.5 14.98 Z M 31.9 70.98 C 18.7 70.98 8 60.22 8 46.98 C 8 33.74 18.7 22.98 31.9 22.98 C 45.1 22.98 55.8 33.72 55.8 46.98 C 55.8 60.24 45.1 70.98 31.9 70.98 Z" fill="currentColor" fill-rule="nonzero"/>
  <path d="M 173.5 14.98 C 162.82 14.98 153.44 20.72 148 29.44 L 148 0 L 140 0 L 140 79 L 148 79 L 148 64.52 C 153.44 73.22 162.82 78.98 173.5 78.98 C 190.36 78.98 204 64.64 204 46.98 C 204 29.32 190.36 14.98 173.5 14.98 Z M 171.9 70.98 C 158.7 70.98 148 60.22 148 46.98 C 148 33.74 158.7 22.98 171.9 22.98 C 185.1 22.98 195.8 33.72 195.8 46.98 C 195.8 60.24 185.1 70.98 171.9 70.98 Z" fill="currentColor" fill-rule="nonzero"/>
  <path d="M 390 41 L 390 79 L 382 79 L 382 43 C 382 37.48 379.76 32.48 376.14 28.86 C 372.52 25.24 367.52 23 362 23 C 350.96 23 342 31.96 342 43 L 342 79 L 334 79 L 334 0 L 342 0 L 342 27.16 C 346.6 19.86 354.72 15 364 15 C 371.18 15 377.68 17.9 382.38 22.62 C 387.08 27.32 390 33.82 390 41 Z" fill="currentColor" fill-rule="evenodd"/>
  <path d="M 450 23 C 454.36 23 458.46 24.16 462 26.22 L 462 17.36 C 458.3 15.84 454.24 15 450 15 C 432.4 15 418 29.4 418 47 C 418 55.8 421.6 63.8 427.4 69.6 C 433.2 75.4 441.2 79 450 79 C 454.24 79 458.3 78.16 462 76.64 L 462 67.78 C 458.46 69.84 454.36 71 450 71 C 436.76 71 426 60.24 426 47 C 426 33.76 436.76 23 450 23 Z" fill="currentColor" fill-rule="nonzero"/>
  <path d="M 312 23 C 316.36 23 320.46 24.16 324 26.22 L 324 17.36 C 320.3 15.84 316.24 15 312 15 C 294.4 15 280 29.4 280 47 C 280 55.8 283.6 63.8 289.4 69.6 C 295.2 75.4 303.2 79 312 79 C 316.24 79 320.3 78.16 324 76.64 L 324 67.78 C 320.46 69.84 316.36 71 312 71 C 298.76 71 288 60.24 288 47 C 288 33.76 298.76 23 312 23 Z" fill="currentColor" fill-rule="nonzero"/>
</svg>
