<svg width="24" height="24" viewBox="0 0 24 24" fill="none" xmlns="http://www.w3.org/2000/svg">
<path fill-rule="evenodd" clip-rule="evenodd" d="M11.5 18.9999V11.4166H12.5V18.9999H11.5Z" fill="#0B0B0C"></path>
<path fill-rule="evenodd" clip-rule="evenodd" d="M12 10.8571L17.998 7.84718L18.4465 8.74095L12 11.976L5.55351 8.74095L6.00204 7.84718L12 10.8571Z" fill="#0B0B0C"></path>
<path fill-rule="evenodd" clip-rule="evenodd" d="M12 4.4474L19.5 7.97682V16.0232L12 19.5526L4.5 16.0232V7.97682L12 4.4474ZM5.5 8.61142V15.3886L12 18.4474L18.5 15.3886V8.61142L12 5.5526L5.5 8.61142Z" fill="#0B0B0C"></path>
<path fill-rule="evenodd" clip-rule="evenodd" d="M21.5 2.5H17V1.5H22.5V7H21.5V2.5Z" fill="#0B0B0C"></path>
<path fill-rule="evenodd" clip-rule="evenodd" d="M2.5 21.5H7V22.5H1.5L1.5 17L2.5 17L2.5 21.5Z" fill="#0B0B0C"></path>
<path fill-rule="evenodd" clip-rule="evenodd" d="M21.5 21.5V17H22.5V22.5H17V21.5H21.5Z" fill="#0B0B0C"></path>
<path fill-rule="evenodd" clip-rule="evenodd" d="M2.5 2.5L2.5 7H1.5L1.5 1.5L7 1.5L7 2.5L2.5 2.5Z" fill="#0B0B0C"></path>
</svg>