<svg width="24" height="24" viewBox="0 0 24 24" fill="none" xmlns="http://www.w3.org/2000/svg">
<path fill-rule="evenodd" clip-rule="evenodd" d="M3.53468 11.2877C3.77809 9.68267 5.27107 8.5 7 8.5H9.00722C10.2569 8.5 11.3832 9.11924 12.0015 10.0694C12.1668 9.79576 12.3629 9.54708 12.5741 9.33485L13.283 10.0401C12.822 10.5035 12.5 11.1546 12.5 11.75V15.8333H17.5V13.5833C17.5 12.1867 18.6453 11.25 20 11.25C21.3547 11.25 22.5 12.1867 22.5 13.5833C22.5 14.8056 21.6228 15.6756 20.4958 15.8738L20.4532 20.5H3.5V16.0864C2.32782 15.8399 1.5 14.7472 1.5 13.5833C1.5 12.3501 2.39301 11.4754 3.53468 11.2877ZM4.55169 11.2966C4.99812 11.3741 5.40895 11.5487 5.74132 11.8232C6.21626 12.2153 6.5 12.7878 6.5 13.4726V15.8333H11.5V11.75C11.5 11.7478 11.5 11.7456 11.5 11.7434C11.5 10.5445 10.4258 9.5 9.00722 9.5H7C5.76001 9.5 4.78223 10.2958 4.55169 11.2966ZM6.5 16.8333V17.5H5.5V13.4726C5.5 13.0838 5.34768 12.795 5.10459 12.5942C4.85226 12.3859 4.47202 12.25 4 12.25C3.09895 12.25 2.5 12.8327 2.5 13.5833C2.5 14.4073 3.17401 15.1381 4 15.1381H4.5V19.5H19.4624L19.5046 14.9167H20C20.9011 14.9167 21.5 14.334 21.5 13.5833C21.5 12.8327 20.9011 12.25 20 12.25C19.0989 12.25 18.5 12.8327 18.5 13.5833V17.5H17.5V16.8333H6.5Z" fill="#0B0B0C"></path>
<path fill-rule="evenodd" clip-rule="evenodd" d="M17.75 6.25V7.5H18.75V6.25H20V5.25H18.75V4H17.75V5.25H16.5V6.25H17.75Z" fill="#0B0B0C"></path>
<path fill-rule="evenodd" clip-rule="evenodd" d="M18.25 2.5C16.4551 2.5 15 3.95507 15 5.75C15 7.54493 16.4551 9 18.25 9C20.0449 9 21.5 7.54493 21.5 5.75C21.5 3.95507 20.0449 2.5 18.25 2.5ZM14 5.75C14 3.40279 15.9028 1.5 18.25 1.5C20.5972 1.5 22.5 3.40279 22.5 5.75C22.5 8.09721 20.5972 10 18.25 10C15.9028 10 14 8.09721 14 5.75Z" fill="#0B0B0C"></path>
</svg>