<svg width="24" height="24" viewBox="0 0 24 24" fill="none" xmlns="http://www.w3.org/2000/svg">
<path fill-rule="evenodd" clip-rule="evenodd" d="M4.4 7.29995H19.6V13.2996C20.0858 13.6643 20.4 14.2451 20.4 14.8995V21.7H17.2V20.5H6.8V21.7H3.6V14.8992C3.6 14.2448 3.91426 13.6642 4.4 13.2996V7.29995ZM5.2 12.9399C5.32925 12.9137 5.46302 12.9 5.6 12.9H6V11.7C6 11.0372 6.53726 10.5 7.2 10.5L10.4 10.5C11.0627 10.5 11.6 11.0372 11.6 11.7V12.9H12.4V11.7C12.4 11.0372 12.9373 10.5 13.6 10.5L16.8 10.5C17.4627 10.5 18 11.0372 18 11.7V12.9H18.4C18.537 12.9 18.6708 12.9137 18.8 12.9399V8.09995H5.2V12.9399ZM17.2 12.9V11.7C17.2 11.479 17.0209 11.3 16.8 11.3L13.6 11.3C13.3791 11.3 13.2 11.479 13.2 11.7V12.9H17.2ZM10.8 12.9V11.7C10.8 11.479 10.6209 11.3 10.4 11.3H7.2C6.97909 11.3 6.8 11.479 6.8 11.7V12.9L10.8 12.9ZM18.4 13.7L5.6 13.7C4.93703 13.7 4.4 14.2367 4.4 14.8992V17.7L19.6 17.6999V14.8995C19.6 14.2369 19.0629 13.7 18.4 13.7ZM19.6 18.4999L4.4 18.5V20.9H6V19.7H18V20.9H19.6V18.4999Z" fill="#0B0B0C"></path>
<path fill-rule="evenodd" clip-rule="evenodd" d="M2.5 8.5V8C2.5 7.54037 2.59053 7.08525 2.76642 6.66061C2.94231 6.23597 3.20012 5.85013 3.52513 5.52513C3.85013 5.20012 4.23597 4.94231 4.66061 4.76642C5.08525 4.59053 5.54037 4.5 6 4.5H6.5L6.5 5.5H6C5.6717 5.5 5.34661 5.56466 5.04329 5.6903C4.73998 5.81594 4.46438 6.00009 4.23223 6.23223C4.00009 6.46438 3.81594 6.73998 3.6903 7.04329C3.56466 7.34661 3.5 7.67169 3.5 8V8.5H2.5Z" fill="#0B0B0C"></path>
<path fill-rule="evenodd" clip-rule="evenodd" d="M17.5 4.5H18C18.4596 4.5 18.9148 4.59053 19.3394 4.76642C19.764 4.94231 20.1499 5.20012 20.4749 5.52513C20.7999 5.85013 21.0577 6.23597 21.2336 6.66061C21.4095 7.08525 21.5 7.54037 21.5 8V8.5H20.5V8C20.5 7.67169 20.4353 7.3466 20.3097 7.04329C20.1841 6.73998 19.9999 6.46438 19.7678 6.23223C19.5356 6.00009 19.26 5.81594 18.9567 5.6903C18.6534 5.56466 18.3283 5.5 18 5.5H17.5V4.5Z" fill="#0B0B0C"></path>
<path fill-rule="evenodd" clip-rule="evenodd" d="M19.5 2.5L20 2.5C20.3283 2.5 20.6534 2.56466 20.9567 2.6903C21.26 2.81594 21.5356 3.00009 21.7678 3.23223C21.9999 3.46438 22.1841 3.73998 22.3097 4.04329C22.4353 4.34661 22.5 4.6717 22.5 5V5.5H21.5V5C21.5 4.80302 21.4612 4.60796 21.3858 4.42597C21.3104 4.24399 21.1999 4.07863 21.0607 3.93934C20.9214 3.80005 20.756 3.68956 20.574 3.61418C20.392 3.5388 20.197 3.5 20 3.5H19.5V2.5Z" fill="#0B0B0C"></path>
<path fill-rule="evenodd" clip-rule="evenodd" d="M4.5 2.5L4 2.5C3.6717 2.5 3.34661 2.56466 3.04329 2.6903C2.73998 2.81594 2.46438 3.00009 2.23223 3.23223C2.00009 3.46438 1.81594 3.73998 1.6903 4.04329C1.56466 4.34661 1.5 4.6717 1.5 5L1.5 5.5H2.5V5C2.5 4.80302 2.5388 4.60796 2.61418 4.42597C2.68956 4.24399 2.80005 4.07863 2.93934 3.93934C3.07863 3.80005 3.24399 3.68956 3.42597 3.61418C3.60796 3.5388 3.80302 3.5 4 3.5H4.5L4.5 2.5Z" fill="#0B0B0C"></path>
</svg>