<svg width="24" height="24" viewBox="0 0 24 24" fill="none" xmlns="http://www.w3.org/2000/svg">
<path d="M9.92871 20.8164L11.9793 21.9882C11.9921 21.9955 12.0079 21.9955 12.0207 21.9882L14.0713 20.8164C17.1854 19.0369 19.3178 15.9343 19.8632 12.3894C19.9543 11.7973 20 11.1992 20 10.6002V5.03461C20 5.01501 19.9851 4.99864 19.9655 4.99687L17.9969 4.8179C15.7374 4.61249 13.6214 3.62143 12.0171 2.01714C12.0077 2.00768 11.9923 2.00768 11.9829 2.01714C10.3786 3.62143 8.26261 4.61249 6.00313 4.8179L4.03446 4.99687C4.01495 4.99864 4 5.01501 4 5.03461V10.6002C4 11.1992 4.04574 11.7973 4.13683 12.3894C4.6822 15.9343 6.81463 19.0369 9.92871 20.8164Z" stroke="#0B0B0C"></path>
<path d="M14 10.9375L11.3333 13.4375L10 12.1875" stroke="#0B0B0C" stroke-linecap="round" stroke-linejoin="round"></path>
<circle cx="12" cy="12" r="4.5" stroke="#0B0B0C"></circle>
</svg>