<svg width="24" height="24" viewBox="0 0 24 24" fill="none" xmlns="http://www.w3.org/2000/svg">
<path fill-rule="evenodd" clip-rule="evenodd" d="M12.5 1.5L12.5 19H11.5L11.5 1.5L12.5 1.5Z" fill="#0B0B0C"></path>
<path fill-rule="evenodd" clip-rule="evenodd" d="M10.7937 20.3154C10.544 20.8332 10.4706 21.4922 10.4991 21.9702L9.5009 22.0298C9.46551 21.4363 9.54853 20.5954 9.89301 19.881C10.2489 19.143 10.9138 18.5 12 18.5C12.5241 18.5 12.9654 18.6521 13.322 18.9164C13.6724 19.176 13.916 19.5251 14.0853 19.8858C14.4192 20.5972 14.5 21.4313 14.5 22L13.5 22C13.5 21.4973 13.4244 20.8314 13.18 20.3106C13.0602 20.0553 12.9093 19.8552 12.7266 19.7198C12.55 19.5889 12.3195 19.5 12 19.5C11.3991 19.5 11.032 19.8213 10.7937 20.3154Z" fill="#0B0B0C"></path>
<path fill-rule="evenodd" clip-rule="evenodd" d="M7.50002 21.5H16.5V22.5H7.50002V21.5Z" fill="#0B0B0C"></path>
<path fill-rule="evenodd" clip-rule="evenodd" d="M21.6782 4.61733L21.6749 4.62012L21.6616 4.63106C21.6496 4.64097 21.6314 4.65593 21.6074 4.67524C21.5595 4.71389 21.4891 4.76978 21.4009 4.83716C21.2241 4.97233 20.9787 5.15172 20.7029 5.33019C20.4255 5.50962 20.1264 5.68221 19.8412 5.80841C19.5473 5.9385 19.3107 6 19.1462 6C18.4881 6 17.9788 5.70445 17.3155 5.31799C16.6751 4.94482 15.9065 4.5 14.8656 4.5C13.9832 4.5 13.3016 4.70708 12.7861 5.0539C12.2711 5.40043 11.9589 5.86151 11.7731 6.30788C11.589 6.75028 11.526 7.18447 11.5071 7.50157C11.4976 7.66164 11.4991 7.79601 11.5032 7.89231C11.5052 7.94056 11.508 7.97956 11.5103 8.00778C11.5115 8.0219 11.5126 8.03336 11.5134 8.04195L11.5146 8.0527L11.515 8.05643L11.5152 8.05787C11.5152 8.05787 11.5153 8.05904 12.0118 8C12.5083 7.94096 12.5084 7.94144 12.5084 7.94144L12.5069 7.92484C12.5056 7.90912 12.5037 7.88366 12.5023 7.84988C12.4994 7.78211 12.4981 7.68211 12.5054 7.56093C12.5199 7.31553 12.5684 6.99972 12.6964 6.69211C12.8227 6.38849 13.0234 6.09957 13.3444 5.8836C13.6649 5.66792 14.1427 5.5 14.8656 5.5C15.6082 5.5 16.1654 5.80518 16.8121 6.18201C16.836 6.19596 16.8601 6.21004 16.8844 6.22423C17.493 6.57976 18.2125 7 19.1462 7C19.5169 7 19.9045 6.874 20.246 6.72284C20.5963 6.56779 20.9437 6.36538 21.246 6.16981C21.5498 5.97328 21.8172 5.77767 22.0083 5.63159C22.1041 5.55834 22.1814 5.49705 22.2352 5.45366C22.2621 5.43196 22.2832 5.4147 22.2978 5.40263L22.3149 5.38849L22.3196 5.3845L22.3211 5.38331C22.3211 5.38331 22.3218 5.38267 22 5L22.3218 5.38267L22.7045 5.06085L22.0609 4.29552L21.6782 4.61733Z" fill="#0B0B0C"></path>
<path fill-rule="evenodd" clip-rule="evenodd" d="M18.5 5.88197L15.191 12.5H21.809L18.5 5.88197ZM20.191 11.5H16.809L18.5 8.11803L20.191 11.5Z" fill="#0B0B0C"></path>
<path fill-rule="evenodd" clip-rule="evenodd" d="M22.5617 11.5H14.4383L14.5034 12.0579C14.5716 12.6424 14.8505 13.4915 15.472 14.2038C16.1084 14.9329 17.0895 15.5 18.5 15.5C19.9105 15.5 20.8917 14.9329 21.528 14.2038C22.1496 13.4915 22.4285 12.6424 22.4966 12.0579L22.5617 11.5ZM21.372 12.5C21.2567 12.837 21.0651 13.2133 20.7745 13.5462C20.32 14.0671 19.6095 14.5 18.5 14.5C17.3905 14.5 16.68 14.0671 16.2255 13.5462C15.9349 13.2133 15.7434 12.837 15.6281 12.5H21.372Z" fill="#0B0B0C"></path>
<path fill-rule="evenodd" clip-rule="evenodd" d="M2.32183 4.61733L2.32517 4.62012L2.33839 4.63106C2.35039 4.64097 2.36867 4.65593 2.39262 4.67524C2.44054 4.71389 2.51098 4.76978 2.59911 4.83716C2.7759 4.97233 3.02131 5.15172 3.29717 5.33019C3.57454 5.50962 3.87366 5.68221 4.15879 5.80841C4.45269 5.9385 4.68932 6 4.85379 6C5.51197 6 6.02127 5.70445 6.6845 5.31799C7.32492 4.94482 8.0935 4.5 9.13445 4.5C10.0168 4.5 10.6984 4.70708 11.2139 5.0539C11.7289 5.40043 12.0411 5.86151 12.2269 6.30788C12.411 6.75028 12.4741 7.18447 12.4929 7.50157C12.5024 7.66164 12.5009 7.79601 12.4968 7.89231C12.4948 7.94056 12.4921 7.97956 12.4897 8.00778C12.4885 8.0219 12.4875 8.03336 12.4866 8.04195L12.4855 8.0527L12.485 8.05643L12.4849 8.05787C12.4849 8.05787 12.4847 8.05904 11.9882 8C11.4917 7.94096 11.4917 7.94144 11.4917 7.94144L11.4932 7.92484C11.4945 7.90912 11.4963 7.88366 11.4977 7.84988C11.5006 7.78211 11.5019 7.68211 11.4947 7.56093C11.4801 7.31553 11.4317 6.99972 11.3037 6.69211C11.1773 6.38849 10.9767 6.09957 10.6557 5.8836C10.3351 5.66792 9.85734 5.5 9.13445 5.5C8.39178 5.5 7.83465 5.80518 7.18796 6.18201C7.16401 6.19596 7.1399 6.21004 7.11562 6.22423C6.50699 6.57976 5.78758 7 4.85379 7C4.48318 7 4.09555 6.874 3.75404 6.72284C3.40375 6.56779 3.05631 6.36538 2.75401 6.16981C2.4502 5.97328 2.18282 5.77767 1.99174 5.63159C1.89594 5.55834 1.81868 5.49705 1.76487 5.45366C1.73796 5.43196 1.71687 5.4147 1.70223 5.40263L1.68516 5.38849L1.68039 5.3845L1.67897 5.38331C1.67897 5.38331 1.6782 5.38267 2.00002 5L1.6782 5.38267L1.29553 5.06085L1.93917 4.29552L2.32183 4.61733Z" fill="#0B0B0C"></path>
<path fill-rule="evenodd" clip-rule="evenodd" d="M5.50002 5.88197L8.80903 12.5H2.191L5.50002 5.88197ZM3.80903 11.5H7.191L5.50002 8.11803L3.80903 11.5Z" fill="#0B0B0C"></path>
<path fill-rule="evenodd" clip-rule="evenodd" d="M1.43829 11.5H9.56174L9.49665 12.0579C9.42846 12.6424 9.14956 13.4915 8.52799 14.2038C7.89168 14.9329 6.91048 15.5 5.50002 15.5C4.08955 15.5 3.10836 14.9329 2.47204 14.2038C1.85047 13.4915 1.57158 12.6424 1.50338 12.0579L1.43829 11.5ZM2.62808 12.5C2.74337 12.837 2.93495 13.2133 3.22549 13.5462C3.68001 14.0671 4.39048 14.5 5.50002 14.5C6.60955 14.5 7.32002 14.0671 7.77454 13.5462C8.06508 13.2133 8.25666 12.837 8.37195 12.5H2.62808Z" fill="#0B0B0C"></path>
</svg>