<svg width="24" height="24" viewBox="0 0 24 24" fill="none" xmlns="http://www.w3.org/2000/svg">
<path fill-rule="evenodd" clip-rule="evenodd" d="M2.5 10.5001H21.5V20.5001H2.5V10.5001ZM3.5 11.5001V19.5001H20.5V11.5001H3.5Z" fill="#0B0B0C"></path>
<path fill-rule="evenodd" clip-rule="evenodd" d="M4.1 15.3001L2.6 13.3001L3.4 12.7001L4.9 14.7001C5.45 15.4334 6.55 15.4334 7.1 14.7001C8.05 13.4334 9.95 13.4334 10.9 14.7001C11.45 15.4334 12.55 15.4334 13.1 14.7001C14.05 13.4334 15.95 13.4334 16.9 14.7001C17.45 15.4334 18.55 15.4334 19.1 14.7001L20.6 12.7001L21.4 13.3001L19.9 15.3001C18.95 16.5667 17.05 16.5667 16.1 15.3001C15.55 14.5667 14.45 14.5667 13.9 15.3001C12.95 16.5667 11.05 16.5667 10.1 15.3001C9.55 14.5667 8.45 14.5667 7.9 15.3001C6.95 16.5667 5.05 16.5667 4.1 15.3001Z" fill="#0B0B0C"></path>
<path fill-rule="evenodd" clip-rule="evenodd" d="M11.5 11.0001V9.00006H12.5V11.0001H11.5Z" fill="#0B0B0C"></path>
<path fill-rule="evenodd" clip-rule="evenodd" d="M12.4048 1.7065L12 2.00006L11.5952 1.7065L12 1.14844L12.4048 1.7065ZM12 2.88033C11.8643 3.08402 11.7079 3.32566 11.552 3.58165C11.338 3.93299 11.1302 4.30261 10.9775 4.63367C10.8147 4.98649 10.75 5.22232 10.75 5.33339C10.75 5.95501 11.2864 6.50006 12 6.50006C12.7136 6.50006 13.25 5.95501 13.25 5.33339C13.25 5.22232 13.1853 4.98649 13.0225 4.63367C12.8698 4.30261 12.662 3.93299 12.448 3.58165C12.2921 3.32566 12.1357 3.08402 12 2.88033ZM12 2.00006C11.5952 1.7065 11.5952 1.7065 11.5952 1.7065L11.5936 1.70883L11.5894 1.71463L11.5738 1.73625C11.5604 1.75501 11.541 1.78229 11.5164 1.81715C11.4671 1.88684 11.3972 1.98693 11.3135 2.10975C11.1463 2.35495 10.9225 2.69282 10.698 3.06145C10.4745 3.42837 10.2448 3.83455 10.0694 4.21479C9.90405 4.57327 9.75 4.98422 9.75 5.33339C9.75 6.55272 10.7806 7.50006 12 7.50006C13.2194 7.50006 14.25 6.55272 14.25 5.33339C14.25 4.98422 14.096 4.57327 13.9306 4.21479C13.7552 3.83455 13.5255 3.42837 13.302 3.06145C13.0775 2.69282 12.8537 2.35495 12.6865 2.10975C12.6028 1.98693 12.5329 1.88684 12.4836 1.81715C12.459 1.78229 12.4396 1.75501 12.4262 1.73625L12.4106 1.71463L12.4064 1.70883L12.4048 1.7065C12.4048 1.7065 12.4048 1.7065 12 2.00006Z" fill="#0B0B0C"></path>
</svg>