<svg width="24" height="24" viewBox="0 0 24 24" fill="none" xmlns="http://www.w3.org/2000/svg">
<path fill-rule="evenodd" clip-rule="evenodd" d="M2.5 4.5H21.5V19.5H2.5V4.5ZM3.5 5.5V18.5H20.5V5.5H3.5Z" fill="#0B0B0C"></path>
<path fill-rule="evenodd" clip-rule="evenodd" d="M21 9.5H3V8.5H21V9.5Z" fill="#0B0B0C"></path>
<path fill-rule="evenodd" clip-rule="evenodd" d="M7.5 6V3L8.5 3V6H7.5Z" fill="#0B0B0C"></path>
<path fill-rule="evenodd" clip-rule="evenodd" d="M15.5 6V3L16.5 3V6H15.5Z" fill="#0B0B0C"></path>
<path d="M7 11H9V13H7V11Z" fill="#0B0B0C"></path>
<path d="M15 11H17V13H15V11Z" fill="#0B0B0C"></path>
<path d="M15 15H17V17H15V15Z" fill="#0B0B0C"></path>
<path d="M7 15H9V17H7V15Z" fill="#0B0B0C"></path>
<path d="M11 15H13V17H11V15Z" fill="#0B0B0C"></path>
<path d="M11 11H13V13H11V11Z" fill="#0B0B0C"></path>
</svg>