<svg width="24" height="24" viewBox="0 0 24 24" fill="none" xmlns="http://www.w3.org/2000/svg">
<path fill-rule="evenodd" clip-rule="evenodd" d="M4.37919 6.57285C4.9831 5.90523 5.87288 5.5 7 5.5H9.00722C10.0811 5.5 10.979 5.76984 11.6048 6.39677C11.7573 6.5496 11.8887 6.71865 12.0002 6.90253C12.1119 6.71853 12.2435 6.54937 12.3964 6.39645C13.0233 5.76961 13.9229 5.5 15 5.5H17C19.1201 5.5 20.2715 7.05864 20.4692 8.54237C21.6421 8.75777 22.5 9.76941 22.5 11C22.5 12.2198 21.6571 13.2245 20.5 13.4518V16.5C20.5 17.6046 19.6046 18.5 18.5 18.5H5.5C4.39543 18.5 3.5 17.6046 3.5 16.5V13.4518C2.34295 13.2245 1.5 12.2198 1.5 11C1.5 9.77138 2.35518 8.76101 3.52513 8.54341C3.60625 7.81434 3.88495 7.11924 4.37919 6.57285ZM4.5316 8.55463C5.67237 8.79388 6.5 9.79133 6.5 11V13.5H11.5V9C11.5 8.07707 11.2696 7.47648 10.897 7.10323C10.5246 6.73016 9.92608 6.5 9.00722 6.5H7C6.12712 6.5 5.5169 6.8058 5.12081 7.24368C4.80671 7.59092 4.60534 8.04595 4.5316 8.55463ZM12.5 9V13.5H17.5V11C17.5 9.79381 18.3242 8.79798 19.4614 8.55612C19.2793 7.50862 18.4543 6.5 17 6.5H15C14.0771 6.5 13.4767 6.73039 13.1036 7.10355C12.7304 7.47671 12.5 8.07707 12.5 9ZM17.5 14.5H6.5V15.5H5.5V11C5.5 10.1586 4.84971 9.5 4 9.5C3.15029 9.5 2.5 10.1586 2.5 11C2.5 11.8414 3.15029 12.5 4 12.5H4.5V16.5C4.5 17.0523 4.94772 17.5 5.5 17.5H18.5C19.0523 17.5 19.5 17.0523 19.5 16.5V12.5H20C20.8497 12.5 21.5 11.8414 21.5 11C21.5 10.1586 20.8497 9.5 20 9.5C19.1503 9.5 18.5 10.1586 18.5 11V15.5H17.5V14.5Z" fill="#0B0B0C"></path>
</svg>