<svg width="24" height="24" viewBox="0 0 24 24" fill="none" xmlns="http://www.w3.org/2000/svg">
<path fill-rule="evenodd" clip-rule="evenodd" d="M22 10.5L2 10.5001L2 9.50006L22 9.49999L22 10.5Z" fill="#0B0B0C"></path>
<path fill-rule="evenodd" clip-rule="evenodd" d="M4.5 15.5H9.5V16.5H4.5V15.5Z" fill="#0B0B0C"></path>
<path fill-rule="evenodd" clip-rule="evenodd" d="M4.5 12.5L9.5 12.5V13.5H4.5V12.5Z" fill="#0B0B0C"></path>
<path fill-rule="evenodd" clip-rule="evenodd" d="M1.5 5.5H22.5V13H21.5V6.5H2.5V18.5H10V19.5H1.5V5.5Z" fill="#0B0B0C"></path>
<path fill-rule="evenodd" clip-rule="evenodd" d="M21.6465 19.3535L17.8965 15.6035L18.6036 14.8964L22.3536 18.6464L21.6465 19.3535Z" fill="#0B0B0C"></path>
<path fill-rule="evenodd" clip-rule="evenodd" d="M17.8965 18.6464L21.6465 14.8964L22.3536 15.6035L18.6036 19.3535L17.8965 18.6464Z" fill="#0B0B0C"></path>
<path fill-rule="evenodd" clip-rule="evenodd" d="M15.0057 13.5H13V12.5H16L16.4014 13.2982L15.1439 14.9909C15.2118 15.0211 15.2782 15.0549 15.3431 15.0923C15.6659 15.278 15.9372 15.5443 16.1358 15.8643C16.3343 16.1841 16.455 16.5491 16.4896 16.9268C16.5242 17.3046 16.472 17.6864 16.3364 18.0392C16.2008 18.3921 15.9851 18.7073 15.705 18.955C15.4248 19.2029 15.0888 19.3753 14.7259 19.4532C14.3628 19.5312 13.9874 19.5114 13.634 19.3962C13.3762 19.3121 12.9331 19.1624 12.6338 18.8404L13.3662 18.1596C13.4657 18.2666 13.6622 18.3536 13.944 18.4454C14.1301 18.5061 14.3262 18.5163 14.516 18.4755C14.7059 18.4347 14.8871 18.3434 15.0425 18.206C15.1981 18.0683 15.323 17.8885 15.403 17.6805C15.483 17.4723 15.5146 17.2446 15.4938 17.0181C15.473 16.7917 15.4009 16.5765 15.2861 16.3916C15.1714 16.2068 15.0187 16.0594 14.8443 15.959C14.6702 15.8588 14.4784 15.8077 14.2857 15.8077H13.2914L15.0057 13.5Z" fill="#0B0B0C"></path>
</svg>