<svg width="24" height="24" viewBox="0 0 24 24" fill="none" xmlns="http://www.w3.org/2000/svg">
<path fill-rule="evenodd" clip-rule="evenodd" d="M22 10.5L2 10.5001L2 9.50006L22 9.49999L22 10.5Z" fill="#0B0B0C"></path>
<path fill-rule="evenodd" clip-rule="evenodd" d="M4.5 15.5H9.5V16.5H4.5V15.5Z" fill="#0B0B0C"></path>
<path fill-rule="evenodd" clip-rule="evenodd" d="M4.5 12.5L9.5 12.5V13.5H4.5V12.5Z" fill="#0B0B0C"></path>
<path fill-rule="evenodd" clip-rule="evenodd" d="M1.5 5.5H22.5V13H21.5V6.5H2.5V18.5H10V19.5H1.5V5.5Z" fill="#0B0B0C"></path>
<path fill-rule="evenodd" clip-rule="evenodd" d="M21.6465 19.3535L17.8964 15.6035L18.6036 14.8964L22.3536 18.6464L21.6465 19.3535Z" fill="#0B0B0C"></path>
<path fill-rule="evenodd" clip-rule="evenodd" d="M17.8964 18.6464L21.6465 14.8964L22.3536 15.6035L18.6036 19.3535L17.8964 18.6464Z" fill="#0B0B0C"></path>
<path fill-rule="evenodd" clip-rule="evenodd" d="M14.3102 13.5272C13.9563 13.4644 13.5901 13.5114 13.2769 13.6559C12.964 13.8002 12.7333 14.0275 12.6084 14.2855L11.7083 13.8499C11.9432 13.3645 12.3548 12.98 12.8581 12.7478C13.361 12.5159 13.9346 12.445 14.4849 12.5426C15.0352 12.6403 15.542 12.9033 15.9135 13.3008C16.2862 13.6995 16.4995 14.2104 16.5 14.7485C16.5015 15.2139 16.3419 15.6618 16.0532 16.0334L16.0442 16.045L16.0346 16.056L15.6583 15.7267C16.0346 16.056 16.0346 16.056 16.0346 16.056L16.0328 16.058L16.0293 16.062L16.0165 16.0763C16.0056 16.0886 15.9898 16.1062 15.969 16.1289C15.9276 16.1745 15.8665 16.2405 15.7862 16.325C15.6255 16.4939 15.3875 16.7368 15.0742 17.037C14.6579 17.436 14.1083 17.9365 13.4299 18.5H16.5V19.5H12L11.6963 18.6028C12.8786 17.699 13.7791 16.893 14.3823 16.315C14.6838 16.0261 14.9109 15.7943 15.0615 15.6358C15.1369 15.5566 15.1931 15.4958 15.2299 15.4554C15.2483 15.4352 15.2619 15.4201 15.2706 15.4103L15.2725 15.4082C15.4252 15.2066 15.5008 14.9781 15.5 14.7513L15.5 14.7497C15.4999 14.4808 15.394 14.2095 15.1829 13.9836C14.9703 13.7561 14.664 13.59 14.3102 13.5272Z" fill="#0B0B0C"></path>
</svg>