<svg width="24" height="24" viewBox="0 0 24 24" fill="none" xmlns="http://www.w3.org/2000/svg">
<path fill-rule="evenodd" clip-rule="evenodd" d="M22 10.5L2 10.5001L2 9.50006L22 9.49999L22 10.5Z" fill="#0B0B0C"></path>
<path fill-rule="evenodd" clip-rule="evenodd" d="M4.5 15.5H7.5V16.5H4.5V15.5Z" fill="#0B0B0C"></path>
<path fill-rule="evenodd" clip-rule="evenodd" d="M4.5 12.5L7.5 12.5V13.5H4.5V12.5Z" fill="#0B0B0C"></path>
<path fill-rule="evenodd" clip-rule="evenodd" d="M1.5 5.5H22.5V13H21.5V6.5H2.5V18.5H8V19.5H1.5V5.5Z" fill="#0B0B0C"></path>
<path fill-rule="evenodd" clip-rule="evenodd" d="M21.6465 19.3535L17.8965 15.6035L18.6036 14.8964L22.3536 18.6464L21.6465 19.3535Z" fill="#0B0B0C"></path>
<path fill-rule="evenodd" clip-rule="evenodd" d="M17.8965 18.6464L21.6465 14.8964L22.3536 15.6035L18.6036 19.3535L17.8965 18.6464Z" fill="#0B0B0C"></path>
<path fill-rule="evenodd" clip-rule="evenodd" d="M10.5 13.8845L8.82941 14.8898L8.31378 14.033L10.7422 12.5716L11.5 13V19.5H10.5V13.8845Z" fill="#0B0B0C"></path>
<path fill-rule="evenodd" clip-rule="evenodd" d="M12.5 14.5C12.5 13.3954 13.3954 12.5 14.5 12.5C15.6046 12.5 16.5 13.3954 16.5 14.5V17.5C16.5 18.6046 15.6046 19.5 14.5 19.5C13.3954 19.5 12.5 18.6046 12.5 17.5V14.5ZM14.5 13.5C13.9477 13.5 13.5 13.9477 13.5 14.5V17.5C13.5 18.0523 13.9477 18.5 14.5 18.5C15.0523 18.5 15.5 18.0523 15.5 17.5V14.5C15.5 13.9477 15.0523 13.5 14.5 13.5Z" fill="#0B0B0C"></path>
</svg>