<svg width="24" height="24" viewBox="0 0 24 24" fill="none" xmlns="http://www.w3.org/2000/svg">
<path fill-rule="evenodd" clip-rule="evenodd" d="M22 10.5L2 10.5001L2 9.50006L22 9.49999L22 10.5Z" fill="#0B0B0C"></path>
<path fill-rule="evenodd" clip-rule="evenodd" d="M4.5 15.5H9.5V16.5H4.5V15.5Z" fill="#0B0B0C"></path>
<path fill-rule="evenodd" clip-rule="evenodd" d="M4.5 12.5L9.5 12.5V13.5H4.5V12.5Z" fill="#0B0B0C"></path>
<path fill-rule="evenodd" clip-rule="evenodd" d="M1.5 5.5H22.5V13H21.5V6.5H2.5V18.5H10.5V19.5H1.5V5.5Z" fill="#0B0B0C"></path>
<path fill-rule="evenodd" clip-rule="evenodd" d="M21.6465 19.3535L17.8964 15.6035L18.6036 14.8964L22.3536 18.6464L21.6465 19.3535Z" fill="#0B0B0C"></path>
<path fill-rule="evenodd" clip-rule="evenodd" d="M17.8964 18.6464L21.6465 14.8964L22.3536 15.6035L18.6036 19.3535L17.8964 18.6464Z" fill="#0B0B0C"></path>
<path fill-rule="evenodd" clip-rule="evenodd" d="M13.9334 16.7386H15.321V14.6537L13.9334 16.7386ZM16.321 16.7386V13L15.4047 12.723L12.5838 16.9615L13 17.7386H15.321V19H16.321V17.7386H17V16.7386H16.321Z" fill="#0B0B0C"></path>
</svg>