<svg width="24" height="24" viewBox="0 0 24 24" fill="none" xmlns="http://www.w3.org/2000/svg">
<path fill-rule="evenodd" clip-rule="evenodd" d="M11.6613 18.5842C9.9366 20.3089 7.14036 20.3089 5.41569 18.5842C3.69103 16.8595 3.69102 14.0633 5.41569 12.3386L7.49264 10.2617C9.21729 8.53705 12.0135 8.53704 13.7382 10.2617L13.0311 10.9688C11.6969 9.63467 9.53387 9.63467 8.19974 10.9688L6.1228 13.0458C4.78866 14.3799 4.78866 16.543 6.1228 17.8771C7.45694 19.2113 9.62001 19.2113 10.9542 17.8771L12.3388 16.4925L13.0459 17.1996L11.6613 18.5842Z" fill="#0B0B0C"></path>
<path fill-rule="evenodd" clip-rule="evenodd" d="M12.4927 5.41557C14.2173 3.6909 17.0136 3.69091 18.7382 5.41557C20.4629 7.14024 20.4629 9.93648 18.7382 11.6611L16.6613 13.7381C14.9366 15.4627 12.1404 15.4627 10.4157 13.7381L11.1229 13.031C12.457 14.3651 14.62 14.3651 15.9542 13.031L18.0311 10.954C19.3653 9.61989 19.3653 7.45682 18.0311 6.12268C16.697 4.78854 14.5339 4.78853 13.1998 6.12268L11.8151 7.50729L11.108 6.80019L12.4927 5.41557Z" fill="#0B0B0C"></path>
</svg>