<svg width="24" height="24" viewBox="0 0 24 24" fill="none" xmlns="http://www.w3.org/2000/svg">
<path fill-rule="evenodd" clip-rule="evenodd" d="M4.5 2.5H19.5V8.5H4.5V2.5ZM5.5 3.5V7.5H18.5V3.5H5.5Z" fill="#0B0B0C"></path>
<path fill-rule="evenodd" clip-rule="evenodd" d="M3.5 12.5H20.5V14.5H19.5V13.5H4.5V15.5H17V16.5H3.5V12.5Z" fill="#0B0B0C"></path>
<path fill-rule="evenodd" clip-rule="evenodd" d="M15.5 8L15.5 13H14.5L14.5 8H15.5Z" fill="#0B0B0C"></path>
<path fill-rule="evenodd" clip-rule="evenodd" d="M9.5 8L9.5 13H8.5L8.5 8H9.5Z" fill="#0B0B0C"></path>
<path fill-rule="evenodd" clip-rule="evenodd" d="M6.5 16L6.5 22H5.5L5.5 16H6.5Z" fill="#0B0B0C"></path>
<path fill-rule="evenodd" clip-rule="evenodd" d="M21 15.639V20.0322H21.5V21.0322H21V22.0001H20V21.0322H16.4193L21 15.639ZM20 20.0322V18.3612L18.5807 20.0322H20Z" fill="#0B0B0C"></path>
<path fill-rule="evenodd" clip-rule="evenodd" d="M15.6464 22.3536L12.6464 19.3536L13.3536 18.6464L16.3536 21.6464L15.6464 22.3536Z" fill="#0B0B0C"></path>
<path fill-rule="evenodd" clip-rule="evenodd" d="M12.6464 21.6464L15.6464 18.6464L16.3536 19.3536L13.3536 22.3536L12.6464 21.6464Z" fill="#0B0B0C"></path>
</svg>