<svg width="24" height="24" viewBox="0 0 24 24" fill="none" xmlns="http://www.w3.org/2000/svg">
<path fill-rule="evenodd" clip-rule="evenodd" d="M4.5 2.5H19.5V8.5H4.5V2.5ZM5.5 3.5V7.5H18.5V3.5H5.5Z" fill="#0B0B0C"></path>
<path fill-rule="evenodd" clip-rule="evenodd" d="M3.5 12.5H20.5V14.5H19.5V13.5H4.5V15.5H17V16.5H3.5V12.5Z" fill="#0B0B0C"></path>
<path fill-rule="evenodd" clip-rule="evenodd" d="M15.5 8L15.5 13H14.5L14.5 8H15.5Z" fill="#0B0B0C"></path>
<path fill-rule="evenodd" clip-rule="evenodd" d="M9.5 8L9.5 13H8.5L8.5 8H9.5Z" fill="#0B0B0C"></path>
<path fill-rule="evenodd" clip-rule="evenodd" d="M6.5 16L6.5 22H5.5L5.5 16H6.5Z" fill="#0B0B0C"></path>
<path fill-rule="evenodd" clip-rule="evenodd" d="M19.7448 17.5191C19.5349 17.4756 19.3164 17.5073 19.1256 17.61C18.9346 17.7128 18.782 17.8813 18.6959 18.0889L17.7721 17.7059C17.9451 17.2887 18.2549 16.9431 18.6516 16.7295C19.0485 16.5158 19.5066 16.4485 19.9477 16.5398C20.3886 16.6312 20.7829 16.875 21.065 17.2273C21.3467 17.5791 21.4997 18.018 21.5 18.4695C21.5011 18.8605 21.3866 19.2436 21.1702 19.5687L21.1676 19.5727L20.754 19.2917C21.1675 19.5727 21.1676 19.5727 21.1676 19.5727L21.167 19.5736L21.1661 19.5748L21.1634 19.5787L21.1546 19.5914C21.1472 19.6021 21.1366 19.6171 21.1228 19.6364C21.0951 19.6748 21.0547 19.7301 21.0013 19.8005C20.8943 19.9414 20.7351 20.1431 20.5214 20.3931C20.2609 20.6978 19.9194 21.0744 19.4929 21.5001L21.5 21.5L21.5 22.5L16.9226 22.5001L17.9011 21.627C18.7458 20.8733 19.3602 20.2125 19.7613 19.7434C19.9618 19.5088 20.1089 19.3222 20.2047 19.196C20.2526 19.1328 20.2877 19.0848 20.3103 19.0534C20.3215 19.0377 20.3297 19.0261 20.3347 19.0189L20.3395 19.012C20.4443 18.8534 20.5006 18.6653 20.5 18.472L20.5 18.4706C20.4999 18.2439 20.423 18.0255 20.2844 17.8523C20.1459 17.6793 19.9548 17.5626 19.7448 17.5191Z" fill="#0B0B0C"></path>
<path fill-rule="evenodd" clip-rule="evenodd" d="M15.6464 22.3536L12.6464 19.3536L13.3536 18.6464L16.3536 21.6464L15.6464 22.3536Z" fill="#0B0B0C"></path>
<path fill-rule="evenodd" clip-rule="evenodd" d="M12.6464 21.6464L15.6464 18.6464L16.3536 19.3536L13.3536 22.3536L12.6464 21.6464Z" fill="#0B0B0C"></path>
</svg>