<svg width="24" height="24" viewBox="0 0 24 24" fill="none" xmlns="http://www.w3.org/2000/svg">
<path fill-rule="evenodd" clip-rule="evenodd" d="M2.5 3.5H21.5V10.9996C22.1072 11.4555 22.5 12.1814 22.5 12.9994V21.5H18.5V20H5.5V21.5H1.5V12.9991C1.5 12.1811 1.89282 11.4553 2.5 10.9995V3.5ZM3.5 10.55C3.66156 10.5172 3.82877 10.5 4 10.5H4.5V9C4.5 8.17157 5.17157 7.5 6 7.5L10 7.5C10.8284 7.5 11.5 8.17157 11.5 9V10.5H12.5V9C12.5 8.17157 13.1716 7.5 14 7.5L18 7.5C18.8284 7.5 19.5 8.17157 19.5 9V10.5H20C20.1712 10.5 20.3384 10.5172 20.5 10.55V4.5H3.5V10.55ZM18.5 10.5V9C18.5 8.72386 18.2761 8.5 18 8.5L14 8.5C13.7239 8.5 13.5 8.72386 13.5 9V10.5L18.5 10.5ZM10.5 10.5V9C10.5 8.72386 10.2761 8.5 10 8.5L6 8.5C5.72386 8.5 5.5 8.72386 5.5 9V10.5L10.5 10.5ZM20 11.5L4 11.5C3.17128 11.5 2.5 12.171 2.5 12.9991V16.5L21.5 16.5V12.9994C21.5 12.1712 20.8286 11.5 20 11.5ZM21.5 17.5L2.5 17.5V20.5H4.5V19H19.5V20.5H21.5V17.5Z" fill="#0B0B0C"></path>
</svg>