<svg width="24" height="24" viewBox="0 0 24 24" fill="none" xmlns="http://www.w3.org/2000/svg">
<path fill-rule="evenodd" clip-rule="evenodd" d="M3.5 1.5H20.5V22.5H3.5V1.5ZM4.5 2.5V21.5H19.5V2.5H4.5Z" fill="#0B0B0C"></path>
<path fill-rule="evenodd" clip-rule="evenodd" d="M17.0001 6.5H12.0001V5.5H17.0001V6.5Z" fill="#0B0B0C"></path>
<path fill-rule="evenodd" clip-rule="evenodd" d="M17 10.5H12V9.5H17V10.5Z" fill="#0B0B0C"></path>
<path fill-rule="evenodd" clip-rule="evenodd" d="M17 14.5H12V13.5H17V14.5Z" fill="#0B0B0C"></path>
<path fill-rule="evenodd" clip-rule="evenodd" d="M17 18.5H12V17.5H17V18.5Z" fill="#0B0B0C"></path>
<path fill-rule="evenodd" clip-rule="evenodd" d="M8 14.2929L9.64645 12.6464L10.3536 13.3536L8 15.7071L6.64645 14.3536L7.35355 13.6464L8 14.2929Z" fill="#0B0B0C"></path>
<path fill-rule="evenodd" clip-rule="evenodd" d="M8 18.2929L9.64645 16.6464L10.3536 17.3536L8 19.7071L6.64645 18.3536L7.35355 17.6464L8 18.2929Z" fill="#0B0B0C"></path>
<path fill-rule="evenodd" clip-rule="evenodd" d="M8 10.2929L9.64645 8.64645L10.3536 9.35355L8 11.7071L6.64645 10.3536L7.35355 9.64645L8 10.2929Z" fill="#0B0B0C"></path>
<path fill-rule="evenodd" clip-rule="evenodd" d="M8 6.29289L9.64645 4.64645L10.3536 5.35355L8 7.70711L6.64645 6.35355L7.35355 5.64645L8 6.29289Z" fill="#0B0B0C"></path>
</svg>