<svg width="24" height="24" viewBox="0 0 24 24" fill="none" xmlns="http://www.w3.org/2000/svg">
<path d="M11.995 16.25C12.3402 16.25 12.62 15.9702 12.62 15.625C12.62 15.2798 12.3402 15 11.995 15C11.6498 15 11.37 15.2798 11.37 15.625C11.37 15.9702 11.6498 16.25 11.995 16.25Z" fill="#0B0B0C"></path>
<path fill-rule="evenodd" clip-rule="evenodd" d="M12 7.5C10.5807 7.5 9.5 8.55263 9.5 9.76828H8.5C8.5 7.92617 10.1056 6.5 12 6.5C13.8944 6.5 15.5 7.92617 15.5 9.76828C15.5 11.4267 14.1858 12.8627 12.5 13.1036V13.7669H11.5V12.1391H12C13.3952 12.1391 14.5 11.0068 14.5 9.76828C14.5 8.55263 13.4193 7.5 12 7.5Z" fill="#0B0B0C"></path>
<path fill-rule="evenodd" clip-rule="evenodd" d="M12 3.5C7.30558 3.5 3.5 7.30558 3.5 12C3.5 16.6944 7.30558 20.5 12 20.5C16.6944 20.5 20.5 16.6944 20.5 12C20.5 7.30558 16.6944 3.5 12 3.5ZM2.5 12C2.5 6.75329 6.75329 2.5 12 2.5C17.2467 2.5 21.5 6.75329 21.5 12C21.5 17.2467 17.2467 21.5 12 21.5C6.75329 21.5 2.5 17.2467 2.5 12Z" fill="#0B0B0C"></path>
</svg>