<svg width="24" height="24" viewBox="0 0 24 24" fill="none" xmlns="http://www.w3.org/2000/svg">
<path fill-rule="evenodd" clip-rule="evenodd" d="M10.0021 7.5H12.5021C13.8828 7.5 15.0021 8.61929 15.0021 10C15.0021 11.3807 13.8828 12.5 12.5021 12.5H11.0021V17H10.0021V7.5ZM11.0021 11.5H12.5021C13.3306 11.5 14.0021 10.8284 14.0021 10C14.0021 9.17157 13.3306 8.5 12.5021 8.5H11.0021V11.5Z" fill="#0B0B0C"></path>
<path fill-rule="evenodd" clip-rule="evenodd" d="M12 3.5C7.30558 3.5 3.5 7.30558 3.5 12C3.5 16.6944 7.30558 20.5 12 20.5C16.6944 20.5 20.5 16.6944 20.5 12C20.5 7.30558 16.6944 3.5 12 3.5ZM2.5 12C2.5 6.75329 6.75329 2.5 12 2.5C17.2467 2.5 21.5 6.75329 21.5 12C21.5 17.2467 17.2467 21.5 12 21.5C6.75329 21.5 2.5 17.2467 2.5 12Z" fill="#0B0B0C"></path>
</svg>