<svg width="24" height="24" viewBox="0 0 24 24" fill="none" xmlns="http://www.w3.org/2000/svg">
<path fill-rule="evenodd" clip-rule="evenodd" d="M12.7782 12L15.9602 15.182L15.253 15.8891L12.0711 12.7071L8.88909 15.8891L8.18198 15.182L11.364 12L8.18198 8.81802L8.88909 8.11091L12.0711 11.2929L15.253 8.11091L15.9602 8.81802L12.7782 12Z" fill="#0B0B0C"></path>
<path fill-rule="evenodd" clip-rule="evenodd" d="M12 3.5C7.30558 3.5 3.5 7.30558 3.5 12C3.5 16.6944 7.30558 20.5 12 20.5C16.6944 20.5 20.5 16.6944 20.5 12C20.5 7.30558 16.6944 3.5 12 3.5ZM2.5 12C2.5 6.75329 6.75329 2.5 12 2.5C17.2467 2.5 21.5 6.75329 21.5 12C21.5 17.2467 17.2467 21.5 12 21.5C6.75329 21.5 2.5 17.2467 2.5 12Z" fill="#0B0B0C"></path>
</svg>