<svg width="24" height="24" viewBox="0 0 24 24" fill="none" xmlns="http://www.w3.org/2000/svg">
<path fill-rule="evenodd" clip-rule="evenodd" d="M13.5115 9.97108C13.8147 9.66917 14.2254 9.49991 14.6532 9.49991C15.0811 9.49991 15.4918 9.66917 15.7949 9.97108C16.0981 10.2731 16.2688 10.6831 16.2688 11.111V11.3992C16.4623 11.3197 16.6712 11.2777 16.8844 11.2777C17.3123 11.2777 17.723 11.4469 18.0261 11.7489C18.3293 12.0508 18.5 12.4609 18.5 12.8888V17.5555C18.5 18.2051 18.3716 18.8482 18.122 19.4483C17.8725 20.0483 17.5068 20.5934 17.0459 21.0524C16.585 21.5115 16.0379 21.8755 15.436 22.1238C14.8341 22.3721 14.189 22.4999 13.5376 22.4999C12.1904 22.4999 11.1648 22.126 10.2475 21.21C9.37024 20.334 8.60985 18.9777 7.70572 17.0814C7.50005 16.7147 7.44588 16.2819 7.55557 15.8754C7.66715 15.4619 7.9389 15.1101 8.31033 14.8968C8.68169 14.6837 9.1226 14.6262 9.53624 14.7369C9.94992 14.8477 10.3031 15.1177 10.5176 15.4884L10.8064 15.9875V11.9999C10.8064 11.572 10.9771 11.162 11.2803 10.86C11.5835 10.5581 11.9942 10.3888 12.422 10.3888C12.6722 10.3888 12.9165 10.4467 13.1369 10.5551C13.2171 10.3376 13.3441 10.1379 13.5115 9.97108ZM13.0376 11.9999C13.0376 11.8385 12.9733 11.6833 12.858 11.5685C12.7427 11.4537 12.5859 11.3888 12.422 11.3888C12.2581 11.3888 12.1013 11.4537 11.986 11.5685C11.8708 11.6833 11.8064 11.8385 11.8064 11.9999V17.8499L10.8737 18.1003L9.65208 15.9892V15.9892C9.57071 15.8486 9.4362 15.7454 9.27768 15.7029C9.11911 15.6605 8.95017 15.6826 8.80818 15.7641C8.66627 15.8456 8.56325 15.9795 8.52104 16.1359C8.47886 16.2922 8.5007 16.4589 8.58204 16.5995L8.59206 16.6168L8.60066 16.6349C9.51152 18.5466 10.2107 19.76 10.9541 20.5024C11.66 21.2072 12.4194 21.4999 13.5376 21.4999C14.0583 21.4999 14.5737 21.3978 15.0546 21.1994C15.5355 21.001 15.9723 20.7103 16.3402 20.3439C16.708 19.9775 16.9997 19.5427 17.1987 19.0643C17.3977 18.5859 17.5 18.0732 17.5 17.5555V12.8888C17.5 12.7274 17.4357 12.5722 17.3204 12.4574C17.2051 12.3426 17.0483 12.2777 16.8844 12.2777C16.7205 12.2777 16.5637 12.3426 16.4484 12.4574C16.3332 12.5722 16.2688 12.7274 16.2688 12.8888V15.7777H15.2688L15.2688 11.111C15.2688 10.9496 15.2045 10.7944 15.0892 10.6796C14.9739 10.5648 14.8171 10.4999 14.6532 10.4999C14.4893 10.4999 14.3325 10.5648 14.2172 10.6796C14.102 10.7944 14.0376 10.9496 14.0376 11.111L14.0376 15.7777H13.0376V11.9999Z" fill="#0B0B0C"></path>
<path fill-rule="evenodd" clip-rule="evenodd" d="M5.50003 0.695312L7.1227 4.60588L9.88397 6.49991L7.1227 8.39395L5.50003 12.3045L3.87737 8.39395L1.11609 6.49991L3.87737 4.60588L5.50003 0.695312ZM5.50003 3.30451L4.68742 5.26288L2.88397 6.49991L4.68742 7.73695L5.50003 9.69531L6.31264 7.73695L8.11609 6.49991L6.31264 5.26288L5.50003 3.30451Z" fill="#0B0B0C"></path>
<path fill-rule="evenodd" clip-rule="evenodd" d="M7.69095 1.6276L22.6549 8.54761L18.5452 17.4345L17.6376 17.0147L21.3275 9.03552L8.17886 2.95499L7.2257 5.01612L6.31805 4.59639L7.69095 1.6276ZM2.6816 14.8424L5.21522 9.36362L4.30758 8.94389L1.35422 15.3303L8.29016 18.5378L8.7099 17.6301L2.6816 14.8424Z" fill="#0B0B0C"></path>
</svg>