<svg width="24" height="24" viewBox="0 0 24 24" fill="none" xmlns="http://www.w3.org/2000/svg">
<path fill-rule="evenodd" clip-rule="evenodd" d="M11.9999 5.5C9.40774 5.5 7.16895 7.01736 6.12518 9.21455L5.22192 8.78545C6.42508 6.25274 9.00732 4.5 11.9999 4.5C16.1421 4.5 19.4999 7.85786 19.4999 12C19.4999 16.1421 16.1421 19.5 11.9999 19.5C9.82653 19.5 7.86924 18.5752 6.49997 17.0991L6.49997 20H5.49997L5.49997 15.5H9.99997V16.5H7.30944C8.49282 17.7332 10.1569 18.5 11.9999 18.5C15.5898 18.5 18.4999 15.5899 18.4999 12C18.4999 8.41015 15.5898 5.5 11.9999 5.5Z" fill="#0B0B0C"></path>
</svg>