<svg width="24" height="24" viewBox="0 0 24 24" fill="none" xmlns="http://www.w3.org/2000/svg">
<path fill-rule="evenodd" clip-rule="evenodd" d="M10 4.5C7.51472 4.5 5.5 6.51472 5.5 9C5.5 9.03789 5.50047 9.07565 5.5014 9.1133L5.5112 9.51091L5.12598 9.60989C3.61562 9.99798 2.5 11.3693 2.5 13C2.5 14.933 4.067 16.5 6 16.5C6.50323 16.5 6.9804 16.3941 7.41151 16.2039L7.8123 16.027L8.04031 16.401C8.79398 17.6374 10.2731 18.5 12 18.5C13.7269 18.5 15.206 17.6374 15.9597 16.401L16.1877 16.027L16.5885 16.2039C17.0196 16.3941 17.4968 16.5 18 16.5C19.933 16.5 21.5 14.933 21.5 13C21.5 11.6161 20.6969 10.4188 19.529 9.85064L19.1202 9.65173L19.2794 9.22588C19.4219 8.84503 19.5 8.43221 19.5 8C19.5 6.067 17.933 4.5 16 4.5C15.0424 4.5 14.1754 4.88392 13.543 5.50737L13.2208 5.82506L12.8726 5.53599C12.0931 4.88875 11.0926 4.5 10 4.5ZM4.50539 8.75431C4.63391 5.83076 7.04477 3.5 10 3.5C11.1789 3.5 12.272 3.87138 13.1675 4.50316C13.9407 3.8762 14.9268 3.5 16 3.5C18.4853 3.5 20.5 5.51472 20.5 8C20.5 8.40091 20.4474 8.79015 20.3487 9.16092C21.6384 9.95155 22.5 11.3748 22.5 13C22.5 15.4853 20.4853 17.5 18 17.5C17.5042 17.5 17.0265 17.4196 16.5795 17.271C15.5868 18.6252 13.8967 19.5 12 19.5C10.1033 19.5 8.41323 18.6252 7.42054 17.271C6.97354 17.4196 6.49576 17.5 6 17.5C3.51472 17.5 1.5 15.4853 1.5 13C1.5 11.0382 2.75502 9.37055 4.50539 8.75431Z" fill="#0B0B0C"></path>
</svg>