<svg width="24" height="24" viewBox="0 0 24 24" fill="none" xmlns="http://www.w3.org/2000/svg">
<path fill-rule="evenodd" clip-rule="evenodd" d="M11.5 5.72498V8.50003H14.143L11.5 5.72498ZM14.5 9.50003H10.5V5.50005H2.50001L2.50003 20.5H14.5L14.5 9.50003ZM15.5 21.5H1.50003L1.5 4.50005L11.2506 4.50004L11.7143 4.50003L15.5 8.47489L15.5 21.5ZM11.5 5.16064C11.5046 5.13838 11.5079 5.11631 11.5101 5.0945C11.507 5.10775 11.5037 5.12076 11.5 5.13353V5.16064ZM11.29 4.50224L11.2867 4.50124L11.276 4.50071C11.2791 4.50099 11.2839 4.5015 11.29 4.50224ZM10.9919 5.00005C10.9905 4.97005 10.9911 4.93932 10.994 4.90806C10.9873 4.93763 10.9823 4.96834 10.9794 5.00005H10.9919ZM11.2257 4.50075L11.232 4.50051C11.232 4.50051 11.2285 4.50055 11.2257 4.50075ZM4.59527 12.5H13.0238V13.5H4.59527V12.5ZM4.59527 14.9616H13.0238V15.9616H4.59527V14.9616ZM6.76194 17.4231H13.0238V18.4231H6.76194V17.4231Z" fill="#0B0B0C"></path>
<path fill-rule="evenodd" clip-rule="evenodd" d="M18.5 2.50003L12.5 2.50003L12.5 3.91179H11.5L11.5 1.50003L19.5192 1.5L22.5 4.80796V14.5H22H16.5V13.5H21.4991L21.5 6H18.5V2.50003ZM19.5 2.9725V5H21.327L19.5 2.9725Z" fill="#0B0B0C"></path>
</svg>