<svg width="24" height="24" viewBox="0 0 24 24" fill="none" xmlns="http://www.w3.org/2000/svg">
<path fill-rule="evenodd" clip-rule="evenodd" d="M3.5 6.50003C2.94772 6.50003 2.5 6.94774 2.5 7.50002C2.5 7.94768 2.79452 8.32786 3.20157 8.45488L3.55263 8.56442V15.4356L3.20157 15.5452C2.79452 15.6722 2.5 16.0524 2.5 16.5C2.5 17.0523 2.94772 17.5 3.5 17.5H3.6579C4.0731 17.5 4.43035 17.2469 4.58145 16.8845L4.70971 16.577H14.0682V17.577H5.34336C4.9883 18.1316 4.36655 18.5 3.6579 18.5H3.5C2.39543 18.5 1.5 17.6046 1.5 16.5C1.5 15.7377 1.92623 15.0759 2.55263 14.7384V9.2617C1.92623 8.92417 1.5 8.26234 1.5 7.50002C1.5 6.39546 2.39543 5.50003 3.5 5.50003H3.6579C4.36655 5.50003 4.9883 5.8685 5.34336 6.4231H10V7.4231H4.70971L4.58145 7.11555C4.43035 6.7532 4.0731 6.50003 3.6579 6.50003H3.5ZM20.3421 6.50003C19.9269 6.50003 19.5697 6.75321 19.4185 7.11555L19.2903 7.4231H12.2426V6.4231H18.6566C19.0117 5.8685 19.6335 5.50003 20.3421 5.50003H20.5C21.6046 5.50003 22.5 6.39546 22.5 7.50003C22.5 8.26235 22.0738 8.92417 21.4474 9.2617V14.7384C22.0738 15.0759 22.5 15.7377 22.5 16.5C22.5 17.6046 21.6046 18.5 20.5 18.5H20.3421C19.6335 18.5 19.0117 18.1316 18.6566 17.577H16.655V16.577H19.2903L19.4185 16.8845C19.5697 17.2469 19.9269 17.5 20.3421 17.5H20.5C21.0523 17.5 21.5 17.0523 21.5 16.5C21.5 16.0524 21.2055 15.6722 20.7984 15.5452L20.4474 15.4356V8.56443L20.7984 8.45488C21.2055 8.32786 21.5 7.94769 21.5 7.50003C21.5 6.94775 21.0523 6.50003 20.5 6.50003H20.3421Z" fill="#0B0B0C"></path>
<path d="M8.5 9.75002C8.5 10.1642 8.16421 10.5 7.75 10.5C7.33579 10.5 7 10.1642 7 9.75002C7 9.33581 7.33579 9.00002 7.75 9.00002C8.16421 9.00002 8.5 9.33581 8.5 9.75002Z" fill="#0B0B0C"></path>
<path d="M17 9.75002C17 10.1642 16.6642 10.5 16.25 10.5C15.8358 10.5 15.5 10.1642 15.5 9.75002C15.5 9.33581 15.8358 9.00002 16.25 9.00002C16.6642 9.00002 17 9.33581 17 9.75002Z" fill="#0B0B0C"></path>
<path d="M17 14.75C17 15.1642 16.6642 15.5 16.25 15.5C15.8358 15.5 15.5 15.1642 15.5 14.75C15.5 14.3358 15.8358 14 16.25 14C16.6642 14 17 14.3358 17 14.75Z" fill="#0B0B0C"></path>
<path d="M8.5 14.75C8.5 15.1642 8.16421 15.5 7.75 15.5C7.33579 15.5 7 15.1642 7 14.75C7 14.3358 7.33579 14 7.75 14C8.16421 14 8.5 14.3358 8.5 14.75Z" fill="#0B0B0C"></path>
<path fill-rule="evenodd" clip-rule="evenodd" d="M15.4221 21.3973L7.65657 2.99126L8.57793 2.60254L16.3435 21.0086L15.4221 21.3973Z" fill="#0B0B0C"></path>
</svg>