<svg width="24" height="24" viewBox="0 0 24 24" fill="none" xmlns="http://www.w3.org/2000/svg">
<path fill-rule="evenodd" clip-rule="evenodd" d="M3.5 6.5C2.94772 6.5 2.5 6.94772 2.5 7.5C2.5 7.94766 2.79452 8.32783 3.20157 8.45485L3.55263 8.5644V15.4356L3.20157 15.5452C2.79452 15.6722 2.5 16.0524 2.5 16.5C2.5 17.0523 2.94772 17.5 3.5 17.5H3.6579C4.0731 17.5 4.43035 17.2468 4.58145 16.8845L4.70971 16.5769H19.2903L19.4185 16.8845C19.5697 17.2468 19.9269 17.5 20.3421 17.5H20.5C21.0523 17.5 21.5 17.0523 21.5 16.5C21.5 16.0524 21.2055 15.6722 20.7984 15.5452L20.4474 15.4356V8.56441L20.7984 8.45486C21.2055 8.32784 21.5 7.94766 21.5 7.50001C21.5 6.94772 21.0523 6.50001 20.5 6.50001H20.3421C19.9269 6.50001 19.5697 6.75318 19.4185 7.11553L19.2903 7.42308L4.70971 7.42308L4.58145 7.11552C4.43035 6.75318 4.0731 6.5 3.6579 6.5H3.5ZM1.5 7.5C1.5 6.39543 2.39543 5.5 3.5 5.5H3.6579C4.36655 5.5 4.9883 5.86847 5.34336 6.42308L18.6566 6.42308C19.0117 5.86848 19.6335 5.50001 20.3421 5.50001H20.5C21.6046 5.50001 22.5 6.39544 22.5 7.50001C22.5 8.26232 22.0738 8.92415 21.4474 9.26168V14.7383C22.0738 15.0759 22.5 15.7377 22.5 16.5C22.5 17.6046 21.6046 18.5 20.5 18.5H20.3421C19.6335 18.5 19.0117 18.1315 18.6566 17.5769H5.34336C4.9883 18.1315 4.36655 18.5 3.6579 18.5H3.5C2.39543 18.5 1.5 17.6046 1.5 16.5C1.5 15.7377 1.92623 15.0759 2.55263 14.7383V9.26167C1.92623 8.92414 1.5 8.26232 1.5 7.5Z" fill="#0B0B0C"></path>
<path d="M8.5 9.75C8.5 10.1642 8.16421 10.5 7.75 10.5C7.33579 10.5 7 10.1642 7 9.75C7 9.33579 7.33579 9 7.75 9C8.16421 9 8.5 9.33579 8.5 9.75Z" fill="#0B0B0C"></path>
<path d="M17 9.75C17 10.1642 16.6642 10.5 16.25 10.5C15.8358 10.5 15.5 10.1642 15.5 9.75C15.5 9.33579 15.8358 9 16.25 9C16.6642 9 17 9.33579 17 9.75Z" fill="#0B0B0C"></path>
<path d="M17 14.75C17 15.1642 16.6642 15.5 16.25 15.5C15.8358 15.5 15.5 15.1642 15.5 14.75C15.5 14.3358 15.8358 14 16.25 14C16.6642 14 17 14.3358 17 14.75Z" fill="#0B0B0C"></path>
<path d="M8.5 14.75C8.5 15.1642 8.16421 15.5 7.75 15.5C7.33579 15.5 7 15.1642 7 14.75C7 14.3358 7.33579 14 7.75 14C8.16421 14 8.5 14.3358 8.5 14.75Z" fill="#0B0B0C"></path>
</svg>