<svg width="24" height="24" viewBox="0 0 24 24" fill="none" xmlns="http://www.w3.org/2000/svg">
<path fill-rule="evenodd" clip-rule="evenodd" d="M4.5 1.5H9.5V4.87845L10.5 6.8137V8.5H3.5V6.8137L4.5 4.87845V1.5ZM5.30444 5.5L4.5 7.05679V7.5H9.5V7.05679L8.69556 5.5H5.30444ZM8.5 4.5V2.5H5.5V4.5H8.5ZM11.5 1.5H22.5V22.5H1.5V11.5H11.5V1.5ZM12.5 21.5H21.5V8.5H12.5V21.5ZM12.5 7.5H21.5V2.5H12.5V7.5ZM11.5 21.5V15.5L2.5 15.5V21.5H11.5ZM2.5 14.5L11.5 14.5V12.5H2.5V14.5ZM19.5 4H20.5V6H19.5V4Z" fill="#0B0B0C"></path>
</svg>