<svg width="24" height="24" viewBox="0 0 24 24" fill="none" xmlns="http://www.w3.org/2000/svg">
<path fill-rule="evenodd" clip-rule="evenodd" d="M15.4009 22.5L8.59595 22.5L6.52471 16.1552L7.47534 15.8449L9.32144 21.5L14.6758 21.5L16.5248 15.8447L17.4753 16.1554L15.4009 22.5Z" fill="#0B0B0C"></path>
<path fill-rule="evenodd" clip-rule="evenodd" d="M5.50002 12.5H18.5V16.5H5.50002V12.5ZM6.50002 13.5V15.5H17.5V13.5H6.50002Z" fill="#0B0B0C"></path>
<path fill-rule="evenodd" clip-rule="evenodd" d="M16.2133 7.43702C13.9247 8.51668 12.5 10.3787 12.5 12.4135C12.5 12.5864 12.5102 12.7575 12.5301 12.9264L11.5369 13.0433C11.5125 12.8357 11.5 12.6257 11.5 12.4135C11.5 9.87315 13.2696 7.72 15.7867 6.5326L16.2133 7.43702Z" fill="#0B0B0C"></path>
<path fill-rule="evenodd" clip-rule="evenodd" d="M8.7679 8.44289C10.4423 9.32055 11.5 10.8419 11.5 12.5239C11.5 12.6667 11.4925 12.808 11.4777 12.9474L12.4721 13.0527C12.4906 12.8784 12.5 12.702 12.5 12.5239C12.5 10.3933 11.162 8.56874 9.23215 7.55719L8.7679 8.44289Z" fill="#0B0B0C"></path>
<path fill-rule="evenodd" clip-rule="evenodd" d="M20.968 2.87166L20.4777 2.84557L20.5323 2.33961L20.9961 2.38904L20.968 2.87166ZM19.9359 3.32067C19.932 3.32053 19.9282 3.32038 19.9243 3.32024C19.6079 3.30866 19.1706 3.30633 18.6865 3.34287C17.6917 3.41796 16.6058 3.65058 15.9217 4.2025C15.2708 4.72767 14.8454 5.38781 14.6686 6.01083C14.4916 6.63449 14.5702 7.18034 14.8552 7.56081C15.1403 7.94128 15.6307 8.15494 16.2567 8.13066C16.8821 8.1064 17.6035 7.84123 18.2543 7.31606C18.9799 6.73068 19.4266 5.65527 19.6864 4.63461C19.8129 4.13766 19.8885 3.68028 19.9325 3.34695C19.9336 3.3381 19.9348 3.32934 19.9359 3.32067ZM20.6362 4.88571C20.3645 5.95322 19.8494 7.31314 18.8539 8.11637C18.0568 8.75956 17.139 9.11407 16.2848 9.1472C15.4313 9.18031 14.6016 8.88907 14.077 8.18876C13.5523 7.48844 13.4849 6.58225 13.7262 5.73198C13.9677 4.88105 14.525 4.04537 15.3222 3.40218C16.2522 2.6518 17.5941 2.40603 18.6237 2.32831C19.1518 2.28845 19.6257 2.2911 19.9677 2.30362C20.139 2.30988 20.278 2.31866 20.3752 2.32597C20.4238 2.32963 20.4619 2.33292 20.4885 2.33535L20.5195 2.33831L20.5282 2.33919L20.5309 2.33946L20.5323 2.33961C20.5323 2.33961 20.5323 2.33961 20.4777 2.84557C20.968 2.87166 20.968 2.87166 20.968 2.87166L20.9679 2.87327L20.9678 2.87615L20.9672 2.88565L20.9648 2.91923C20.9627 2.94791 20.9594 2.98899 20.9547 3.0411C20.9452 3.14528 20.9298 3.29383 20.9059 3.47571C20.858 3.83866 20.7755 4.33857 20.6362 4.88571Z" fill="#0B0B0C"></path>
<path fill-rule="evenodd" clip-rule="evenodd" d="M4.72355 5.08086L4.85556 5.57136L4.38843 5.72567L4.22205 5.21587L4.72355 5.08086ZM5.51845 5.94295C5.60677 6.16254 5.72239 6.43101 5.86131 6.71273C6.03279 7.06045 6.23511 7.41882 6.45966 7.72764C6.68764 8.04118 6.91796 8.27492 7.13715 8.40625C7.65894 8.71888 8.20227 8.83314 8.64724 8.78686C9.0926 8.74053 9.40275 8.54205 9.55712 8.26457C9.71149 7.98709 9.72205 7.6091 9.53803 7.18568C9.35417 6.76263 8.98715 6.33144 8.46536 6.01881C8.25611 5.89343 7.9491 5.81251 7.56534 5.78047C7.18852 5.74901 6.77731 5.76769 6.3888 5.80965C6.06181 5.84497 5.75918 5.89584 5.51845 5.94295ZM7.62944 4.76999C8.08122 4.80771 8.55747 4.90884 8.95152 5.14494C9.63635 5.55526 10.1586 6.14362 10.4372 6.78452C10.7155 7.42506 10.7616 8.15543 10.4149 8.77854C10.0683 9.40164 9.43576 9.72545 8.76204 9.79553C8.08795 9.86565 7.33581 9.69043 6.65099 9.28011C6.26687 9.04997 5.94072 8.69398 5.67336 8.32628C5.40257 7.95386 5.17068 7.53946 4.98336 7.1596C4.79533 6.77831 4.64751 6.42219 4.54673 6.16177C4.49621 6.03122 4.4572 5.9239 4.43056 5.84847C4.41724 5.81073 4.407 5.78092 4.39994 5.7601L4.39176 5.73575L4.38948 5.72888L4.38843 5.72567C4.38843 5.72567 4.38843 5.72567 4.85556 5.57136C4.72355 5.08086 4.72355 5.08086 4.72355 5.08086L4.7247 5.08055L4.72682 5.07998L4.7339 5.07811L4.75917 5.07156C4.78081 5.06601 4.81192 5.05819 4.85148 5.04862C4.93056 5.0295 5.04369 5.00334 5.18276 4.97442C5.46019 4.91675 5.84454 4.84735 6.27025 4.80137C6.69413 4.75559 7.17073 4.7317 7.62944 4.76999Z" fill="#0B0B0C"></path>
</svg>