<svg width="24" height="24" viewBox="0 0 24 24" fill="none" xmlns="http://www.w3.org/2000/svg">
<path d="M19.8136 13.4037C19.8136 12.8976 19.4037 12.4869 18.8976 12.4867C18.3913 12.4867 17.9806 12.8975 17.9806 13.4037C17.9807 13.9098 18.3914 14.3197 18.8976 14.3197C19.4036 14.3196 19.8134 13.9097 19.8136 13.4037ZM20.8136 13.4037C20.8134 14.462 19.9559 15.3196 18.8976 15.3197C17.8391 15.3197 16.9807 14.4621 16.9806 13.4037C16.9806 12.3452 17.839 11.4867 18.8976 11.4867C19.956 11.4869 20.8136 12.3453 20.8136 13.4037Z" fill="#0B0B0C"></path>
<path d="M8.98014 3.45896V4.45896L5.20279 4.45896L5.20279 3.45896L8.98014 3.45896Z" fill="#0B0B0C"></path>
<path d="M10.8697 5.34785L10.8697 6.34785L4.25835 6.34785L4.25835 5.34785L10.8697 5.34785Z" fill="#0B0B0C"></path>
<path d="M7.09125 7.23674V8.23674L3.3139 8.23673L3.3139 7.23673L7.09125 7.23674Z" fill="#0B0B0C"></path>
<path d="M18.047 1.57007L16.505 13.9031H13.0958V12.9031H15.6222L16.9142 2.57007H6.95717V1.57007H18.047ZM6.28139 9.7019L5.91615 12.0632L5.42201 11.9871L4.92787 11.9099L5.1476 10.4939L5.29311 9.54956L6.28139 9.7019Z" fill="#0B0B0C"></path>
<path d="M22.7416 5.34785L22.1 13.9035H20.3608V12.9035H21.1723L21.6645 6.34785H17.4496L16.6303 12.9035H17.811V13.9035H15.4975L16.5668 5.34785H22.7416Z" fill="#0B0B0C"></path>
<path d="M9.8474 17.3924L13.3406 19.9188L15.2036 18.2345L10.0803 14.4451H4.25836V19.4977H6.82001L12.1762 22.4451L21.2584 21.3924V19.0766H14.2721" stroke="#0B0B0C"></path>
<path d="M4.25836 13.4451V20.4451L1.25836 20.4451V13.4451L4.25836 13.4451Z" stroke="#0B0B0C"></path>
</svg>