<svg width="24" height="24" viewBox="0 0 24 24" fill="none" xmlns="http://www.w3.org/2000/svg">
<path d="M12 19.707L17.707 14L17 13.293L12.5 17.793V6.20703L14 7.70703L14.707 7L12 4.29297L9.29295 7L9.99998 7.70703L11.5 6.20703V17.793L6.99998 13.293L6.29295 14L12 19.707Z" fill="#0B0B0C"></path>
<path d="M17.5 2.5V3.5H6.49998V2.5H17.5Z" fill="#0B0B0C"></path>
<path d="M21.5 20.5V21.5L2.49998 21.5L2.49998 20.5L21.5 20.5Z" fill="#0B0B0C"></path>
<path d="M2.5121 18.8905C2.57014 18.6207 2.83589 18.4485 3.10577 18.5063C3.37564 18.5642 3.5475 18.8301 3.48991 19.1L3.48888 19.1048C3.43102 19.3748 3.16523 19.5468 2.89522 19.4889C2.6252 19.431 2.45322 19.1652 2.51108 18.8952L2.5121 18.8905ZM3.26203 15.3908C3.31992 15.1208 3.5857 14.9488 3.8557 15.0067C4.12569 15.0645 4.29765 15.3303 4.23983 15.6003L4.23799 15.6089C4.18013 15.8789 3.91434 16.0509 3.64432 15.9931C3.37431 15.9352 3.20233 15.6694 3.26019 15.3994L3.26203 15.3908ZM4.01196 11.8912C4.06982 11.6211 4.33561 11.4492 4.60562 11.507C4.87563 11.5649 5.04762 11.8307 4.98976 12.1007L4.98792 12.1093C4.92999 12.3792 4.66421 12.5513 4.39425 12.4934C4.12429 12.4356 3.95235 12.1697 4.01011 11.8997L4.01196 11.8912ZM4.76209 8.39054C4.82009 8.12072 5.08585 7.94857 5.35575 8.00641C5.62565 8.06424 5.79754 8.33017 5.73989 8.60007L5.73805 8.60867C5.68019 8.87868 5.41439 9.05066 5.14438 8.9928C4.87437 8.93494 4.70238 8.66915 4.76024 8.39914L4.76209 8.39054ZM5.51099 4.89566C5.56885 4.62565 5.83464 4.45367 6.10465 4.51153C6.37467 4.56939 6.54665 4.83518 6.48879 5.10519L6.48797 5.10901C6.43011 5.37902 6.16432 5.55101 5.89431 5.49315C5.62429 5.43529 5.45231 5.1695 5.51017 4.89948L5.51099 4.89566Z" fill="#0B0B0C"></path>
<path d="M20.5101 19.1C20.4525 18.8301 20.6243 18.5642 20.8942 18.5063C21.1641 18.4485 21.4298 18.6207 21.4879 18.8905L21.4889 18.8952C21.5467 19.1652 21.3748 19.431 21.1047 19.4889C20.8347 19.5468 20.5689 19.3748 20.5111 19.1048L20.5101 19.1ZM19.7601 15.6003C19.7023 15.3303 19.8743 15.0645 20.1443 15.0067C20.4143 14.9488 20.68 15.1208 20.7379 15.3908L20.7398 15.3994C20.7976 15.6694 20.6257 15.9352 20.3556 15.9931C20.0856 16.0509 19.8198 15.8789 19.762 15.6089L19.7601 15.6003ZM19.0102 12.1007C18.9523 11.8307 19.1243 11.5649 19.3943 11.507C19.6644 11.4492 19.9301 11.6211 19.988 11.8912L19.9898 11.8997C20.0476 12.1697 19.8757 12.4356 19.6057 12.4934C19.3357 12.5513 19.07 12.3792 19.012 12.1093L19.0102 12.1007ZM18.2601 8.60007C18.2024 8.33017 18.3743 8.06424 18.6442 8.00641C18.9141 7.94857 19.1799 8.12072 19.2379 8.39054L19.2397 8.39914C19.2976 8.66915 19.1256 8.93494 18.8556 8.9928C18.5856 9.05066 18.3198 8.87868 18.2619 8.60867L18.2601 8.60007ZM17.5112 5.10519C17.4533 4.83518 17.6253 4.56939 17.8953 4.51153C18.1653 4.45367 18.4311 4.62565 18.489 4.89566L18.4898 4.89948C18.5477 5.1695 18.3757 5.43529 18.1057 5.49315C17.8356 5.55101 17.5699 5.37903 17.512 5.10901L17.5112 5.10519Z" fill="#0B0B0C"></path>
</svg>