<svg width="24" height="24" viewBox="0 0 24 24" fill="none" xmlns="http://www.w3.org/2000/svg">
<path d="M7.99977 4H15.9998L20 9L11.9998 20L4 9L7.99977 4Z" stroke="#0B0B0C" stroke-linecap="round"></path>
<path d="M16 8.67396L16.469 8.84725L16.5708 8.57189L16.3799 8.34886L16 8.67396ZM12 19.5L11.531 19.6733H12.469L12 19.5ZM8 8.67396L7.62012 8.34886L7.42925 8.57189L7.53099 8.84725L8 8.67396ZM12 4L12.3799 3.6749H11.6201L12 4ZM16 8.67396L15.531 8.50067L11.531 19.3267L12 19.5L12.469 19.6733L16.469 8.84725L16 8.67396ZM12 19.5L12.469 19.3267L8.46901 8.50067L8 8.67396L7.53099 8.84725L11.531 19.6733L12 19.5ZM8 8.67396L8.37988 8.99906L12.3799 4.3251L12 4L11.6201 3.6749L7.62012 8.34886L8 8.67396ZM12 4L11.6201 4.3251L15.6201 8.99906L16 8.67396L16.3799 8.34886L12.3799 3.6749L12 4Z" fill="#0B0B0C"></path>
<path d="M5 9L19 9" stroke="#0B0B0C" stroke-linecap="square"></path>
</svg>