<svg width="24" height="24" viewBox="0 0 24 24" fill="none" xmlns="http://www.w3.org/2000/svg">
<path fill-rule="evenodd" clip-rule="evenodd" d="M5.26777 9.98989C5.87712 6.80014 8.71087 4.49989 12 4.49989C15.2892 4.49989 18.1229 6.80013 18.7323 9.98989L19.3692 13.3237C19.8037 15.5982 19.1303 17.427 17.7148 18.6695C16.3232 19.8911 14.2695 20.4999 12 20.4999C9.73055 20.4999 7.67688 19.8911 6.28525 18.6695C4.86973 17.427 4.19637 15.5982 4.63089 13.3237L5.26777 9.98989ZM12 5.49989C9.17784 5.49989 6.76689 7.4718 6.25 10.1775L5.61313 13.5113C5.24016 15.4637 5.815 16.9261 6.94495 17.918C8.09879 18.9309 9.88787 19.4999 12 19.4999C14.1122 19.4999 15.9013 18.9309 17.0551 17.918C18.1851 16.9261 18.7599 15.4637 18.3869 13.5113L17.75 10.1775C17.2332 7.4718 14.8222 5.49989 12 5.49989Z" fill="#0B0B0C"></path>
<path fill-rule="evenodd" clip-rule="evenodd" d="M18.1286 5.33276C17.3835 4.47606 16.0715 4.24377 15.0361 4.80666C14.7761 4.94803 14.5555 5.12769 14.3774 5.33261L13.6226 4.67665C13.8794 4.38113 14.1941 4.12625 14.5585 3.92811C15.9933 3.14804 17.821 3.45524 18.8831 4.67651L20.6162 6.66912C22.1485 8.43099 21.6223 11.0598 19.5581 12.182C19.3353 12.3031 19.1055 12.4008 18.8719 12.4759L18.5659 11.5239C18.7408 11.4676 18.9131 11.3945 19.0805 11.3035C20.6071 10.4735 20.9564 8.58412 19.8616 7.32537L18.1286 5.33276Z" fill="#0B0B0C"></path>
<path fill-rule="evenodd" clip-rule="evenodd" d="M5.11815 4.66747C6.18067 3.45506 8.00683 3.15123 9.44014 3.92456C9.80446 4.12113 10.1192 4.3741 10.3762 4.66762L9.62387 5.32642C9.44599 5.12329 9.22546 4.94501 8.9653 4.80464C7.92842 4.24519 6.61495 4.47676 5.87021 5.32656L4.13717 7.30408C3.04552 8.54972 3.39154 10.4204 4.91816 11.244C5.14349 11.3656 5.37781 11.4552 5.61578 11.5149L5.37258 12.4849C5.05543 12.4054 4.74315 12.2859 4.44332 12.1241C2.37916 11.0104 1.84963 8.39707 3.3851 6.64499L5.11815 4.66747Z" fill="#0B0B0C"></path>
<path fill-rule="evenodd" clip-rule="evenodd" d="M12.982 16.8109C12.4183 17.2991 11.5817 17.299 11.018 16.8109L10.2362 16.1338C9.18631 15.2246 9.82932 13.4999 11.2182 13.4999L12.7819 13.4999C14.1707 13.4999 14.8137 15.2246 13.7639 16.1338L12.982 16.8109ZM11.6727 16.055C11.8606 16.2177 12.1395 16.2177 12.3274 16.055L13.1092 15.3779C13.4592 15.0748 13.2448 14.4999 12.7819 14.4999L11.2182 14.4999C10.7552 14.4999 10.5409 15.0748 10.8908 15.3779L11.6727 16.055Z" fill="#0B0B0C"></path>
<path d="M14 11.9999C14.5523 11.9999 15 11.5522 15 10.9999C15 10.4476 14.5523 9.99989 14 9.99989C13.4477 9.99989 13 10.4476 13 10.9999C13 11.5522 13.4477 11.9999 14 11.9999Z" fill="#0B0B0C"></path>
<path d="M10 11.9999C10.5523 11.9999 11 11.5522 11 10.9999C11 10.4476 10.5523 9.99989 10 9.99989C9.44774 9.99989 9.00003 10.4476 9.00003 10.9999C9.00003 11.5522 9.44774 11.9999 10 11.9999Z" fill="#0B0B0C"></path>
<path fill-rule="evenodd" clip-rule="evenodd" d="M11.5 19.9999V16.9999H12.5V19.9999H11.5Z" fill="#0B0B0C"></path>
</svg>