<svg width="24" height="24" viewBox="0 0 24 24" fill="none" xmlns="http://www.w3.org/2000/svg">
<path fill-rule="evenodd" clip-rule="evenodd" d="M2.92857 2.5H21.0714V17.3462H2.92857V2.5ZM3.92857 3.5V16.3462H20.0714V3.5H3.92857Z" fill="#0B0B0C"></path>
<path fill-rule="evenodd" clip-rule="evenodd" d="M22 3.5H2V2.5H22V3.5Z" fill="#0B0B0C"></path>
<path fill-rule="evenodd" clip-rule="evenodd" d="M22 17.3464H2V16.3464H22V17.3464Z" fill="#0B0B0C"></path>
<path fill-rule="evenodd" clip-rule="evenodd" d="M11.5 21.0002V16.8464H12.5V21.0002H11.5Z" fill="#0B0B0C"></path>
<path fill-rule="evenodd" clip-rule="evenodd" d="M14.5092 21.3592L11.652 18.59L12.348 17.8719L15.2051 20.6411L14.5092 21.3592Z" fill="#0B0B0C"></path>
<path fill-rule="evenodd" clip-rule="evenodd" d="M9.49084 21.3592L12.348 18.59L11.652 17.8719L8.79487 20.6411L9.49084 21.3592Z" fill="#0B0B0C"></path>
<path fill-rule="evenodd" clip-rule="evenodd" d="M7.7173 10.0033L8.42577 10.709L5.92577 13.2186L5.2173 12.5129L7.7173 10.0033Z" fill="#0B0B0C"></path>
<path fill-rule="evenodd" clip-rule="evenodd" d="M6.88314 11.5516C7.73457 12.0178 8.50711 11.8934 9.07233 11.3652C9.63953 10.8351 10.0737 9.825 10.0716 8.34653C8.60105 8.34475 7.59648 8.77999 7.06892 9.34879C6.54183 9.91708 6.41764 10.6951 6.88314 11.5516ZM6.33574 8.66876C7.1908 7.74686 8.69135 7.25036 10.5863 7.36225L11.0299 7.38845L11.0559 7.83213C11.1673 9.73278 10.6732 11.2378 9.75514 12.0958C8.80259 12.986 7.49054 13.0878 6.25829 12.3456L6.15121 12.2811L6.08708 12.1738C5.3487 10.9385 5.44969 9.62406 6.33574 8.66876Z" fill="#0B0B0C"></path>
<path fill-rule="evenodd" clip-rule="evenodd" d="M12.9285 7.34639H18.9285V8.34639H12.9285V7.34639Z" fill="#0B0B0C"></path>
<path fill-rule="evenodd" clip-rule="evenodd" d="M12.9285 9.4232H18.9285V10.4232H12.9285V9.4232Z" fill="#0B0B0C"></path>
<path fill-rule="evenodd" clip-rule="evenodd" d="M12.9285 11.5H18.9285V12.5H12.9285V11.5Z" fill="#0B0B0C"></path>
</svg>