<svg width="24" height="24" viewBox="0 0 24 24" fill="none" xmlns="http://www.w3.org/2000/svg">
<path fill-rule="evenodd" clip-rule="evenodd" d="M13.5001 4.5L10.5001 4.5V3.5L13.5001 3.5V4.5Z" fill="#0B0B0C"></path>
<path fill-rule="evenodd" clip-rule="evenodd" d="M15.0001 10.5L9.00006 10.5V9.5L15.0001 9.5V10.5Z" fill="#0B0B0C"></path>
<path fill-rule="evenodd" clip-rule="evenodd" d="M17.0001 16.5L7.00006 16.5V15.5L17.0001 15.5V16.5Z" fill="#0B0B0C"></path>
<path fill-rule="evenodd" clip-rule="evenodd" d="M11.5001 4V2L12.5001 2V4H11.5001Z" fill="#0B0B0C"></path>
<path fill-rule="evenodd" clip-rule="evenodd" d="M4.58692 21.7184C8.92612 15.3531 10.5001 9.26653 10.5001 4H11.5001C11.5001 9.25619 9.98964 15.2557 5.93345 21.5H8.5355C8.77812 19.8039 10.2368 18.5 12.0001 18.5C13.7633 18.5 15.222 19.8039 15.4646 21.5H18.0667C14.0105 15.2557 12.5001 9.25619 12.5001 4H13.5001C13.5001 9.26653 15.074 15.3531 19.4132 21.7184L19.946 22.5H14.5001V22C14.5001 20.6193 13.3808 19.5 12.0001 19.5C10.6193 19.5 9.50006 20.6193 9.50006 22V22.5H4.05408L4.58692 21.7184Z" fill="#0B0B0C"></path>
<path fill-rule="evenodd" clip-rule="evenodd" d="M11.1397 12.5H12.8604L14.1938 16.5H9.80634L11.1397 12.5ZM11.8604 13.5L11.1938 15.5H12.8063L12.1397 13.5H11.8604Z" fill="#0B0B0C"></path>
</svg>