<svg width="24" height="24" viewBox="0 0 24 24" fill="none" xmlns="http://www.w3.org/2000/svg">
<path fill-rule="evenodd" clip-rule="evenodd" d="M12 3.5C7.30558 3.5 3.5 7.30558 3.5 12C3.5 16.6944 7.30558 20.5 12 20.5C16.6944 20.5 20.5 16.6944 20.5 12C20.5 7.30558 16.6944 3.5 12 3.5ZM2.5 12C2.5 6.75329 6.75329 2.5 12 2.5C17.2467 2.5 21.5 6.75329 21.5 12C21.5 17.2467 17.2467 21.5 12 21.5C6.75329 21.5 2.5 17.2467 2.5 12Z" fill="#0B0B0C"></path>
<path d="M9 13C9.55228 13 10 12.5523 10 12C10 11.4477 9.55228 11 9 11C8.44772 11 8 11.4477 8 12C8 12.5523 8.44772 13 9 13Z" fill="#0B0B0C"></path>
<path d="M15 13C15.5523 13 16 12.5523 16 12C16 11.4477 15.5523 11 15 11C14.4477 11 14 11.4477 14 12C14 12.5523 14.4477 13 15 13Z" fill="#0B0B0C"></path>
<path fill-rule="evenodd" clip-rule="evenodd" d="M12 16.5C12.957 16.5 13.8976 16.1883 14.7043 15.5968L15.2957 16.4032C14.3236 17.116 13.1772 17.5 12 17.5C10.8228 17.5 9.67649 17.1161 8.70436 16.4034L9.29564 15.5969C10.1024 16.1884 11.043 16.5 12 16.5Z" fill="#0B0B0C"></path>
<path fill-rule="evenodd" clip-rule="evenodd" d="M9.77257 5.7979C10.0416 4.93318 10.576 3.79286 11.6345 2.65884L12.3655 3.34116C11.424 4.34999 10.9584 5.35253 10.7274 6.09496C10.6118 6.46676 10.5548 6.77369 10.5269 6.98349C10.5129 7.08833 10.5062 7.1687 10.5029 7.2205C10.5013 7.2464 10.5006 7.26512 10.5003 7.27617L10.5 7.28691C10.5 7.2867 10.5 7.28571 10 7.28571H10.5C10.5 7.5807 10.6361 7.88247 10.9112 8.11827C11.1887 8.35611 11.5794 8.5 12 8.5C12.4206 8.5 12.8113 8.35611 13.0888 8.11827C13.3639 7.88247 13.5 7.5807 13.5 7.28571H14.5C14.5 7.90004 14.2147 8.47034 13.7396 8.87753C13.2669 9.28267 12.6403 9.5 12 9.5C11.3597 9.5 10.7331 9.28267 10.2604 8.87753C9.78534 8.47034 9.5 7.90004 9.5 7.28571H10C9.5 7.28571 9.5 7.28596 9.5 7.28571L9.5 7.2847L9.5 7.28349L9.50002 7.28048L9.50012 7.2721L9.50071 7.24608C9.50136 7.22469 9.50258 7.19529 9.50487 7.1584C9.50946 7.08465 9.51836 6.98086 9.53564 6.85133C9.57016 6.59238 9.63824 6.22967 9.77257 5.7979ZM10.5 7.28691C10.5 7.28721 10.5 7.28704 10.5 7.28691Z" fill="#0B0B0C"></path>
</svg>