<svg width="24" height="24" viewBox="0 0 24 24" fill="none" xmlns="http://www.w3.org/2000/svg">
<path fill-rule="evenodd" clip-rule="evenodd" d="M17.96 11.5H9V10.5H17.96V11.5ZM18 14.5H13V13.5H18V14.5ZM18 17.5H13V16.5H18V17.5Z" fill="#0B0B0C"></path>
<path fill-rule="evenodd" clip-rule="evenodd" d="M7 17.5H2L2 16.5H7V17.5Z" fill="#0B0B0C"></path>
<path fill-rule="evenodd" clip-rule="evenodd" d="M7 19.5H2L2 18.5H7V19.5Z" fill="#0B0B0C"></path>
<path fill-rule="evenodd" clip-rule="evenodd" d="M7 14.5C5.067 14.5 3.5 16.067 3.5 18C3.5 19.933 5.067 21.5 7 21.5C7.63833 21.5 8.23534 21.3296 8.74964 21.0321L9.25036 21.8977C8.58796 22.2809 7.81882 22.5 7 22.5C4.51472 22.5 2.5 20.4853 2.5 18C2.5 15.5147 4.51472 13.5 7 13.5C7.81882 13.5 8.58796 13.7191 9.25036 14.1023L8.74964 14.9679C8.23534 14.6704 7.63833 14.5 7 14.5Z" fill="#0B0B0C"></path>
<path fill-rule="evenodd" clip-rule="evenodd" d="M4.5 1.5H16.2071L21.5 6.79289V21.5H13V20.5H20.5V7.20711L15.7929 2.5H5.5V12H4.5V1.5Z" fill="#0B0B0C"></path>
<path fill-rule="evenodd" clip-rule="evenodd" d="M16.5 6.5V2H15.5V7.5H21V6.5H16.5Z" fill="#0B0B0C"></path>
</svg>