<svg width="24" height="24" viewBox="0 0 24 24" fill="none" xmlns="http://www.w3.org/2000/svg">
<path fill-rule="evenodd" clip-rule="evenodd" d="M13 10.9L3 10.9L3 9.9L13 9.9V10.9Z" fill="#0B0B0C"></path>
<path fill-rule="evenodd" clip-rule="evenodd" d="M13 14.1L3 14.1L3 13.1L13 13.1V14.1Z" fill="#0B0B0C"></path>
<path fill-rule="evenodd" clip-rule="evenodd" d="M12.7778 4.5C8.72008 4.5 5.5 7.84221 5.5 12C5.5 16.1578 8.72008 19.5 12.7778 19.5C15.1231 19.5 17.2739 18.5644 18.6089 16.8885L19.3911 17.5115C17.8387 19.4605 15.3802 20.5 12.7778 20.5C8.13699 20.5 4.5 16.6788 4.5 12C4.5 7.32124 8.13699 3.5 12.7778 3.5C15.3802 3.5 17.8387 4.53953 19.3911 6.48847L18.6089 7.11153C17.2739 5.43558 15.1231 4.5 12.7778 4.5Z" fill="#0B0B0C"></path>
</svg>