<svg width="24" height="24" viewBox="0 0 24 24" fill="none" xmlns="http://www.w3.org/2000/svg">
<path d="M12 22L11.5519 21.0913L10.5499 20.9456L11.2749 20.2383L11.1038 19.2394L12 19.7109L12.8963 19.2394L12.7251 20.2382L13.4502 20.9455L12.4481 21.0913L12 22V22ZM7.78622 20.7446L7.33813 19.8358L6.33607 19.6901L7.06119 18.9828L6.89004 17.9839L7.78622 18.4555L8.6825 17.9839L8.5113 18.9828L9.23638 19.6901L8.23431 19.8358L7.78622 20.7445V20.7446ZM16.2138 20.7446L15.7657 19.8358L14.7637 19.6901L15.4887 18.9828L15.3176 17.9839L16.2139 18.4555L17.11 17.9839L16.9389 18.9828L17.6639 19.6901L16.6619 19.8358L16.2138 20.7445V20.7446ZM4.59373 17.5292L4.14564 16.6205L3.14358 16.4748L3.8687 15.7675L3.69755 14.7687L4.59373 15.2402L5.49001 14.7687L5.31881 15.7675L6.04388 16.4748L5.04182 16.6205L4.59373 17.5292V17.5292ZM19.4063 17.5292L18.9582 16.6205L17.9561 16.4748L18.6812 15.7675L18.51 14.7687L19.4063 15.2402L20.3025 14.7687L20.1313 15.7675L20.8564 16.4748L19.8543 16.6206L19.4063 17.5293L19.4063 17.5292ZM3.45015 13.309L3.00206 12.4004L2 12.2546L2.72512 11.5473L2.55397 10.5485L3.45015 11.02L4.34643 10.5485L4.17523 11.5474L4.90031 12.2546L3.89825 12.4004L3.45015 13.3091V13.309ZM20.5499 13.309L20.1018 12.4004L19.0997 12.2546L19.8248 11.5473L19.6537 10.5485L20.5499 11.02L21.4461 10.5485L21.2749 11.5474L22 12.2547L20.9979 12.4004L20.5499 13.3091V13.309ZM4.59373 9.02199L4.14564 8.11329L3.14358 7.96751L3.8687 7.26029L3.69755 6.26142L4.59373 6.73305L5.49001 6.26142L5.31881 7.26025L6.04388 7.96746L5.04182 8.11329L4.59373 9.02199V9.02199ZM19.4063 9.02199L18.9582 8.11329L17.9562 7.96746L18.6812 7.26025L18.5101 6.26137L19.4064 6.733L20.3025 6.26137L20.1313 7.2602L20.8564 7.96741L19.8544 8.11325L19.4063 9.02194V9.02199ZM7.78622 5.88668L7.33813 4.97799L6.33607 4.8322L7.06119 4.12489L6.89004 3.12606L7.78622 3.5977L8.6825 3.12606L8.5113 4.12489L9.23638 4.8322L8.23431 4.97799L7.78622 5.88668V5.88668ZM16.2138 5.88668L15.7657 4.97799L14.7636 4.8322L15.4887 4.12489L15.3175 3.12606L16.2138 3.5977L17.11 3.12606L16.9388 4.12489L17.6639 4.8322L16.6618 4.97799L16.2138 5.88668H16.2138ZM11.9916 4.76057L11.5435 3.85183L10.5415 3.70614L11.2666 2.99873L11.0955 2L11.1138 2.00968L11.1122 2L12 2.4672L12.8879 2L12.8862 2.00968L12.9046 2L12.7335 2.99873L13.4585 3.70614L12.4565 3.85183L12.0084 4.76057L12 4.74365L11.9916 4.76057H11.9916Z" fill="#0B0B0C"></path>
</svg>