<svg width="24" height="24" viewBox="0 0 24 24" fill="none" xmlns="http://www.w3.org/2000/svg">
<path d="M13.156 18.144C12.052 18.144 11.116 17.862 10.348 17.298C9.592 16.722 9.016 15.942 8.62 14.958C8.236 13.974 8.044 12.852 8.044 11.592C8.044 10.38 8.248 9.306 8.656 8.37C9.076 7.422 9.67 6.678 10.438 6.138C11.218 5.586 12.148 5.31 13.228 5.31C13.936 5.31 14.584 5.394 15.172 5.562C15.76 5.73 16.276 6 16.72 6.372L15.892 7.614C15.556 7.338 15.166 7.122 14.722 6.966C14.29 6.81 13.792 6.732 13.228 6.732C12.436 6.732 11.77 6.948 11.23 7.38C10.702 7.812 10.3 8.4 10.024 9.144C9.76 9.876 9.628 10.704 9.628 11.628C9.628 12.612 9.76 13.488 10.024 14.256C10.288 15.024 10.678 15.63 11.194 16.074C11.722 16.506 12.376 16.722 13.156 16.722C13.756 16.722 14.284 16.638 14.74 16.47C15.208 16.29 15.61 16.032 15.946 15.696L16.792 16.956C16.324 17.352 15.79 17.652 15.19 17.856C14.59 18.048 13.912 18.144 13.156 18.144ZM7.108 13.518V12.474H14.668L14.632 13.518H7.108ZM7.126 10.764V9.72H14.686L14.668 10.764H7.126Z" fill="#0B0B0C"></path>
</svg>