<svg width="24" height="24" viewBox="0 0 24 24" fill="none" xmlns="http://www.w3.org/2000/svg">
<path fill-rule="evenodd" clip-rule="evenodd" d="M2.64718 10.0909C3.38792 9.14305 4.53095 7.96012 6.13727 7.03173L6.63766 7.89753C5.17046 8.74551 4.11975 9.8306 3.43511 10.7067C3.09333 11.144 2.84461 11.5269 2.68249 11.7982C2.63647 11.8752 2.59748 11.9431 2.56537 12.0006C2.56777 12.0049 2.57022 12.0093 2.5727 12.0137C2.65879 12.1671 2.79117 12.3897 2.97248 12.6584C3.33554 13.1965 3.89212 13.9158 4.66253 14.6348C6.19956 16.0692 8.58288 17.5 12 17.5C13.5576 17.5 14.8964 17.2031 16.0363 16.7473L16.4076 17.6758C15.153 18.1775 13.6884 18.5 12 18.5C8.27419 18.5 5.65751 16.9312 3.98025 15.3659C3.14352 14.585 2.53939 13.8045 2.14351 13.2177C1.94536 12.924 1.79873 12.6779 1.70067 12.5032C1.65162 12.4158 1.61467 12.3462 1.58945 12.2973C1.57683 12.2729 1.56715 12.2536 1.56035 12.2399L1.5523 12.2235L1.54989 12.2185L1.54908 12.2168C1.54896 12.2165 1.54854 12.2157 1.99996 12.0007C1.54852 11.7857 1.5486 11.7856 1.54868 11.7854L1.54932 11.7841L1.55061 11.7814L1.55466 11.773L1.5687 11.7448C1.58072 11.7208 1.59807 11.687 1.62087 11.644C1.66646 11.5582 1.7339 11.4361 1.8241 11.2852C2.0044 10.9835 2.27627 10.5655 2.64718 10.0909ZM1.99996 12.0007L1.54868 11.7854L1.44617 12.0007L1.54854 12.2157L1.99996 12.0007Z" fill="#0B0B0C"></path>
<path fill-rule="evenodd" clip-rule="evenodd" d="M9.9928 10.6793C9.75323 11.0629 9.6147 11.5159 9.6147 12.0028C9.6147 13.385 10.7352 14.5056 12.1175 14.5056C12.585 14.5056 13.0212 14.3778 13.3947 14.1557L13.906 15.0151C13.3821 15.3267 12.7699 15.5056 12.1175 15.5056C10.1829 15.5056 8.6147 13.9373 8.6147 12.0028C8.6147 11.3232 8.80872 10.6874 9.14461 10.1496L9.9928 10.6793Z" fill="#0B0B0C"></path>
<path fill-rule="evenodd" clip-rule="evenodd" d="M8.8784 5.898C9.82024 5.64726 10.8594 5.50003 12 5.50003C15.7258 5.50003 18.3425 7.06925 20.0197 8.63485C20.8564 9.41588 21.4606 10.1966 21.8564 10.7835C22.0546 11.0772 22.2012 11.3234 22.2993 11.4982C22.3483 11.5856 22.3853 11.6552 22.4105 11.7041C22.4231 11.7285 22.4328 11.7478 22.4396 11.7615L22.4476 11.7779L22.4501 11.7829L22.4509 11.7846C22.451 11.7849 22.4514 11.7857 22 12.0007C22.4514 12.2157 22.4513 12.2158 22.4512 12.216L22.4507 12.2171L22.4496 12.2194L22.4462 12.2265L22.4344 12.2502C22.4244 12.2702 22.4101 12.2984 22.3913 12.3342C22.3536 12.4058 22.2981 12.5077 22.224 12.6345C22.076 12.8879 21.8533 13.2412 21.5506 13.6501C20.9459 14.4668 20.0162 15.5124 18.7161 16.4241L18.142 15.6053C19.3331 14.7701 20.1889 13.8086 20.7469 13.0551C21.0254 12.6788 21.2284 12.3562 21.3606 12.13C21.3884 12.0824 21.413 12.0392 21.4346 12.0007C21.4321 11.9963 21.4297 11.992 21.4272 11.9875C21.3411 11.8341 21.2087 11.6115 21.0274 11.3427C20.6644 10.8044 20.1078 10.085 19.3374 9.36587C17.8003 7.93114 15.417 6.50003 12 6.50003C10.9465 6.50003 9.99383 6.63588 9.13566 6.86434L8.8784 5.898ZM22 12.0007L22.4512 12.216L22.5538 12.0007L22.4514 11.7857L22 12.0007Z" fill="#0B0B0C"></path>
<path fill-rule="evenodd" clip-rule="evenodd" d="M12.1175 9.50001C11.9535 9.50001 11.7936 9.51573 11.6391 9.54558L11.4494 8.56376C11.666 8.52187 11.8894 8.50001 12.1175 8.50001C14.052 8.50001 15.6203 10.0683 15.6203 12.0028C15.6203 12.2643 15.5915 12.5197 15.5368 12.7658L14.5607 12.5488C14.5996 12.3735 14.6203 12.1908 14.6203 12.0028C14.6203 10.6205 13.4997 9.50001 12.1175 9.50001Z" fill="#0B0B0C"></path>
<path fill-rule="evenodd" clip-rule="evenodd" d="M17.917 19.3536L3.917 5.35359L4.62411 4.64648L18.6241 18.6465L17.917 19.3536Z" fill="#0B0B0C"></path>
</svg>