<svg width="24" height="24" viewBox="0 0 24 24" fill="none" xmlns="http://www.w3.org/2000/svg">
<path fill-rule="evenodd" clip-rule="evenodd" d="M3.98021 8.63482C5.65746 7.06922 8.27415 5.5 12 5.5C15.7258 5.5 18.3425 7.06922 20.0197 8.63482C20.8564 9.41585 21.4606 10.1966 21.8564 10.7834C22.0546 11.0772 22.2012 11.3234 22.2993 11.4981C22.3483 11.5855 22.3853 11.6552 22.4105 11.704C22.4231 11.7285 22.4328 11.7478 22.4396 11.7615L22.4476 11.7779L22.4501 11.7829L22.4509 11.7846C22.451 11.7848 22.4514 11.7857 22 12.0007C22.4514 12.2156 22.4513 12.2159 22.4511 12.2161L22.45 12.2185L22.4476 12.2234L22.4396 12.2398C22.4328 12.2536 22.4231 12.2728 22.4105 12.2973C22.3853 12.3462 22.3483 12.4158 22.2993 12.5032C22.2012 12.6779 22.0546 12.924 21.8564 13.2177C21.4605 13.8045 20.8564 14.585 20.0197 15.3659C18.3424 16.9311 15.7257 18.5 12 18.5C8.27419 18.5 5.65751 16.9311 3.98025 15.3659C3.14352 14.585 2.53939 13.8045 2.14351 13.2177C1.94536 12.924 1.79873 12.6779 1.70067 12.5032C1.65162 12.4158 1.61467 12.3462 1.58945 12.2973C1.57683 12.2728 1.56715 12.2536 1.56035 12.2398L1.5523 12.2234L1.54989 12.2185L1.54908 12.2168C1.54896 12.2165 1.54854 12.2156 1.99996 12.0007C1.54852 11.7857 1.54864 11.7855 1.54876 11.7852L1.54987 11.7829L1.55228 11.7779L1.56033 11.7615C1.56713 11.7478 1.57681 11.7285 1.58943 11.704C1.61465 11.6552 1.6516 11.5855 1.70064 11.4981C1.7987 11.3234 1.94533 11.0772 2.14348 10.7834C2.53936 10.1966 3.14348 9.41585 3.98021 8.63482ZM1.99996 12.0007L1.54876 11.7852L1.44617 12.0007L1.54854 12.2156L1.99996 12.0007ZM2.56537 12.0006C2.56777 12.0049 2.57022 12.0093 2.5727 12.0137C2.65879 12.1671 2.79117 12.3897 2.97248 12.6584C3.33554 13.1965 3.89212 13.9158 4.66253 14.6348C6.19956 16.0692 8.58288 17.5 12 17.5C15.417 17.5 17.8004 16.0692 19.3374 14.6348C20.1078 13.9158 20.6644 13.1965 21.0274 12.6584C21.2087 12.3897 21.3411 12.1671 21.4272 12.0137C21.4297 12.0093 21.4321 12.0049 21.4346 12.0006C21.4321 11.9963 21.4297 11.9919 21.4272 11.9875C21.3411 11.8341 21.2087 11.6114 21.0274 11.3427C20.6644 10.8044 20.1078 10.085 19.3374 9.36583C17.8003 7.93111 15.417 6.5 12 6.5C8.58292 6.5 6.19961 7.93111 4.66257 9.36583C3.89216 10.085 3.33557 10.8044 2.97251 11.3427C2.7912 11.6114 2.65881 11.8341 2.57272 11.9875C2.57023 11.9919 2.56778 11.9963 2.56537 12.0006ZM22 12.0007L22.4511 12.2161L22.5538 12.0007L22.4514 11.7857L22 12.0007ZM21.5488 11.7851C21.5489 11.785 21.5489 11.785 21.5488 11.7851Z" fill="#0B0B0C"></path>
<path fill-rule="evenodd" clip-rule="evenodd" d="M12 9.5C10.6192 9.5 9.49996 10.6193 9.49996 12C9.49996 13.3807 10.6192 14.5 12 14.5C13.3807 14.5 14.5 13.3807 14.5 12C14.5 10.6193 13.3807 9.5 12 9.5ZM8.49996 12C8.49996 10.067 10.067 8.5 12 8.5C13.933 8.5 15.5 10.067 15.5 12C15.5 13.933 13.933 15.5 12 15.5C10.067 15.5 8.49996 13.933 8.49996 12Z" fill="#0B0B0C"></path>
</svg>