<svg width="24" height="24" viewBox="0 0 24 24" fill="none" xmlns="http://www.w3.org/2000/svg">
<path fill-rule="evenodd" clip-rule="evenodd" d="M4.00147 3.50005C4.66174 3.49597 5.29559 3.75311 5.76226 4.21742L10.1902 8.62513C10.2683 8.0939 10.5175 7.59783 10.9034 7.21383C11.3719 6.74773 12.0053 6.48313 12.6653 6.47905C13.0823 6.47647 13.4888 6.57812 13.8493 6.77036C13.9036 6.19038 14.1609 5.64421 14.5782 5.22905C15.0467 4.76294 15.6801 4.49835 16.3401 4.49427C17.0003 4.49019 17.6342 4.74733 18.1008 5.21164L20.0535 7.15444C20.8361 7.93301 21.4549 8.85925 21.8746 9.88021C22.2944 10.9012 22.5067 11.9966 22.4998 13.1037C22.4929 14.2109 22.2669 15.308 21.8351 16.3326C21.4032 17.3571 20.774 18.2891 19.9835 19.0756C18.337 20.7139 16.6615 21.4891 14.461 21.4999C12.3162 21.5104 9.69629 20.793 6.1492 19.5552C5.51926 19.3846 4.98303 18.9732 4.65801 18.4081C4.3295 17.8369 4.245 17.1578 4.42069 16.5209C4.59631 15.8844 5.01745 15.3417 5.59041 15.0108C6.1634 14.6799 6.84357 14.5865 7.48202 14.7536L9.588 15.3046C9.62108 15.3133 9.6367 15.3076 9.64475 15.3039C9.65709 15.2983 9.67325 15.2854 9.68573 15.2636C9.69822 15.2417 9.70108 15.2213 9.69972 15.2078C9.69883 15.199 9.69579 15.1826 9.67154 15.1585L2.22212 7.7468C1.75536 7.2824 1.49593 6.65054 1.50005 5.9913C1.50416 5.33237 1.77107 4.70101 2.23962 4.23483C2.7081 3.76872 3.34149 3.50413 4.00147 3.50005ZM15.8772 8.64334L15.8794 8.64555L15.1741 9.35445L13.7208 7.90532C13.4449 7.63091 13.0678 7.47658 12.6715 7.47903C12.2747 7.48148 11.8921 7.6408 11.6087 7.92273C11.3254 8.20459 11.1663 8.58412 11.1638 8.97654C11.1638 8.97654 11.1638 8.97812 11.1642 8.98202C11.1645 8.98591 11.1651 8.99149 11.1663 8.99887C11.1688 9.0139 11.1731 9.03409 11.1804 9.05982C11.1952 9.11204 11.2193 9.17722 11.2542 9.25459C11.3242 9.40997 11.4259 9.58941 11.5451 9.77413C11.7861 10.1474 12.0655 10.4918 12.2192 10.6449L12.22 10.6456L11.5146 11.3544L5.05695 4.92632C4.78106 4.65187 4.40405 4.49758 4.00765 4.50003C3.61093 4.50248 3.2283 4.6618 2.94493 4.94373C2.66164 5.22558 2.50248 5.60512 2.50003 5.99754C2.49758 6.38965 2.65163 6.7635 2.92743 7.0379L10.3769 14.4496C11.164 15.2328 10.409 16.5532 9.33484 16.2721L7.22891 15.721C6.84727 15.6211 6.43752 15.6764 6.09055 15.8768C5.74353 16.0772 5.49001 16.4051 5.38468 16.7869C5.27943 17.1684 5.33072 17.5719 5.52487 17.9095C5.719 18.2471 6.0414 18.4934 6.42273 18.5932L6.44209 18.5982L6.46099 18.6048C10.0239 19.8488 12.4999 20.5095 14.4561 20.4999C16.36 20.4906 17.7923 19.8451 19.2782 18.3667C19.9768 17.6717 20.5325 16.8484 20.9136 15.9442C21.2947 15.04 21.4937 14.0726 21.4998 13.0975C21.5059 12.1223 21.3189 11.1584 20.9498 10.2605C20.5806 9.36257 20.0364 8.54805 19.3482 7.86334L17.3955 5.92054C17.1196 5.64604 16.7427 5.4918 16.3462 5.49425C15.9495 5.4967 15.5669 5.65601 15.2835 5.93795C15.0002 6.2198 14.8411 6.59934 14.8386 6.99176C14.8385 7.01365 14.8528 7.10211 14.9273 7.26905C14.9959 7.4228 15.0957 7.60016 15.213 7.78276C15.4492 8.15056 15.7235 8.48976 15.8772 8.64334Z" fill="#0B0B0C"></path>
</svg>