<svg width="24" height="24" viewBox="0 0 24 24" fill="none" xmlns="http://www.w3.org/2000/svg">
<path fill-rule="evenodd" clip-rule="evenodd" d="M9.47464 3.5H14.5253V5.97687C15.0491 6.22652 15.5194 6.52114 15.9629 6.81077L18.1544 5.51233L20.6806 9.8779L18.5336 11.15C18.5759 11.4434 18.5759 11.7036 18.5759 11.984V12.016C18.5759 12.2964 18.5759 12.5566 18.5336 12.85L20.6806 14.1221L18.1544 18.4877L15.9912 17.206C15.5402 17.553 15.0624 17.8555 14.5253 18.0605V20.5H9.47464V18.0231C8.95082 17.7735 8.48051 17.4789 8.03699 17.1892L5.84553 18.4877L3.31934 14.1221L5.46635 12.85C5.42398 12.5566 5.424 12.2964 5.42401 12.016V11.984C5.424 11.7036 5.42398 11.4434 5.46635 11.15L3.31934 9.8779L5.84553 5.51233L8.03699 6.81077C8.48051 6.52114 8.95082 6.22652 9.47464 5.97687V3.5ZM10.4746 4.5V6.63133L10.1695 6.76046C9.50904 7.03999 8.93799 7.41442 8.32553 7.81762L8.06454 7.98944L6.20502 6.88767L4.68059 9.5221L6.60172 10.6604L6.50999 11.0227C6.42563 11.3559 6.42401 11.5994 6.42401 12C6.42401 12.4006 6.42563 12.6441 6.50999 12.9773L6.60172 13.3396L4.68059 14.4779L6.20502 17.1123L8.06454 16.0106L8.32553 16.1824C8.93799 16.5856 9.50903 16.96 10.1695 17.2395L10.4746 17.3687V19.5H13.5253V17.3216L13.8895 17.2188C14.5014 17.0461 15.046 16.6959 15.6316 16.2139L15.9024 15.991L17.7949 17.1123L19.3193 14.4779L17.3982 13.3396L17.4899 12.9773C17.5743 12.6441 17.5759 12.4006 17.5759 12C17.5759 11.5994 17.5743 11.3559 17.4899 11.0227L17.3982 10.6604L19.3193 9.5221L17.7949 6.88767L15.9354 7.98944L15.6744 7.81762C15.0619 7.41442 14.4909 7.03999 13.8304 6.76046L13.5253 6.63133V4.5H10.4746ZM12 9.7C10.7297 9.7 9.69996 10.7297 9.69996 12C9.69996 13.2703 10.7297 14.3 12 14.3C13.2702 14.3 14.3 13.2703 14.3 12C14.3 10.7297 13.2702 9.7 12 9.7ZM8.69996 12C8.69996 10.1775 10.1774 8.7 12 8.7C13.8225 8.7 15.3 10.1775 15.3 12C15.3 13.8225 13.8225 15.3 12 15.3C10.1774 15.3 8.69996 13.8225 8.69996 12Z" fill="#0B0B0C"></path>
</svg>