<svg width="24" height="24" viewBox="0 0 24 24" fill="none" xmlns="http://www.w3.org/2000/svg">
<path fill-rule="evenodd" clip-rule="evenodd" d="M17 8.49996C15.067 8.49996 13.5 10.067 13.5 12C13.5 13.933 15.067 15.5 17 15.5C18.933 15.5 20.5 13.933 20.5 12C20.5 10.067 18.933 8.49996 17 8.49996ZM12.5 12C12.5 9.51468 14.5147 7.49996 17 7.49996C19.4852 7.49996 21.5 9.51468 21.5 12C21.5 14.4852 19.4852 16.5 17 16.5C14.5147 16.5 12.5 14.4852 12.5 12Z" fill="#0B0B0C"></path>
<path fill-rule="evenodd" clip-rule="evenodd" d="M16.5 21V16H17.5V21H16.5Z" fill="#0B0B0C"></path>
<path fill-rule="evenodd" clip-rule="evenodd" d="M19 19.5H15V18.5L19 18.5V19.5Z" fill="#0B0B0C"></path>
<path fill-rule="evenodd" clip-rule="evenodd" d="M7 7C5.067 7 3.5 8.567 3.5 10.5C3.5 12.433 5.067 14 7 14C8.933 14 10.5 12.433 10.5 10.5C10.5 8.567 8.933 7 7 7ZM2.5 10.5C2.5 8.01472 4.51472 6 7 6C9.48528 6 11.5 8.01472 11.5 10.5C11.5 12.9853 9.48528 15 7 15C4.51472 15 2.5 12.9853 2.5 10.5Z" fill="#0B0B0C"></path>
<path fill-rule="evenodd" clip-rule="evenodd" d="M13.3459 3.639C13.5453 3.83007 13.5521 4.14658 13.361 4.34595L10.3611 7.47638C10.17 7.67576 9.85348 7.6825 9.65411 7.49143C9.45474 7.30037 9.448 6.98386 9.63906 6.78449L12.639 3.65405C12.8301 3.45468 13.1466 3.44794 13.3459 3.639Z" fill="#0B0B0C"></path>
<path fill-rule="evenodd" clip-rule="evenodd" d="M12.5 4.5L10 4.5V3.5L13.5 3.5V7H12.5V4.5Z" fill="#0B0B0C"></path>
</svg>