<svg width="24" height="24" viewBox="0 0 24 24" fill="none" xmlns="http://www.w3.org/2000/svg">
<path d="M11.5 4.5C11.5 3.39543 10.6046 2.5 9.5 2.5C8.39543 2.5 7.5 3.39543 7.5 4.5V5.5H11.5V4.5ZM12.5 19.5H20.5V11.5H12.5V19.5ZM3.5 19.5H11.5V11.5H3.5V19.5ZM12.5 10.5H21.5V6.5H12.5V10.5ZM2.5 10.5H11.5V6.5H2.5V10.5ZM12.5 5.5H16.5V4.5C16.5 3.39543 15.6046 2.5 14.5 2.5C13.3954 2.5 12.5 3.39543 12.5 4.5V5.5ZM17.5 5.5H22.5V11.5H21.5V20.5H2.5V11.5H1.5V5.5H6.5V4.5C6.5 2.84315 7.84315 1.5 9.5 1.5C10.544 1.5 11.4626 2.03378 12 2.84277C12.5374 2.03378 13.456 1.5 14.5 1.5C16.1569 1.5 17.5 2.84315 17.5 4.5V5.5Z" fill="#0B0B0C"></path>
</svg>