<svg width="24" height="24" viewBox="0 0 24 24" fill="none" xmlns="http://www.w3.org/2000/svg">
<path fill-rule="evenodd" clip-rule="evenodd" d="M12 3.5C7.30558 3.5 3.5 7.30558 3.5 12C3.5 16.6944 7.30558 20.5 12 20.5C16.6944 20.5 20.5 16.6944 20.5 12C20.5 7.30558 16.6944 3.5 12 3.5ZM2.5 12C2.5 6.75329 6.75329 2.5 12 2.5C17.2467 2.5 21.5 6.75329 21.5 12C21.5 17.2467 17.2467 21.5 12 21.5C6.75329 21.5 2.5 17.2467 2.5 12Z" fill="#0B0B0C"></path>
<path fill-rule="evenodd" clip-rule="evenodd" d="M9.91865 5.82173C9.29618 7.37791 8.9 9.56204 8.9 12C8.9 14.438 9.29618 16.6221 9.91865 18.1783C10.2304 18.9577 10.5892 19.555 10.962 19.9492C11.3338 20.3423 11.6847 20.5 12 20.5C12.3153 20.5 12.6662 20.3423 13.038 19.9492C13.4108 19.555 13.7696 18.9577 14.0813 18.1783C14.7038 16.6221 15.1 14.438 15.1 12C15.1 9.56204 14.7038 7.37791 14.0813 5.82173C13.7696 5.04226 13.4108 4.44501 13.038 4.05082C12.6662 3.65768 12.3153 3.5 12 3.5C11.6847 3.5 11.3338 3.65768 10.962 4.05082C10.5892 4.44501 10.2304 5.04226 9.91865 5.82173ZM10.2354 3.36371C10.725 2.846 11.3212 2.5 12 2.5C12.6788 2.5 13.275 2.846 13.7646 3.36371C14.2532 3.88036 14.6701 4.60114 15.0098 5.45034C15.6903 7.15152 16.1 9.46739 16.1 12C16.1 14.5326 15.6903 16.8485 15.0098 18.5497C14.6701 19.3989 14.2532 20.1196 13.7646 20.6363C13.275 21.154 12.6788 21.5 12 21.5C11.3212 21.5 10.725 21.154 10.2354 20.6363C9.74684 20.1196 9.32986 19.3989 8.99018 18.5497C8.30971 16.8485 7.9 14.5326 7.9 12C7.9 9.46739 8.30971 7.15152 8.99018 5.45034C9.32986 4.60114 9.74684 3.88036 10.2354 3.36371Z" fill="#0B0B0C"></path>
<path fill-rule="evenodd" clip-rule="evenodd" d="M3.5 8.5H20.5V9.5H3.5V8.5Z" fill="#0B0B0C"></path>
<path fill-rule="evenodd" clip-rule="evenodd" d="M3.5 14.5L20.5 14.5V15.5L3.5 15.5L3.5 14.5Z" fill="#0B0B0C"></path>
</svg>