<svg width="24" height="24" viewBox="0 0 24 24" fill="none" xmlns="http://www.w3.org/2000/svg">
<path fill-rule="evenodd" clip-rule="evenodd" d="M2.5 2.5H7.5V7.5H2.5V2.5ZM3.5 3.5V6.5H6.5V3.5H3.5Z" fill="#0B0B0C"></path>
<path fill-rule="evenodd" clip-rule="evenodd" d="M2.5 9.5H7.5V14.5H2.5V9.5ZM3.5 10.5V13.5H6.5V10.5H3.5Z" fill="#0B0B0C"></path>
<path fill-rule="evenodd" clip-rule="evenodd" d="M2.5 16.5H7.5V21.5H2.5V16.5ZM3.5 17.5V20.5H6.5V17.5H3.5Z" fill="#0B0B0C"></path>
<path fill-rule="evenodd" clip-rule="evenodd" d="M9.5 2.5H14.5V7.5H9.5V2.5ZM10.5 3.5V6.5H13.5V3.5H10.5Z" fill="#0B0B0C"></path>
<path fill-rule="evenodd" clip-rule="evenodd" d="M9.5 9.5H14.5V14.5H9.5V9.5ZM10.5 10.5V13.5H13.5V10.5H10.5Z" fill="#0B0B0C"></path>
<path fill-rule="evenodd" clip-rule="evenodd" d="M9.5 16.5H14.5V21.5H9.5V16.5ZM10.5 17.5V20.5H13.5V17.5H10.5Z" fill="#0B0B0C"></path>
<path fill-rule="evenodd" clip-rule="evenodd" d="M16.5 2.5H21.5V7.5H16.5V2.5ZM17.5 3.5V6.5H20.5V3.5H17.5Z" fill="#0B0B0C"></path>
<path fill-rule="evenodd" clip-rule="evenodd" d="M16.5 9.5H21.5V14.5H16.5V9.5ZM17.5 10.5V13.5H20.5V10.5H17.5Z" fill="#0B0B0C"></path>
<path fill-rule="evenodd" clip-rule="evenodd" d="M16.5 16.5H21.5V21.5H16.5V16.5ZM17.5 17.5V20.5H20.5V17.5H17.5Z" fill="#0B0B0C"></path>
</svg>