<svg width="24" height="24" viewBox="0 0 24 24" fill="none" xmlns="http://www.w3.org/2000/svg">
<path fill-rule="evenodd" clip-rule="evenodd" d="M9.5 13V8H10.5V12.5H16C16.2045 12.5 16.3883 12.6245 16.4642 12.8143L18.2624 17.3098L19.7764 16.5528L20.2236 17.4472L18.2236 18.4472C18.0985 18.5097 17.953 18.5171 17.8223 18.4674C17.6916 18.4177 17.5877 18.3155 17.5358 18.1857L15.6615 13.5H10C9.72386 13.5 9.5 13.2761 9.5 13Z" fill="#0B0B0C"></path>
<path fill-rule="evenodd" clip-rule="evenodd" d="M10 4.5C9.17157 4.5 8.5 5.17157 8.5 6C8.5 6.82843 9.17157 7.5 10 7.5C10.8284 7.5 11.5 6.82843 11.5 6C11.5 5.17157 10.8284 4.5 10 4.5ZM7.5 6C7.5 4.61929 8.61929 3.5 10 3.5C11.3807 3.5 12.5 4.61929 12.5 6C12.5 7.38071 11.3807 8.5 10 8.5C8.61929 8.5 7.5 7.38071 7.5 6Z" fill="#0B0B0C"></path>
<path fill-rule="evenodd" clip-rule="evenodd" d="M6.11205 11.1645C7.08201 10.2007 8.01071 9.5 9.53558 9.5H15V10.5H9.53558C8.40829 10.5 7.72228 10.9742 6.81688 11.8738C5.97332 12.712 5.5 13.8481 5.5 15.032C5.5 16.216 5.97332 17.3521 6.81688 18.1902C7.66055 19.0285 8.80549 19.5 10 19.5C12.1169 19.5 14.0221 18.0563 14.516 16.1487L15.484 16.3993C14.8685 18.7766 12.5425 20.5 10 20.5C8.54234 20.5 7.14374 19.9247 6.11205 18.8996C5.08025 17.8744 4.5 16.4833 4.5 15.032C4.5 13.5808 5.08025 12.1897 6.11205 11.1645Z" fill="#0B0B0C"></path>
</svg>