<svg width="24" height="24" viewBox="0 0 24 24" fill="none" xmlns="http://www.w3.org/2000/svg">
<path fill-rule="evenodd" clip-rule="evenodd" d="M12 4.5C8.95748 4.5 6.5 6.93937 6.5 9.9375V11H5.5V9.9375C5.5 6.37724 8.4151 3.5 12 3.5C15.5849 3.5 18.5 6.37724 18.5 9.9375V11H17.5V9.9375C17.5 6.93937 15.0425 4.5 12 4.5ZM17.5 18.5V16H18.5V19.5H13V18.5H17.5Z" fill="#0B0B0C"></path>
<path fill-rule="evenodd" clip-rule="evenodd" d="M4 10.5H8V16.5H4V10.5ZM5 11.5V15.5H7V11.5H5Z" fill="#0B0B0C"></path>
<path fill-rule="evenodd" clip-rule="evenodd" d="M10.5 19C10.5 18.1716 11.1716 17.5 12 17.5C12.8284 17.5 13.5 18.1716 13.5 19C13.5 19.8284 12.8284 20.5 12 20.5C11.1716 20.5 10.5 19.8284 10.5 19ZM12 18.5C11.7239 18.5 11.5 18.7239 11.5 19C11.5 19.2761 11.7239 19.5 12 19.5C12.2761 19.5 12.5 19.2761 12.5 19C12.5 18.7239 12.2761 18.5 12 18.5Z" fill="#0B0B0C"></path>
<path fill-rule="evenodd" clip-rule="evenodd" d="M16 10.5H20V16.5H16V10.5ZM17 11.5V15.5H19V11.5H17Z" fill="#0B0B0C"></path>
</svg>