<svg width="24" height="24" viewBox="0 0 24 24" fill="none" xmlns="http://www.w3.org/2000/svg">
<path d="M12 20C12 20 3 14.9091 3 8.90909C3 7.60712 3.49234 6.35847 4.36871 5.43784C5.24508 4.51721 6.4337 4 7.67308 4C9.62798 4 11.3025 5.11909 12 6.90909C12.6975 5.11909 14.372 4 16.3269 4C17.5663 4 18.7549 4.51721 19.6313 5.43784C20.5077 6.35847 21 7.60712 21 8.90909C21 14.9091 12 20 12 20Z" fill="#A40104"></path>
<path fill-rule="evenodd" clip-rule="evenodd" d="M7.67308 4.5C6.57448 4.5 5.51558 4.95823 4.73086 5.78258C3.94535 6.60777 3.5 7.732 3.5 8.90909C3.5 11.677 5.59559 14.3202 7.83427 16.3327C8.93757 17.3246 10.0432 18.1344 10.874 18.6967C11.2889 18.9775 11.6341 19.1958 11.8747 19.3433C11.9203 19.3713 11.9622 19.3967 12 19.4195C12.0378 19.3967 12.0797 19.3713 12.1253 19.3433C12.3659 19.1958 12.7111 18.9775 13.126 18.6967C13.9568 18.1344 15.0624 17.3246 16.1657 16.3327C18.4044 14.3202 20.5 11.677 20.5 8.90909C20.5 7.732 20.0547 6.60777 19.2691 5.78258C18.4844 4.95823 17.4255 4.5 16.3269 4.5C14.5712 4.5 13.0861 5.49899 12.4659 7.09063L12 8.28622L11.5341 7.09063C10.9139 5.49899 9.42879 4.5 7.67308 4.5ZM12 20C11.7538 20.4352 11.7537 20.4351 11.7535 20.435L11.7456 20.4305L11.7245 20.4184C11.7063 20.4079 11.6798 20.3925 11.6455 20.3724C11.5771 20.3322 11.4777 20.2729 11.3519 20.1958C11.1002 20.0414 10.7423 19.8151 10.3135 19.5249C9.45684 18.9451 8.31243 18.1073 7.16573 17.0764C4.90441 15.0435 2.5 12.1412 2.5 8.90909C2.5 7.48224 3.03933 6.10918 4.00656 5.0931C4.97459 4.07618 6.29292 3.5 7.67308 3.5C9.47369 3.5 11.0715 4.36586 12 5.81138C12.9285 4.36586 14.5263 3.5 16.3269 3.5C17.7071 3.5 19.0254 4.07618 19.9934 5.0931C20.9607 6.10918 21.5 7.48224 21.5 8.90909C21.5 12.1412 19.0956 15.0435 16.8343 17.0764C15.6876 18.1073 14.5432 18.9451 13.6865 19.5249C13.2577 19.8151 12.8998 20.0414 12.6481 20.1958C12.5223 20.2729 12.4229 20.3322 12.3545 20.3724C12.3202 20.3925 12.2937 20.4079 12.2755 20.4184L12.2544 20.4305L12.247 20.4347C12.2468 20.4348 12.2462 20.4352 12 20ZM12 20L12.247 20.4347L12 20.5744L11.7535 20.435L12 20Z" fill="#A40104"></path>
</svg>