<svg width="24" height="24" viewBox="0 0 24 24" fill="none" xmlns="http://www.w3.org/2000/svg">
<path fill-rule="evenodd" clip-rule="evenodd" d="M12 1.33105L22.3321 10.5126L21.6678 11.2601L20.5 10.2222V19.4999H14.3077V18.4999H19.5V9.33361L12 2.66884L4.49998 9.33361V18.4999H9.69228V19.4999H3.49998V10.2223L2.33211 11.2601L1.66785 10.5126L12 1.33105Z" fill="#0B0B0C"></path>
<path fill-rule="evenodd" clip-rule="evenodd" d="M9.42467 9.49997C9.4058 9.50038 9.38026 9.50554 9.34793 9.52721C8.21745 10.2851 7.49998 11.5026 7.49998 12.8608C7.49998 14.5535 8.61819 16.0339 10.2569 16.6662L10.6502 16.818L9.99015 20.0986L9.0098 19.9013L9.50675 17.4315C7.73728 16.5911 6.49998 14.8725 6.49998 12.8608C6.49998 11.1345 7.41375 9.61996 8.79108 8.6966C9.59528 8.15746 10.5737 8.78363 10.5746 9.65748L10.5765 12.7233V12.7233C10.5766 12.7719 10.6003 12.8308 10.6627 12.877L11.8169 13.7314C11.9211 13.8085 12.0788 13.8085 12.183 13.7314L13.3372 12.877C13.3997 12.8308 13.4234 12.7719 13.4234 12.7233L13.4253 9.6577C13.4262 8.78385 14.4047 8.15747 15.2089 8.6966C16.5862 9.61996 17.5 11.1345 17.5 12.8608C17.5 14.8725 16.2627 16.5911 14.4932 17.4315L14.9902 19.9013L14.0098 20.0986L13.3497 16.818L13.7431 16.6662C15.3818 16.0339 16.5 14.5535 16.5 12.8608C16.5 11.5026 15.7825 10.2851 14.652 9.52721C14.6197 9.50554 14.5942 9.50038 14.5753 9.49997C14.5544 9.49953 14.5307 9.5049 14.5069 9.5183C14.4579 9.54593 14.4254 9.59651 14.4253 9.65853L14.4234 12.7241C14.423 13.1074 14.2343 13.4572 13.9322 13.6808L12.778 14.5352C12.3203 14.8739 11.6796 14.8739 11.222 14.5352L10.0678 13.6808C9.7657 13.4572 9.57694 13.1077 9.57654 12.7243L9.57464 9.65853V9.65853C9.57453 9.59657 9.54203 9.54592 9.49304 9.5183C9.46926 9.5049 9.44556 9.49953 9.42467 9.49997Z" fill="#0B0B0C"></path>
</svg>