<svg width="24" height="24" viewBox="0 0 24 24" fill="none" xmlns="http://www.w3.org/2000/svg">
<path fill-rule="evenodd" clip-rule="evenodd" d="M3.53468 12.2877C3.77809 10.6827 5.27107 9.5 7 9.5H9.00722C10.2569 9.5 11.3832 10.1192 12.0015 11.0694C12.1668 10.7958 12.3629 10.5471 12.5741 10.3349L13.283 11.0401C12.822 11.5035 12.5 12.1546 12.5 12.75V16.8333H17.5V14.5833C17.5 13.1867 18.6453 12.25 20 12.25C21.3547 12.25 22.5 13.1867 22.5 14.5833C22.5 15.8056 21.6228 16.6756 20.4958 16.8738L20.4532 21.5H3.5V17.0864C2.32782 16.8399 1.5 15.7472 1.5 14.5833C1.5 13.3501 2.39301 12.4754 3.53468 12.2877ZM4.55169 12.2966C4.99812 12.3741 5.40895 12.5487 5.74132 12.8232C6.21626 13.2153 6.5 13.7878 6.5 14.4726V16.8333H11.5V12.75C11.5 12.7478 11.5 12.7456 11.5 12.7434C11.5 11.5445 10.4258 10.5 9.00722 10.5H7C5.76001 10.5 4.78223 11.2958 4.55169 12.2966ZM6.5 17.8333V18.5H5.5V14.4726C5.5 14.0838 5.34768 13.795 5.10459 13.5942C4.85226 13.3859 4.47202 13.25 4 13.25C3.09895 13.25 2.5 13.8327 2.5 14.5833C2.5 15.4073 3.17401 16.1381 4 16.1381H4.5V20.5H19.4624L19.5046 15.9167H20C20.9011 15.9167 21.5 15.334 21.5 14.5833C21.5 13.8327 20.9011 13.25 20 13.25C19.0989 13.25 18.5 13.8327 18.5 14.5833V18.5H17.5V17.8333H6.5Z" fill="#0B0B0C"></path>
<path fill-rule="evenodd" clip-rule="evenodd" d="M18.5 4.5C16.8431 4.5 15.5 5.84315 15.5 7.5C15.5 9.15685 16.8431 10.5 18.5 10.5C20.1569 10.5 21.5 9.15685 21.5 7.5C21.5 5.84315 20.1569 4.5 18.5 4.5ZM14.5 7.5C14.5 5.29086 16.2909 3.5 18.5 3.5C20.7091 3.5 22.5 5.29086 22.5 7.5C22.5 9.70914 20.7091 11.5 18.5 11.5C16.2909 11.5 14.5 9.70914 14.5 7.5Z" fill="#0B0B0C"></path>
<path d="M19 6C19 6.27614 18.7761 6.5 18.5 6.5C18.2239 6.5 18 6.27614 18 6C18 5.72386 18.2239 5.5 18.5 5.5C18.7761 5.5 19 5.72386 19 6Z" fill="#0B0B0C"></path>
<path fill-rule="evenodd" clip-rule="evenodd" d="M19 7.5V9.5H18V7.5H19Z" fill="#0B0B0C"></path>
</svg>