<svg width="24" height="24" viewBox="0 0 24 24" fill="none" xmlns="http://www.w3.org/2000/svg">
<path fill-rule="evenodd" clip-rule="evenodd" d="M7.06993 5.96399H19.93C19.7393 5.28351 19.1599 4.61726 18.2016 4.06968C17.0233 3.39635 15.3621 2.96399 13.5 2.96399C11.6379 2.96399 9.97662 3.39635 8.79828 4.06968C7.84001 4.61726 7.26058 5.28351 7.06993 5.96399ZM8.30214 3.20144C9.6573 2.42706 11.4961 1.96399 13.5 1.96399C15.5038 1.96399 17.3426 2.42706 18.6978 3.20144C20.0388 3.96774 21 5.10256 21 6.46399V6.96399H14V13.964L22.5 13.964V17.964H20.6874L22.1588 19.4354L19.7115 21.8826L15.7928 17.964H14V21.464H13V17.964H10.5288L6.61021 21.8826L4.16342 19.4358L6.21123 17.3824L1.29285 12.464L4.52136 9.23551L8.72449 13.964L13 13.964V6.96399H5.99996V6.46399C5.99996 5.10256 6.96112 3.96774 8.30214 3.20144ZM7.04348 17.964L5.57666 19.4349L6.61021 20.4684L9.11463 17.964H7.04348ZM7.20706 16.964H21.5V14.964L8.27542 14.964L4.47854 10.6925L2.70706 12.464L7.20706 16.964ZM17.2071 17.964L19.7115 20.4684L20.7445 19.4354L19.2732 17.964H17.2071Z" fill="#0B0B0C"></path>
</svg>