<svg width="24" height="24" viewBox="0 0 24 24" fill="none" xmlns="http://www.w3.org/2000/svg">
<path fill-rule="evenodd" clip-rule="evenodd" d="M9.95962 10.8329L13.6307 14.504L3.65346 21.4099L2.96094 20.7097L9.95962 10.8329ZM10.0904 12.378L5.41726 18.9729L12.0762 14.3638L10.0904 12.378Z" fill="#0B0B0C"></path>
<path fill-rule="evenodd" clip-rule="evenodd" d="M9.88804 6.51872L17.9402 14.5708L14.1689 16.4565L8.00242 10.29L9.88804 6.51872ZM10.162 8.20689L9.21918 10.0925L14.3664 15.2397L16.252 14.2969L10.162 8.20689Z" fill="#0B0B0C"></path>
<path fill-rule="evenodd" clip-rule="evenodd" d="M19.4407 3.34351L19.9408 3.84357C20.639 4.54174 21.0301 5.45768 21.014 6.3335C20.9976 7.2278 20.5512 8.06998 19.6195 8.51485C19.224 8.70367 18.805 8.75489 18.4397 8.76779C18.2557 8.77429 18.0753 8.77118 17.9127 8.76773C17.8963 8.76739 17.8803 8.76704 17.8644 8.76669C17.7171 8.76351 17.5879 8.76072 17.467 8.76334C17.1776 8.76963 17.0638 8.80891 17.021 8.83993C17.0116 8.84675 17.0003 8.85623 16.9879 8.88827C16.9726 8.92742 16.9538 9.00721 16.9581 9.15289C16.9593 9.19366 16.9708 9.2383 17.0533 9.30157C17.1498 9.37551 17.3203 9.45191 17.5781 9.50637C18.0902 9.61456 18.7978 9.60543 19.4985 9.48536L20.0657 9.38818L20.0827 9.96337C20.0959 10.4062 19.9097 10.8519 19.6491 11.2383C19.3829 11.6329 19.0088 12.0114 18.5707 12.3303C17.7019 12.9627 16.5059 13.4118 15.2872 13.2024L15.1307 13.1756L10.8269 8.87183L10.8972 8.59608C11.1627 7.55331 11.5291 6.633 12.151 5.94959C12.7896 5.24784 13.6542 4.84233 14.8132 4.74977L14.8404 4.74759L14.8678 4.7484C15.7121 4.77342 16.3695 4.87055 16.8919 4.96253C17.0269 4.98631 17.1482 5.00866 17.2584 5.02897C17.5953 5.09104 17.8284 5.13398 18.0322 5.14002C18.2531 5.14657 18.3713 5.10596 18.4984 4.99273C18.6616 4.84737 18.8596 4.56073 19.136 3.9817L19.4407 3.34351ZM19.6684 5.10721C19.5089 5.36697 19.3448 5.57804 19.1636 5.73942C18.8054 6.05857 18.4192 6.15193 18.0026 6.13958C17.7149 6.13106 17.377 6.06846 17.0183 6.002C16.9197 5.98374 16.8196 5.96518 16.7185 5.94738C16.2298 5.86135 15.6322 5.77319 14.8659 5.74881C13.9328 5.82834 13.3275 6.14263 12.8906 6.62264C12.4762 7.07803 12.1783 7.72053 11.9393 8.56995L15.6075 12.2382C16.4388 12.3302 17.3019 12.017 17.9823 11.5218C18.3394 11.2619 18.6274 10.9646 18.8201 10.679C18.8465 10.6398 18.8707 10.6016 18.8927 10.5644C18.3559 10.6018 17.8253 10.5807 17.3714 10.4848C17.0365 10.414 16.7053 10.2948 16.4449 10.0952C16.1707 9.88502 15.9703 9.57832 15.9586 9.18251C15.9445 8.70681 16.0734 8.2914 16.4346 8.02992C16.7489 7.80233 17.1454 7.7701 17.4453 7.76358C17.5894 7.76045 17.7411 7.76376 17.8844 7.76689C17.901 7.76725 17.9175 7.76761 17.9339 7.76796C18.0963 7.7714 18.2515 7.77382 18.4044 7.76841C18.713 7.75751 18.9733 7.71522 19.1886 7.61243C19.745 7.3468 20.004 6.86959 20.0142 6.3152C20.0212 5.93039 19.9056 5.50532 19.6684 5.10721Z" fill="#0B0B0C"></path>
</svg>