<svg width="24" height="24" viewBox="0 0 24 24" fill="none" xmlns="http://www.w3.org/2000/svg">
<path fill-rule="evenodd" clip-rule="evenodd" d="M11.6465 11.6466L12.3536 12.3537L9.67032 15.037L3.35359 21.3537L2.64648 20.6466L11.6465 11.6466Z" fill="#0B0B0C"></path>
<path fill-rule="evenodd" clip-rule="evenodd" d="M6.76616 17.2332C10.3881 19.357 13.9233 18.9532 16.4915 16.5623C19.0577 14.1731 20.7455 9.71682 20.4711 3.52902C14.2829 3.2546 9.82634 4.9423 7.43709 7.5084C5.04602 10.0764 4.64218 13.6115 6.76616 17.2332ZM6.70521 6.82696C9.42647 3.90428 14.3824 2.16594 20.9765 2.5538L21.4202 2.5799L21.4463 3.02358C21.8342 9.61735 20.0957 14.5731 17.1729 17.2942C14.2161 20.0469 10.1404 20.4245 6.14403 18.0268L6.03685 17.9625L5.97253 17.8553C3.57473 13.8592 3.95234 9.78359 6.70521 6.82696Z" fill="#0B0B0C"></path>
</svg>