<svg width="24" height="24" viewBox="0 0 24 24" fill="none" xmlns="http://www.w3.org/2000/svg">
<path fill-rule="evenodd" clip-rule="evenodd" d="M3.56537 5.619C3.75974 3.84407 5.25903 2.5 7.04457 2.5H16.9759C18.7413 2.5 20.2303 3.81475 20.4489 5.56654L21.4962 13.9573L21.4883 13.9583C21.496 14.0553 21.5 14.1526 21.5 14.25C21.5 15.2155 21.1115 16.173 20.4922 16.8909C20.0236 17.434 19.4033 17.8609 18.6914 18.0372C18.943 18.4061 19.0959 18.8551 19.0959 19.3125C19.0959 19.8601 18.8767 20.3958 18.5313 20.7963C18.1849 21.1977 17.6771 21.5 17.0827 21.5H7.53954C6.10941 21.5 4.84505 20.7718 3.95101 19.7355C3.0579 18.7003 2.5 17.3208 2.5 15.9375C2.5 15.7326 2.51224 15.5278 2.53599 15.3242L2.50297 15.3206L3.56537 5.619ZM3.84322 12.2681C3.87858 12.2247 3.91452 12.1818 3.95101 12.1395C4.84505 11.1032 6.10941 10.375 7.53954 10.375H17.9736C18.813 10.375 19.5656 10.7292 20.1518 11.2601L19.4566 5.69039C19.3005 4.43911 18.2369 3.5 16.9759 3.5H7.04457C5.76918 3.5 4.69826 4.46005 4.55942 5.72786L3.84322 12.2681ZM17.1113 17.125H17.9736C18.6328 17.125 19.2599 16.7884 19.735 16.2377C20.2111 15.6859 20.5 14.9559 20.5 14.25C20.5 13.5441 20.2111 12.8141 19.735 12.2623C19.2599 11.7116 18.6328 11.375 17.9736 11.375H7.53954C6.46255 11.375 5.45715 11.9245 4.70819 12.7927C3.95831 13.6619 3.5 14.8137 3.5 15.9375C3.5 17.0613 3.95831 18.2131 4.70819 19.0823C5.45715 19.9505 6.46255 20.5 7.53954 20.5H17.0827C17.324 20.5 17.5728 20.3764 17.7741 20.143C17.9763 19.9086 18.0959 19.6006 18.0959 19.3125C18.0959 19.0244 17.9763 18.7164 17.7741 18.482C17.5728 18.2486 17.324 18.125 17.0827 18.125L7.88819 18.125C7.29377 18.125 6.78599 17.8227 6.43962 17.4213C6.09416 17.0208 5.875 16.4851 5.875 15.9375C5.875 15.3899 6.09416 14.8542 6.43962 14.4538C6.78599 14.0523 7.29377 13.75 7.88819 13.75H17.9736V14.75H7.88819C7.6469 14.75 7.39809 14.8736 7.19679 15.107C6.99458 15.3414 6.875 15.6494 6.875 15.9375C6.875 16.2256 6.99458 16.5336 7.19679 16.768C7.39809 17.0014 7.6469 17.125 7.88819 17.125L17.0827 17.125C17.0923 17.125 17.1018 17.1248 17.1113 17.125Z" fill="#0B0B0C"></path>
</svg>