<svg width="24" height="24" viewBox="0 0 24 24" fill="none" xmlns="http://www.w3.org/2000/svg">
<path fill-rule="evenodd" clip-rule="evenodd" d="M4.5 8.5H19.5V21.5H4.5V8.5ZM5.5 9.5V20.5H18.5V9.5H5.5Z" fill="#0B0B0C"></path>
<path fill-rule="evenodd" clip-rule="evenodd" d="M11 16.2929L14.6464 12.6464L15.3536 13.3536L11 17.7071L8.64645 15.3536L9.35355 14.6464L11 16.2929Z" fill="#0B0B0C"></path>
<path fill-rule="evenodd" clip-rule="evenodd" d="M12 2.5C10.067 2.5 8.5 4.067 8.5 6V9H7.5V6C7.5 3.51472 9.51472 1.5 12 1.5C14.4853 1.5 16.5 3.51472 16.5 6V9H15.5V6C15.5 4.067 13.933 2.5 12 2.5Z" fill="#0B0B0C"></path>
</svg>