<svg width="24" height="24" viewBox="0 0 24 24" fill="none" xmlns="http://www.w3.org/2000/svg">
<path fill-rule="evenodd" clip-rule="evenodd" d="M5.00005 3.65414L6.45335 7.28625L8.86265 9.00007L6.45335 10.7139L5.00005 14.346L3.54675 10.7139L1.13745 9.00007L3.54675 7.28625L5.00005 3.65414ZM5.00005 6.346L4.36597 7.93071L2.86265 9.00007L4.36597 10.0694L5.00005 11.6541L5.63413 10.0694L7.13745 9.00007L5.63413 7.93071L5.00005 6.346Z" fill="#0B0B0C"></path>
<path fill-rule="evenodd" clip-rule="evenodd" d="M11.0001 0.726318L12.0972 3.29701L13.9012 4.50007L12.0972 5.70312L11.0001 8.27382L9.90288 5.70312L8.09886 4.50007L9.90288 3.29701L11.0001 0.726318ZM11.0001 3.27382L10.7056 3.96364L9.90124 4.50007L10.7056 5.03649L11.0001 5.72632L11.2945 5.03649L12.0989 4.50007L11.2945 3.96364L11.0001 3.27382Z" fill="#0B0B0C"></path>
<path fill-rule="evenodd" clip-rule="evenodd" d="M18.5 11.5959L19.7853 14.9687L21.8356 16.5001L19.7853 18.0314L18.5 21.4042L17.2148 18.0314L15.1645 16.5001L17.2148 14.9687L18.5 11.5959ZM18.5 14.4042L18.0458 15.5961L16.8356 16.5001L18.0458 17.404L18.5 18.5959L18.9543 17.404L20.1645 16.5001L18.9543 15.5961L18.5 14.4042Z" fill="#0B0B0C"></path>
<path fill-rule="evenodd" clip-rule="evenodd" d="M1.29294 19.1741L19.174 1.29307L22.7095 4.8286L4.82848 22.7097L1.29294 19.1741ZM2.70716 19.1741L4.82848 21.2955L21.2953 4.8286L19.174 2.70728L2.70716 19.1741Z" fill="#0B0B0C"></path>
<path fill-rule="evenodd" clip-rule="evenodd" d="M15.0001 6.29296L17.7072 9.00007L17.0001 9.70717L14.2929 7.00007L15.0001 6.29296Z" fill="#0B0B0C"></path>
</svg>