<svg width="24" height="24" viewBox="0 0 24 24" fill="none" xmlns="http://www.w3.org/2000/svg">
<path fill-rule="evenodd" clip-rule="evenodd" d="M9.92308 3.5C8.21957 3.5 6.58584 4.17672 5.38128 5.38128C4.17672 6.58584 3.5 8.21957 3.5 9.92308C3.5 11.6266 4.17672 13.2603 5.38128 14.4649C6.58584 15.6694 8.21957 16.3462 9.92308 16.3462C11.6266 16.3462 13.2603 15.6694 14.4649 14.4649C15.6694 13.2603 16.3462 11.6266 16.3462 9.92308C16.3462 8.21957 15.6694 6.58584 14.4649 5.38128C13.2603 4.17672 11.6266 3.5 9.92308 3.5ZM4.67417 4.67417C6.06627 3.28207 7.95435 2.5 9.92308 2.5C11.8918 2.5 13.7799 3.28207 15.172 4.67417C16.5641 6.06627 17.3462 7.95435 17.3462 9.92308C17.3462 11.7245 16.6914 13.4583 15.5136 14.8065L21.3536 20.6464L20.6464 21.3536L14.8065 15.5136C13.4583 16.6914 11.7245 17.3462 9.92308 17.3462C7.95435 17.3462 6.06627 16.5641 4.67417 15.172C3.28207 13.7799 2.5 11.8918 2.5 9.92308C2.5 7.95435 3.28207 6.06627 4.67417 4.67417Z" fill="#0B0B0C"></path>
</svg>