<svg width="24" height="24" viewBox="0 0 24 24" fill="none" xmlns="http://www.w3.org/2000/svg">
<path fill-rule="evenodd" clip-rule="evenodd" d="M12 8.5C10.8954 8.5 10 9.39543 10 10.5C10 11.6046 10.8954 12.5 12 12.5C13.1046 12.5 14 11.6046 14 10.5C14 9.39543 13.1046 8.5 12 8.5ZM9 10.5C9 8.84315 10.3431 7.5 12 7.5C13.6569 7.5 15 8.84315 15 10.5C15 12.1569 13.6569 13.5 12 13.5C10.3431 13.5 9 12.1569 9 10.5Z" fill="#0B0B0C"></path>
<path fill-rule="evenodd" clip-rule="evenodd" d="M12 3.5C10.2743 3.5 8.62042 4.17804 7.40185 5.38322C6.18346 6.58822 5.5 8.22136 5.5 9.92308C5.5 12.8565 7.15396 15.5099 8.8755 17.4679C9.72993 18.4397 10.5857 19.2228 11.228 19.7627C11.5484 20.032 11.8147 20.2401 12 20.3802C12.1853 20.2401 12.4516 20.032 12.772 19.7627C13.4143 19.2228 14.2701 18.4397 15.1245 17.4679C16.846 15.5099 18.5 12.8565 18.5 9.92308C18.5 8.22136 17.8165 6.58822 16.5982 5.38322C15.3796 4.17804 13.7257 3.5 12 3.5ZM12 21L12.2846 21.4111L12 21.6081L11.7154 21.4111L12 21ZM6.69866 4.67222C8.10559 3.28075 10.0126 2.5 12 2.5C13.9874 2.5 15.8944 3.28075 17.3013 4.67222C18.7085 6.06388 19.5 7.95256 19.5 9.92308C19.5 13.2204 17.654 16.1055 15.8755 18.1282C14.9799 19.1468 14.0857 19.9648 13.4155 20.5282C13.08 20.8102 12.7998 21.0292 12.6023 21.1785C12.5035 21.2531 12.4254 21.3104 12.3713 21.3494C12.3443 21.369 12.3232 21.3839 12.3086 21.3942L12.2916 21.4062L12.2869 21.4095L12.2846 21.4111C12.2844 21.4112 12.2846 21.4111 12 21C11.7154 21.4111 11.7156 21.4112 11.7154 21.4111L11.7131 21.4095L11.7084 21.4062L11.6914 21.3942C11.6768 21.3839 11.6557 21.369 11.6287 21.3494C11.5746 21.3104 11.4965 21.2531 11.3977 21.1785C11.2002 21.0292 10.92 20.8102 10.5845 20.5282C9.9143 19.9648 9.02006 19.1468 8.1245 18.1282C6.34604 16.1055 4.5 13.2204 4.5 9.92308C4.5 7.95256 5.29153 6.06388 6.69866 4.67222Z" fill="#0B0B0C"></path>
</svg>