<svg width="24" height="24" viewBox="0 0 24 24" fill="none" xmlns="http://www.w3.org/2000/svg">
<path fill-rule="evenodd" clip-rule="evenodd" d="M2.5 19V15H3.5V19C3.5 19.2761 3.72386 19.5 4 19.5H20C20.2761 19.5 20.5 19.2761 20.5 19V15H21.5V19C21.5 19.8284 20.8284 20.5 20 20.5H4C3.17157 20.5 2.5 19.8284 2.5 19Z" fill="#0B0B0C"></path>
<path fill-rule="evenodd" clip-rule="evenodd" d="M7.12742 3.5C6.94755 3.5 6.78155 3.59661 6.69269 3.753L3.2836 9.75299C3.09421 10.0863 3.33496 10.5 3.71833 10.5H20.2817C20.665 10.5 20.9058 10.0863 20.7164 9.753L17.3073 3.753C17.2185 3.59661 17.0525 3.5 16.8726 3.5H7.12742ZM5.82323 3.25899C6.0898 2.78983 6.58782 2.5 7.12742 2.5H16.8726C17.4122 2.5 17.9102 2.78983 18.1768 3.25899L21.5859 9.25899C22.154 10.259 21.4318 11.5 20.2817 11.5H3.71833C2.56822 11.5 1.84598 10.2589 2.41414 9.25899L5.82323 3.25899Z" fill="#0B0B0C"></path>
<path fill-rule="evenodd" clip-rule="evenodd" d="M2.18746 12.3793L2.45391 11.7931L3.36428 12.2069L3.09782 12.7931C2.94735 13.1241 3.18936 13.5 3.55301 13.5H20.447C20.8106 13.5 21.0527 13.1241 20.9022 12.7931L20.6357 12.2069L21.5461 11.7931L21.8125 12.3793C22.264 13.3724 21.5379 14.5 20.447 14.5H3.55301C2.46207 14.5 1.73602 13.3724 2.18746 12.3793Z" fill="#0B0B0C"></path>
<path fill-rule="evenodd" clip-rule="evenodd" d="M21 17.5L3 17.5L3 16.5L21 16.5V17.5Z" fill="#0B0B0C"></path>
</svg>