<svg width="24" height="24" viewBox="0 0 24 24" fill="none" xmlns="http://www.w3.org/2000/svg">
<path fill-rule="evenodd" clip-rule="evenodd" d="M2.5 1.5H21.5V20.5H2.5V1.5ZM3.5 2.5V19.5H20.5V2.5H3.5Z" fill="#0B0B0C"></path>
<path fill-rule="evenodd" clip-rule="evenodd" d="M3 13.5H21V14.5H3V13.5Z" fill="#0B0B0C"></path>
<path fill-rule="evenodd" clip-rule="evenodd" d="M3 7.5H21V8.5H3V7.5Z" fill="#0B0B0C"></path>
<path fill-rule="evenodd" clip-rule="evenodd" d="M20.5 19.5H15L14.7589 20.4381L18.506 22.5H20.5V19.5ZM19.5 20.5V21.5H18.7629L16.9457 20.5H19.5Z" fill="#0B0B0C"></path>
<path fill-rule="evenodd" clip-rule="evenodd" d="M3.5 19.5H9L9.24106 20.4381L5.49403 22.5H3.5V19.5ZM4.5 20.5V21.5H5.23706L7.05429 20.5H4.5Z" fill="#0B0B0C"></path>
<path d="M13 5C13 5.55228 12.5523 6 12 6C11.4477 6 11 5.55228 11 5C11 4.44772 11.4477 4 12 4C12.5523 4 13 4.44772 13 5Z" fill="#0B0B0C"></path>
<path d="M13 11C13 11.5523 12.5523 12 12 12C11.4477 12 11 11.5523 11 11C11 10.4477 11.4477 10 12 10C12.5523 10 13 10.4477 13 11Z" fill="#0B0B0C"></path>
<path d="M13 17C13 17.5523 12.5523 18 12 18C11.4477 18 11 17.5523 11 17C11 16.4477 11.4477 16 12 16C12.5523 16 13 16.4477 13 17Z" fill="#0B0B0C"></path>
</svg>