<svg width="24" height="24" viewBox="0 0 24 24" fill="none" xmlns="http://www.w3.org/2000/svg">
<path d="M14.5 6C14.5 4.61929 13.3807 3.5 12 3.5C10.6193 3.5 9.5 4.61929 9.5 6V11C9.5 12.3807 10.6193 13.5 12 13.5C13.3807 13.5 14.5 12.3807 14.5 11V6ZM15.5 11C15.5 12.933 13.933 14.5 12 14.5C10.067 14.5 8.5 12.933 8.5 11V6C8.5 4.067 10.067 2.5 12 2.5C13.933 2.5 15.5 4.067 15.5 6V11Z" fill="#0B0B0C"></path>
<path d="M5.5 11V10.5H6.5V11C6.5 14.0376 8.96243 16.5 12 16.5C15.0376 16.5 17.5 14.0376 17.5 11H18.5C18.5 14.5899 15.5899 17.5 12 17.5C8.41015 17.5 5.5 14.5899 5.5 11Z" fill="#0B0B0C"></path>
<path d="M12.5 17V21H11.5V17H12.5Z" fill="#0B0B0C"></path>
</svg>