<svg width="24" height="24" viewBox="0 0 24 24" fill="none" xmlns="http://www.w3.org/2000/svg">
<path fill-rule="evenodd" clip-rule="evenodd" d="M7.29144 7.16361C6.71685 7.73819 6.7315 8.52332 7.13164 8.92346C7.27999 9.07181 7.46977 9.16427 7.68312 9.19773L8.17708 9.2752L8.02214 10.2631L7.52818 10.1857C7.12157 10.1219 6.73355 9.93959 6.42453 9.63056C5.55046 8.7565 5.7082 7.33263 6.58433 6.4565C7.46046 5.58037 8.88433 5.42264 9.75839 6.2967C10.0674 6.60572 10.2497 6.99374 10.3135 7.40035L10.391 7.89431L9.40303 8.04925L9.32556 7.55529C9.2921 7.34194 9.19964 7.15216 9.05129 7.00381C8.65115 6.60367 7.86602 6.58902 7.29144 7.16361Z" fill="#0B0B0C"></path>
<path fill-rule="evenodd" clip-rule="evenodd" d="M8.39166 11.4905C8.37809 12.7163 8.70214 13.9962 9.55111 14.8452C11.3667 16.6607 14.0077 16.7803 15.458 15.33C16.9082 13.8797 16.7886 11.2387 14.9731 9.42316C14.112 8.56209 12.8738 8.19371 11.6899 8.18162C11.1019 8.17561 10.5446 8.25824 10.0789 8.40112C9.60588 8.54624 9.26191 8.74267 9.06627 8.93831C8.93522 9.06935 8.76325 9.37436 8.62327 9.85242C8.48803 10.3143 8.39836 10.8843 8.39166 11.4905ZM7.66357 9.5714C7.82106 9.03355 8.05241 8.53795 8.35916 8.2312C8.71076 7.87961 9.22212 7.61798 9.78555 7.44511C10.3563 7.27 11.0165 7.17469 11.7001 7.18167C13.0595 7.19555 14.581 7.61684 15.6802 8.71605C17.7852 10.8211 18.0998 14.1024 16.1651 16.0371C14.2303 17.9718 10.949 17.6573 8.84401 15.5523C7.7327 14.441 7.37653 12.8516 7.39172 11.4794C7.39938 10.7866 7.50134 10.1254 7.66357 9.5714Z" fill="#0B0B0C"></path>
<path fill-rule="evenodd" clip-rule="evenodd" d="M7.96288 11.6165C9.16831 11.8835 10.2867 11.6277 11.0212 10.8932C11.7557 10.1587 12.0115 9.04033 11.7445 7.8349L12.7208 7.61862C13.043 9.07317 12.7598 10.5688 11.7283 11.6003C10.6968 12.6318 9.20115 12.9151 7.7466 12.5929L7.96288 11.6165Z" fill="#0B0B0C"></path>
<path fill-rule="evenodd" clip-rule="evenodd" d="M4.36981 6.23191L6.88089 7.23972L6.50842 8.16776L3.99734 7.15995L4.36981 6.23191Z" fill="#0B0B0C"></path>
<path fill-rule="evenodd" clip-rule="evenodd" d="M7.29462 3.86267L8.30243 6.37375L7.37439 6.74621L6.36658 4.23514L7.29462 3.86267Z" fill="#0B0B0C"></path>
<path fill-rule="evenodd" clip-rule="evenodd" d="M21.168 9.31868L20.7496 9.04234C20.502 8.87878 20.0472 8.64873 19.579 8.44963C19.1146 8.25215 18.5739 8.05781 18.1587 7.99576C18.1201 7.98999 18.0791 7.98359 18.0359 7.97685C17.3534 7.87039 16.1223 7.67835 15.0982 8.51426L14.7128 8.82883L15.345 9.61013L15.7304 9.29557C16.4048 8.74507 17.2222 8.86793 17.9537 8.97787C17.9762 8.98126 17.9986 8.98463 18.021 8.98796C18.3043 9.0303 18.7477 9.18159 19.198 9.37309C19.6445 9.56296 20.0349 9.76523 20.2079 9.87946L20.6263 10.1558L21.168 9.31868Z" fill="#0B0B0C"></path>
<path fill-rule="evenodd" clip-rule="evenodd" d="M17.5435 5.03973L17.0431 5.05669C16.0006 5.09202 15.0847 5.51154 14.4249 6.04708C13.789 6.56315 13.2985 7.26733 13.276 7.9346L13.2592 8.43307L14.2607 8.47844L14.2775 7.97997C14.2859 7.72913 14.5216 7.26347 15.0635 6.82369C15.5814 6.40337 16.2947 6.081 17.0891 6.05408L17.5896 6.03711L17.5435 5.03973Z" fill="#0B0B0C"></path>
<path fill-rule="evenodd" clip-rule="evenodd" d="M5.15274 17.38L5.19478 16.8813C5.37998 14.6839 7.00105 13.5821 7.88171 13.1864L8.33514 12.9828L8.75173 13.8982L8.29831 14.1019C7.56781 14.4301 6.33068 15.299 6.18919 16.9777L6.14716 17.4764L5.15274 17.38Z" fill="#0B0B0C"></path>
<path fill-rule="evenodd" clip-rule="evenodd" d="M9.54305 21.6122L9.26671 21.1938C9.10139 20.9434 8.86296 20.461 8.65732 19.9708C8.45303 19.4838 8.25073 18.9177 8.1887 18.5027C8.18293 18.4641 8.17654 18.4231 8.1698 18.3799C8.06333 17.6974 7.87129 16.4663 8.70721 15.4422L9.02177 15.0568L9.80308 15.689L9.48851 16.0744C8.93801 16.7488 9.06087 17.5662 9.17082 18.2977C9.1742 18.3202 9.17757 18.3426 9.18091 18.3649C9.22327 18.6484 9.38231 19.1166 9.5827 19.5943C9.78176 20.0689 9.99137 20.4817 10.1038 20.652L10.3802 21.0704L9.54305 21.6122Z" fill="#0B0B0C"></path>
<path fill-rule="evenodd" clip-rule="evenodd" d="M14.4484 19.3759C14.4484 19.3759 14.4483 19.3758 14.3029 19.8543C14.1576 20.3327 14.1575 20.3326 14.1574 20.3326L14.1555 20.332L14.1525 20.3311L14.1434 20.3282L14.1141 20.3186C14.0898 20.3105 14.0563 20.2989 14.0153 20.2836C13.9336 20.2533 13.821 20.208 13.6927 20.1471C13.4423 20.0282 13.104 19.8363 12.8251 19.5574C12.634 19.3663 12.5095 19.0978 12.4261 18.8585C12.3382 18.6061 12.2754 18.3251 12.2369 18.0584C12.1985 17.7925 12.1816 17.5232 12.1935 17.2929C12.1994 17.1786 12.2131 17.0601 12.2408 16.9504C12.2646 16.8561 12.3153 16.698 12.4418 16.5716C12.637 16.3763 12.9536 16.3763 13.1489 16.5716C13.3222 16.7449 13.3417 17.0137 13.2073 17.2085C13.2017 17.2358 13.1955 17.2805 13.1922 17.3445C13.1844 17.4944 13.195 17.6967 13.2266 17.9155C13.2581 18.1333 13.3079 18.3499 13.3704 18.5294C13.4375 18.7219 13.5014 18.8195 13.5322 18.8503C13.6969 19.015 13.9208 19.1484 14.1217 19.2438C14.219 19.29 14.3042 19.3241 14.364 19.3464C14.3937 19.3575 14.4168 19.3654 14.4315 19.3704L14.447 19.3754L14.4484 19.3759Z" fill="#0B0B0C"></path>
<path fill-rule="evenodd" clip-rule="evenodd" d="M9.87469 3.79492L10.3576 3.92439C10.8162 4.04732 11.3594 4.37364 11.6974 4.69584L11.7061 4.70411C12.1713 5.1693 12.2835 5.75326 12.2632 6.28021C12.2434 6.79499 12.0947 7.31446 11.979 7.71289L11.8395 8.19304L10.8792 7.91407L11.0187 7.43392C11.1386 7.02115 11.2495 6.61556 11.264 6.24169C11.2778 5.88246 11.2003 5.6153 11.003 5.41542C10.7689 5.19424 10.3731 4.96384 10.0987 4.89029L9.61575 4.76081L9.87469 3.79492Z" fill="#0B0B0C"></path>
<path fill-rule="evenodd" clip-rule="evenodd" d="M20.8497 14.2642L20.7044 13.7858L20.226 13.9311C20.7044 13.7858 20.7044 13.7859 20.7044 13.7858L20.7037 13.7837L20.7028 13.7807L20.6999 13.7716L20.6903 13.7423C20.6822 13.718 20.6706 13.6845 20.6553 13.6435C20.625 13.5619 20.5797 13.4492 20.5188 13.3209C20.3999 13.0705 20.208 12.7323 19.9291 12.4533C19.738 12.2622 19.4695 12.1377 19.2302 12.0543C18.9778 11.9664 18.6968 11.9036 18.4301 11.8651C18.1642 11.8267 17.8949 11.8098 17.6646 11.8217C17.5503 11.8277 17.4318 11.8413 17.3221 11.869C17.2278 11.8928 17.0697 11.9435 16.9433 12.07L16.5897 12.4235L17.2968 13.1306L17.5946 12.8328C17.6223 12.828 17.6624 12.8232 17.7162 12.8204C17.8661 12.8127 18.0684 12.8232 18.2872 12.8548C18.505 12.8863 18.7216 12.9361 18.9011 12.9986C19.0936 13.0657 19.1912 13.1296 19.222 13.1604C19.3867 13.3251 19.5201 13.549 19.6155 13.7499C19.6617 13.8472 19.6958 13.9324 19.7181 13.9922C19.7292 14.022 19.7371 14.045 19.7421 14.0597L19.7471 14.0752L19.7476 14.0766L19.8929 14.5549L20.8497 14.2642Z" fill="#0B0B0C"></path>
<path fill-rule="evenodd" clip-rule="evenodd" d="M3.69275 9.97687L3.82222 10.4598C3.94514 10.9183 4.27147 11.4616 4.59367 11.7996L4.60194 11.8083C5.06713 12.2735 5.65109 12.3857 6.17804 12.3654C6.69281 12.3455 7.21228 12.1969 7.61071 12.0812L8.09086 11.9417L7.81189 10.9814L7.33174 11.1209C6.91897 11.2408 6.51338 11.3517 6.13952 11.3661C5.78029 11.38 5.51313 11.3024 5.31324 11.1051C5.09207 10.8711 4.86167 10.4752 4.78811 10.2009L4.65864 9.71792L3.69275 9.97687Z" fill="#0B0B0C"></path>
</svg>