<svg width="24" height="24" viewBox="0 0 24 24" fill="none" xmlns="http://www.w3.org/2000/svg">
<path fill-rule="evenodd" clip-rule="evenodd" d="M21.5 2.5H6.5V14.5H16.8333L21.5 18V2.5ZM20.5 3.5V16L17.1667 13.5H7.5V3.5H20.5Z" fill="#0B0B0C"></path>
<path fill-rule="evenodd" clip-rule="evenodd" d="M7.5 7.99999C7.5 7.72385 7.27614 7.49999 7 7.49999H2.5V7.99999H3C2.5 7.99999 2.5 7.99999 2.5 7.99999V22L7.16667 18.5H18.5V15C18.5 14.7238 18.2761 14.5 18 14.5C17.7239 14.5 17.5 14.7238 17.5 15V17.5H6.83333L3.5 20V8.49999H7C7.27614 8.49999 7.5 8.27613 7.5 7.99999Z" fill="#0B0B0C"></path>
<path fill-rule="evenodd" clip-rule="evenodd" d="M15.4182 6.04033C14.9312 5.95917 14.4271 6.00134 13.9723 6.1592C13.5175 6.31708 13.1421 6.57995 12.8849 6.90254C12.6288 7.2236 12.5002 7.58967 12.5 7.9544V9.04541V9.04541C12.5002 9.41014 12.6288 9.7764 12.8849 10.0975C13.1421 10.42 13.5175 10.6829 13.9723 10.8408C14.4271 10.9987 14.9312 11.0408 15.4182 10.9597C15.9054 10.8785 16.3429 10.6795 16.6789 10.398L17.0622 10.0769L17.7044 10.8435L17.3211 11.1646C16.8378 11.5695 16.2316 11.8379 15.5826 11.9461C14.9334 12.0542 14.2599 11.9992 13.6444 11.7855C13.029 11.5719 12.4895 11.2056 12.1031 10.721C11.7154 10.2349 11.5002 9.65194 11.5 9.04579V7.9544C11.5002 7.34825 11.7154 6.76513 12.1031 6.27903C12.4895 5.7944 13.029 5.42814 13.6444 5.2145C14.2599 5.00083 14.9334 4.94576 15.5826 5.05393C16.2316 5.16209 16.8378 5.4305 17.3211 5.83544L17.7044 6.15654L17.0622 6.92308L16.6789 6.60198C16.3429 6.32052 15.9054 6.12151 15.4182 6.04033Z" fill="#0B0B0C"></path>
<path fill-rule="evenodd" clip-rule="evenodd" d="M10.5 7H14.7391V8H10.5V7Z" fill="#0B0B0C"></path>
<path fill-rule="evenodd" clip-rule="evenodd" d="M10.5 9H14.7391V10H10.5V9Z" fill="#0B0B0C"></path>
</svg>