<svg width="24" height="24" viewBox="0 0 24 24" fill="none" xmlns="http://www.w3.org/2000/svg">
<path fill-rule="evenodd" clip-rule="evenodd" d="M12 2.20923L14.6902 5.50533L18.9231 5.07688L18.4946 9.30981L21.7907 12L18.4946 14.6902L18.9231 18.9231L14.6902 18.4946L12 21.7907L9.30981 18.4946L5.07688 18.9231L5.50533 14.6902L2.20923 12L5.50533 9.30981L5.07688 5.07688L9.30981 5.50533L12 2.20923ZM12 3.79075L9.74436 6.55443L6.19518 6.19518L6.55443 9.74436L3.79075 12L6.55443 14.2556L6.19518 17.8048L9.74436 17.4456L12 20.2092L14.2556 17.4456L17.8048 17.8048L17.4456 14.2556L20.2092 12L17.4456 9.74436L17.8048 6.19518L14.2556 6.55443L12 3.79075Z" fill="#0B0B0C"></path>
</svg>