<svg width="24" height="24" viewBox="0 0 24 24" fill="none" xmlns="http://www.w3.org/2000/svg">
<path fill-rule="evenodd" clip-rule="evenodd" d="M11.5 21V11.25H12.5V21H11.5Z" fill="#0B0B0C"></path>
<path fill-rule="evenodd" clip-rule="evenodd" d="M15.4986 9.30812L7.77363 5.44565L8.22634 4.55436L16.5014 8.69185L16.5014 12.9984L15.4986 13.0016L15.4986 9.30812Z" fill="#0B0B0C"></path>
<path fill-rule="evenodd" clip-rule="evenodd" d="M12 10.691L20.2764 6.55277L20.7236 7.4472L12 11.809L3.2764 7.4472L3.72361 6.55277L12 10.691Z" fill="#0B0B0C"></path>
<path fill-rule="evenodd" clip-rule="evenodd" d="M12 2.44739L21.5 6.91798V17.082L12 21.5526L2.5 17.082V6.91798L12 2.44739ZM3.5 7.55258V16.4474L12 20.4474L20.5 16.4474V7.55258L12 3.55258L3.5 7.55258Z" fill="#0B0B0C"></path>
</svg>