<svg width="24" height="24" viewBox="0 0 24 24" fill="none" xmlns="http://www.w3.org/2000/svg">
<path d="M14.4629 3.54785L22.75 7.44727V16.5527L14.4629 20.4521L14.25 20.5527L14.0371 20.4521L6.03711 16.6875L6.46289 15.7832L13.75 19.2119V11.3457L6.75 8.7207V9.81543H5.75V7.44727L14.0371 3.54785L14.25 3.44727L14.4629 3.54785ZM19.1533 9.69434V12.0146H18.1533V10.0693L14.75 11.3457V19.2119L21.75 15.918V8.7207L19.1533 9.69434ZM6.25 14.543V15.543H2.25V14.543H6.25ZM10.25 12.5V13.5H3.25V12.5H10.25ZM8.25 10.5V11.5H4.25V10.5H8.25ZM7.25586 7.84277L14.25 10.4658L17.3809 9.29199L10.1816 6.4668L7.25586 7.84277ZM11.4258 5.88086L18.7803 8.7666L21.2432 7.84277L14.25 4.55176L11.4258 5.88086Z" fill="#0B0B0C"></path>
</svg>