<svg width="24" height="24" viewBox="0 0 24 24" fill="none" xmlns="http://www.w3.org/2000/svg">
<path fill-rule="evenodd" clip-rule="evenodd" d="M11.9999 4.49996C9.79081 4.49996 7.99995 6.29083 7.99995 8.49996C7.99995 10.7091 9.79081 12.5 11.9999 12.5C14.2091 12.5 15.9999 10.7091 15.9999 8.49996C15.9999 6.29083 14.2091 4.49996 11.9999 4.49996ZM6.99995 8.49996C6.99995 5.73854 9.23852 3.49996 11.9999 3.49996C14.7614 3.49996 16.9999 5.73854 16.9999 8.49996C16.9999 11.2614 14.7614 13.5 11.9999 13.5C9.23852 13.5 6.99995 11.2614 6.99995 8.49996Z" fill="#0B0B0C"></path>
<path fill-rule="evenodd" clip-rule="evenodd" d="M12 16.5C8.37348 16.5 5.34086 18.9011 4.48318 22.1284L3.51673 21.8715C4.493 18.198 7.92855 15.5 12 15.5C16.0714 15.5 19.5069 18.198 20.4832 21.8715L19.5167 22.1284C18.659 18.9011 15.6264 16.5 12 16.5Z" fill="#0B0B0C"></path>
<path fill-rule="evenodd" clip-rule="evenodd" d="M20.6831 8.81695L19.5876 10.7144L21.8196 10.8484L19.9151 14.1471L19.0491 13.6471L20.1446 11.7496L17.9126 11.6157L19.8171 8.31695L20.6831 8.81695Z" fill="#0B0B0C"></path>
<path fill-rule="evenodd" clip-rule="evenodd" d="M2.00008 2.70707L3.54933 4.25633L4.25644 2.13501L6.94982 4.82839L6.24272 5.5355L4.69346 3.98624L3.98635 6.10756L1.29297 3.41418L2.00008 2.70707Z" fill="#0B0B0C"></path>
<path fill-rule="evenodd" clip-rule="evenodd" d="M6.53533 12L4.98607 13.5493L7.10739 14.2564L4.41401 16.9497L3.7069 16.2426L5.25616 14.6934L3.13484 13.9863L5.82822 11.2929L6.53533 12Z" fill="#0B0B0C"></path>
</svg>