<svg width="24" height="24" viewBox="0 0 24 24" fill="none" xmlns="http://www.w3.org/2000/svg">
<path fill-rule="evenodd" clip-rule="evenodd" d="M4.5 11.5H10.9867L16.7336 15.7507L16.3124 16.1316H22.5V19.3928L12.8167 20.5151L7.43316 17.5526H4.5V11.5ZM15.1568 15.8282L10.6571 12.5H5.5V16.5526H7.69013L13.0189 19.4849L21.5 18.502V17.1316H15.2062L14.1172 18.1161L10.296 15.3525L10.8821 14.5422L14.0472 16.8313L15.1568 15.8282Z" fill="#0B0B0C"></path>
<path fill-rule="evenodd" clip-rule="evenodd" d="M1.5 10.5L5.5 10.5V18.5H1.5V10.5ZM2.5 11.5V17.5H4.5V11.5L2.5 11.5Z" fill="#0B0B0C"></path>
<path fill-rule="evenodd" clip-rule="evenodd" d="M16.5 2.5C15.3954 2.5 14.5 3.39543 14.5 4.5C14.5 5.60457 15.3954 6.5 16.5 6.5C17.6046 6.5 18.5 5.60457 18.5 4.5C18.5 3.39543 17.6046 2.5 16.5 2.5ZM13.5 4.5C13.5 2.84315 14.8431 1.5 16.5 1.5C18.1569 1.5 19.5 2.84315 19.5 4.5C19.5 6.15685 18.1569 7.5 16.5 7.5C14.8431 7.5 13.5 6.15685 13.5 4.5Z" fill="#0B0B0C"></path>
<path fill-rule="evenodd" clip-rule="evenodd" d="M16.5 10.5C15.5634 10.5 14.7051 10.7623 14.0163 11.1987L13.4811 10.354C14.3327 9.81437 15.3772 9.5 16.5 9.5C18.8471 9.5 20.8895 10.8848 21.479 12.8568L20.5209 13.1432C20.0789 11.6647 18.4829 10.5 16.5 10.5Z" fill="#0B0B0C"></path>
</svg>