<svg width="24" height="24" viewBox="0 0 24 24" fill="none" xmlns="http://www.w3.org/2000/svg">
<path fill-rule="evenodd" clip-rule="evenodd" d="M7.70694 4.50107C6.81924 4.62101 6.00506 5.05869 5.41534 5.73309C4.82459 6.40868 4.49931 7.27582 4.5 8.17327C4.5 11.1772 5.69331 14.0585 7.81741 16.1826C9.94152 18.3067 12.8224 19.5 15.8264 19.5C16.7238 19.5007 17.5913 19.1754 18.2669 18.5847C18.9413 17.9949 19.379 17.1807 19.4989 16.293C19.5032 16.2519 19.4944 16.2105 19.4737 16.1747C19.4525 16.1381 19.4201 16.1093 19.3812 16.0927L19.3733 16.0893L15.2769 14.2539C15.2477 14.2418 15.216 14.2369 15.1844 14.2398C15.1588 14.2421 15.134 14.2495 15.1113 14.2614L12.943 16.1057L12.92 16.1213C12.7487 16.2369 12.5502 16.3059 12.3441 16.3214C12.138 16.3369 11.9315 16.2985 11.7448 16.2098L11.7421 16.2085C10.1658 15.4482 8.56161 13.8641 7.79257 12.2897L7.79099 12.2865C7.70198 12.1009 7.66266 11.8954 7.67686 11.69C7.69105 11.4846 7.7583 11.2865 7.87201 11.1149L7.88777 11.0911L9.73917 8.88971C9.75064 8.86731 9.7577 8.84284 9.75991 8.81765C9.76265 8.78645 9.75785 8.75507 9.74595 8.72614L7.90722 4.6188C7.89061 4.57992 7.86192 4.54745 7.82532 4.52629C7.7895 4.50557 7.74805 4.49675 7.70694 4.50107ZM7.58632 3.50835C7.84284 3.47788 8.10233 3.5313 8.32595 3.66062C8.54817 3.78914 8.7231 3.98574 8.82491 4.22131L10.6642 8.32984C10.7418 8.51103 10.7733 8.70861 10.7561 8.90496C10.7389 9.10131 10.6734 9.29036 10.5655 9.45529L10.5491 9.48037L8.69558 11.6842C8.6835 11.7074 8.67628 11.7328 8.67447 11.759C8.67224 11.7913 8.67832 11.8236 8.69212 11.8529C9.36153 13.2217 10.7992 14.6429 12.1748 15.307C12.2042 15.3207 12.2366 15.3267 12.269 15.3242C12.2953 15.3223 12.3209 15.3148 12.344 15.3023L14.5153 13.4556L14.5398 13.4392C14.7054 13.3291 14.8958 13.2619 15.0939 13.2439C15.292 13.2259 15.4914 13.2576 15.6742 13.3361L15.6812 13.3392L19.7788 15.1751C20.0143 15.2769 20.2109 15.4518 20.3394 15.6741C20.4687 15.8977 20.5221 16.1572 20.4916 16.4137L20.4908 16.421C20.3396 17.5508 19.7832 18.5872 18.9252 19.3374C18.0671 20.0877 16.9658 20.5009 15.826 20.5V20.5C12.557 20.4999 9.42185 19.2012 7.11031 16.8897C4.79871 14.5781 3.50005 11.4429 3.5 8.17383C3.49918 7.03409 3.9123 5.93283 4.66255 5.07483C5.41285 4.21679 6.44924 3.66045 7.57899 3.50928L7.58632 3.50835Z" fill="#0B0B0C"></path>
</svg>