<svg width="24" height="24" viewBox="0 0 24 24" fill="none" xmlns="http://www.w3.org/2000/svg">
<path fill-rule="evenodd" clip-rule="evenodd" d="M3.5 3.5H20.5V20.5H3.5V3.5ZM4.5 4.5V19.5H19.5V4.5H4.5Z" fill="#0B0B0C"></path>
<path fill-rule="evenodd" clip-rule="evenodd" d="M15 7.5C14.1716 7.5 13.5 8.17157 13.5 9C13.5 9.82843 14.1716 10.5 15 10.5C15.8284 10.5 16.5 9.82843 16.5 9C16.5 8.17157 15.8284 7.5 15 7.5ZM12.5 9C12.5 7.61929 13.6193 6.5 15 6.5C16.3807 6.5 17.5 7.61929 17.5 9C17.5 10.3807 16.3807 11.5 15 11.5C13.6193 11.5 12.5 10.3807 12.5 9Z" fill="#0B0B0C"></path>
<path fill-rule="evenodd" clip-rule="evenodd" d="M9.52543 12.3633L13.0378 15.3739L16.017 13.3877L20.3 16.6L19.7 17.4L15.983 14.6123L12.9622 16.6261L9.47457 13.6367L4.29409 17.4044L3.70591 16.5956L9.52543 12.3633Z" fill="#0B0B0C"></path>
</svg>