<svg width="24" height="24" viewBox="0 0 24 24" fill="none" xmlns="http://www.w3.org/2000/svg">
<path fill-rule="evenodd" clip-rule="evenodd" d="M13.5346 6.11459C13.4848 6.18432 13.4397 6.2475 13.3989 6.30153L13.2488 6.5H13C9.58349 6.5 7.56995 7.6133 6.46939 8.97413C6.23362 9.26566 6.03717 9.57161 5.8765 9.88482V10.1507H5.74932C5.26526 11.2394 5.19208 12.3899 5.38551 13.3116C5.66675 14.6516 6.31371 16.2567 6.90349 17.5467C7.19636 18.1872 7.47126 18.7419 7.67283 19.1362C7.74648 19.2802 7.81026 19.4027 7.86147 19.5H9.5V17.1451L10.2451 17.5642C11.4018 18.2147 12.5552 18.2124 13.7623 17.5601L14.5 17.1615V19.5H16.2283C16.7084 18.9082 17.1376 17.939 17.519 16.8752C17.7232 16.3053 17.9066 15.7302 18.0741 15.2024L18.0954 15.1353C18.2529 14.6392 18.3989 14.1788 18.5318 13.8244L18.6535 13.5H19.5V11.5H18.5V11C18.5 10.0352 18.0681 9.01952 17.4796 8.15822C16.8869 7.29084 16.1935 6.66388 15.7696 6.44374L15.5 6.30375V4.55269C14.494 4.77048 13.893 5.61252 13.5346 6.11459ZM19.4714 10.5H20.5V14.5H19.3527C19.2592 14.7742 19.1569 15.0965 19.0432 15.4546L19.0273 15.5049C18.8602 16.0316 18.6716 16.6231 18.4603 17.2126C18.0463 18.3674 17.5148 19.6063 16.8185 20.3434L16.6706 20.5H13.5V18.7733C12.4977 19.1381 11.4906 19.1454 10.5 18.7816V20.5H7.26561L7.12327 20.2404L7.5617 20C7.12327 20.2404 7.12327 20.2404 7.12327 20.2404L7.12139 20.2369L7.11655 20.2281L7.09828 20.1944C7.08239 20.1649 7.05923 20.1218 7.02967 20.0662C6.97055 19.9549 6.88581 19.7935 6.78245 19.5914C6.57584 19.1872 6.29427 18.6192 5.99403 17.9625C5.3976 16.6579 4.7118 14.9701 4.40683 13.517C4.19242 12.4953 4.24871 11.258 4.70439 10.0619C4.32454 9.94952 4.02518 9.72849 3.82095 9.38759C3.54574 8.92821 3.49991 8.3306 3.5 7.76395L3.50008 7.26395L4.50008 7.26411L4.5 7.76411C4.49991 8.32617 4.55791 8.67189 4.67879 8.87368C4.7463 8.98638 4.85922 9.09848 5.146 9.13683C5.30366 8.86594 5.48506 8.60099 5.69185 8.3453C6.99251 6.73703 9.24424 5.55803 12.7386 5.50208C13.1431 4.91815 14.1875 3.5 16 3.5H16.5V5.71637C17.0742 6.09703 17.7493 6.78052 18.3052 7.59405C18.8675 8.41698 19.3512 9.43573 19.4714 10.5ZM12.5424 8.54057C11.633 8.54059 10.758 8.69027 10.2167 8.9506L9.76609 9.1673L9.3327 8.26609L9.7833 8.0494C10.5156 7.69721 11.5604 7.54059 12.5424 7.54057C13.5199 7.54056 14.5474 7.69567 15.2334 8.05783L15.6756 8.29124L15.2088 9.17559L14.7666 8.94217C14.2921 8.69171 13.4565 8.54056 12.5424 8.54057Z" fill="#0B0B0C"></path>
<path d="M17 11.5C17 11.7761 16.7761 12 16.5 12C16.2239 12 16 11.7761 16 11.5C16 11.2239 16.2239 11 16.5 11C16.7761 11 17 11.2239 17 11.5Z" fill="#0B0B0C"></path>
</svg>