<svg width="24" height="24" viewBox="0 0 24 24" fill="none" xmlns="http://www.w3.org/2000/svg">
<path fill-rule="evenodd" clip-rule="evenodd" d="M4.9647 18.3283L8.14699 15.146L8.85409 15.8531L5.67181 19.0354L4.9647 18.3283Z" fill="#0B0B0C"></path>
<path fill-rule="evenodd" clip-rule="evenodd" d="M20.6406 9.19908L20.3089 9.55229L20.1402 9.73169C20.0321 9.84669 19.8762 10.0124 19.685 10.2152C19.3028 10.6209 18.7798 11.1753 18.2165 11.7698C17.138 12.9083 15.9058 14.2008 15.235 14.8764L13.2654 20.6553L12.6981 20.0958L13.0492 19.7398C12.6981 20.0958 12.6981 20.0958 12.6981 20.0958L12.3955 19.7972C12.2017 19.6058 11.9229 19.3304 11.5825 18.9938C10.9017 18.3207 9.97493 17.4031 8.99064 16.4254C7.02461 14.4726 4.82172 12.2724 3.89777 11.3059L3.35681 10.74L9.12526 8.77153C9.8011 8.1005 11.0943 6.86763 12.2333 5.78855C12.8281 5.22502 13.3827 4.70174 13.7886 4.31936C13.9915 4.12816 14.1573 3.97216 14.2723 3.86395L14.451 3.69596L14.7941 4.05971L14.4518 3.69525L14.805 3.36353L20.6406 9.19908ZM14.7834 4.75613C14.6942 4.84004 14.5904 4.93785 14.4743 5.0472C14.0689 5.42916 13.515 5.95178 12.9211 6.5145C11.7308 7.64214 10.3867 8.924 9.74976 9.56094L9.66762 9.64307L5.16728 11.1788C6.24758 12.2828 8.04914 14.0808 9.69537 15.7159C10.679 16.6929 11.6052 17.6099 12.2856 18.2827C12.4927 18.4874 12.6769 18.6696 12.8331 18.8239L14.3633 14.3342L14.4455 14.252C15.0822 13.6153 16.3635 12.2718 17.4906 11.0821C18.053 10.4884 18.5754 9.93473 18.9572 9.5295C19.0664 9.41357 19.1641 9.30979 19.248 9.2207L14.7834 4.75613Z" fill="#0B0B0C"></path>
</svg>