<svg width="24" height="24" viewBox="0 0 24 24" fill="none" xmlns="http://www.w3.org/2000/svg">
<path fill-rule="evenodd" clip-rule="evenodd" d="M11.5 21V11.25H12.5V21H11.5Z" fill="#0B0B0C"></path>
<path fill-rule="evenodd" clip-rule="evenodd" d="M7.77367 5.44565L8.22638 4.55437L12.6737 6.77804L12.221 7.66932L7.77367 5.44565Z" fill="#0B0B0C"></path>
<path fill-rule="evenodd" clip-rule="evenodd" d="M12 10.691L3.72361 6.55279L3.27639 7.44721L12 11.809L14.6708 10.4736L14.2236 9.57918L12 10.691Z" fill="#0B0B0C"></path>
<path fill-rule="evenodd" clip-rule="evenodd" d="M12 2.4474L13.6653 3.23108L13.2395 4.1359L12 3.5526L3.5 7.5526V16.4474L12 20.4474L20.5 16.4474V11H21.5V17.082L12 21.5526L2.5 17.082V6.91799L12 2.4474Z" fill="#0B0B0C"></path>
<path fill-rule="evenodd" clip-rule="evenodd" d="M18.5 4.5V6C18.5 6.27614 18.2761 6.5 18 6.5C17.7239 6.5 17.5 6.27614 17.5 6V4.5H18.5Z" fill="#0B0B0C"></path>
<path fill-rule="evenodd" clip-rule="evenodd" d="M18.2773 5.58398L20.1934 6.86133L19.6387 7.69338L17.7226 6.41603L18.2773 5.58398Z" fill="#0B0B0C"></path>
<path fill-rule="evenodd" clip-rule="evenodd" d="M18.5 9C19.696 9 20.7295 8.30016 21.2116 7.28545L22.1148 7.71455C21.4734 9.06478 20.0964 10 18.5 10C16.2909 10 14.5 8.20914 14.5 6C14.5 3.79086 16.2909 2 18.5 2C19.8753 2 21.0883 2.69452 21.8074 3.74966L22.089 4.16282L21.2627 4.72601L20.9811 4.31285C20.4402 3.51931 19.5307 3 18.5 3C16.8432 3 15.5 4.34315 15.5 6C15.5 7.65685 16.8432 9 18.5 9Z" fill="#0B0B0C"></path>
<path fill-rule="evenodd" clip-rule="evenodd" d="M21.5 2V4L19.5 4V5L22.5 5V2L21.5 2Z" fill="#0B0B0C"></path>
</svg>