<svg width="24" height="24" viewBox="0 0 24 24" fill="none" xmlns="http://www.w3.org/2000/svg">
<path fill-rule="evenodd" clip-rule="evenodd" d="M18.4403 2.77304L20.9152 5.24792L19.7956 13.085L10.4854 22.3953L1.29297 13.2029L10.6032 3.89263L18.4403 2.77304ZM18.0868 3.8337L11.0746 4.83544L2.70718 13.2029L10.4854 20.981L18.8528 12.6136L19.8545 5.60147L18.0868 3.8337Z" fill="#0B0B0C"></path>
<path fill-rule="evenodd" clip-rule="evenodd" d="M6.47008 13.0693L14.0778 12.4044L14.1649 13.4006L6.55715 14.0655L6.47008 13.0693Z" fill="#0B0B0C"></path>
<path d="M9.79407 10.1712C9.37102 9.8162 8.74026 9.87133 8.38522 10.2944C8.03018 10.7174 8.08531 11.3482 8.50836 11.7032C8.9314 12.0583 9.56216 12.0031 9.9172 11.5801C10.2722 11.157 10.2171 10.5263 9.79407 10.1712Z" fill="#0B0B0C"></path>
<path d="M12.2 14.7291C11.777 14.374 11.1462 14.4292 10.7912 14.8522C10.4362 15.2752 10.4913 15.906 10.9143 16.261C11.3374 16.6161 11.9681 16.561 12.3232 16.1379C12.6782 15.7149 12.6231 15.0841 12.2 14.7291Z" fill="#0B0B0C"></path>
<path fill-rule="evenodd" clip-rule="evenodd" d="M16.1422 7.54601C15.7517 7.15549 15.1185 7.15549 14.728 7.54601C14.3375 7.93654 14.3375 8.5697 14.728 8.96023C15.1185 9.35075 15.7517 9.35075 16.1422 8.96023C16.5327 8.5697 16.5327 7.93654 16.1422 7.54601ZM14.0209 6.83891C14.8019 6.05786 16.0683 6.05786 16.8493 6.83891C17.6304 7.61996 17.6304 8.88629 16.8493 9.66733C16.0683 10.4484 14.8019 10.4484 14.0209 9.66733C13.2398 8.88629 13.2398 7.61996 14.0209 6.83891Z" fill="#0B0B0C"></path>
<path fill-rule="evenodd" clip-rule="evenodd" d="M16.1422 6.83891L21.092 1.88916L21.7991 2.59627L16.8493 7.54601L16.1422 6.83891Z" fill="#0B0B0C"></path>
</svg>