<svg width="24" height="24" viewBox="0 0 24 24" fill="none" xmlns="http://www.w3.org/2000/svg">
<path fill-rule="evenodd" clip-rule="evenodd" d="M5.55861 5.5H22.5664L20.4414 22.5H3.43361L3.75386 19.938L4.74614 20.062L4.56639 21.5H19.5586L21.4336 6.5H6.44139L5.74614 12.062L4.75386 11.938L5.55861 5.5Z" fill="#0B0B0C"></path>
<path fill-rule="evenodd" clip-rule="evenodd" d="M4 13.5H8V14.5H4L4 13.5Z" fill="#0B0B0C"></path>
<path fill-rule="evenodd" clip-rule="evenodd" d="M3 15.5L10 15.5V16.5L3 16.5L3 15.5Z" fill="#0B0B0C"></path>
<path fill-rule="evenodd" clip-rule="evenodd" d="M2 17.5H6V18.5H2L2 17.5Z" fill="#0B0B0C"></path>
<path fill-rule="evenodd" clip-rule="evenodd" d="M12.959 2.77708C11.0394 3.29143 9.7302 4.67501 9.47215 6.08973L8.48838 5.91029C8.82989 4.03802 10.4897 2.40346 12.7002 1.81115C15.528 1.05345 18.5085 2.23859 19.1774 4.73392M19.1774 4.73392L19.4829 5.87021L18.5171 6.12982L18.2117 4.99353C17.7368 3.22139 15.4658 2.1054 12.959 2.77708" fill="#0B0B0C"></path>
<path fill-rule="evenodd" clip-rule="evenodd" d="M16.6485 10.1414C17.1344 9.77769 17.4256 9.36264 17.5081 8.91029L18.4919 9.08973C18.3507 9.86387 17.8664 10.479 17.2476 10.942C16.6299 11.4043 15.8494 11.7386 15.0375 11.9562C13.9865 12.2378 12.6672 12.1846 11.5917 11.7433C10.5029 11.2967 9.58081 10.405 9.58084 8.99998L10.5808 9.00001C10.5808 9.86997 11.1217 10.4696 11.9712 10.8182C12.8339 11.1721 13.9283 11.2181 14.7786 10.9903C15.5078 10.7949 16.1614 10.5059 16.6485 10.1414Z" fill="#0B0B0C"></path>
</svg>