<svg width="24" height="24" viewBox="0 0 24 24" fill="none" xmlns="http://www.w3.org/2000/svg">
<path d="M3.5 9.37695C3.50005 8.91648 3.64119 8.4272 3.83984 7.96484C4.041 7.49667 4.31515 7.02376 4.61328 6.58691C5.19996 5.72727 5.92677 4.9393 6.45898 4.58398L6.7373 5L7.01465 5.41602C6.63465 5.66969 5.99304 6.33929 5.43945 7.15039C5.16747 7.54893 4.92824 7.96504 4.75879 8.35938C4.58691 8.75942 4.50005 9.10673 4.5 9.37695V21.0332L5.30566 21.457L6.57715 21.0283L6.75 20.9697L6.91992 21.0361L8 21.4619L9.08008 21.0361L9.25 20.9697L9.42285 21.0283L10.6934 21.457L11.5 21.0332V9.37695C11.4999 9.10673 11.4131 8.75942 11.2412 8.35938C11.0718 7.96504 10.8325 7.54893 10.5605 7.15039C10.007 6.33929 9.36535 5.66969 8.98535 5.41602L9.2627 5L9.54102 4.58398C10.0732 4.9393 10.8 5.72727 11.3867 6.58691C11.6848 7.02376 11.959 7.49667 12.1602 7.96484C12.3588 8.4272 12.5 8.91648 12.5 9.37695V21.6377L10.7803 22.542L10.5771 22.4736L9.27539 22.0332L8.18359 22.4648L8 22.5371L7.81641 22.4648L6.72363 22.0332L5.42285 22.4736L5.21973 22.542L3.5 21.6377V9.37695Z" fill="#0B0B0C"></path>
<path d="M12.5 9.5V15.5H3.5V9.5H12.5ZM4.5 14.5H11.5V10.5H4.5V14.5Z" fill="#0B0B0C"></path>
<path d="M10.5 2.5V5.5H5.5V2.5H10.5ZM6.5 4.5H9.5V3.5H6.5V4.5Z" fill="#0B0B0C"></path>
<path d="M19.5001 5.5V5H20.5001V5.5C20.5001 7.70914 18.7093 9.5 16.5001 9.5C15.381 9.5 14.3681 9.04008 13.6427 8.2998L13.2931 7.94238L14.007 7.24219L14.3575 7.59961C14.9026 8.15576 15.6607 8.5 16.5001 8.5C18.157 8.5 19.5001 7.15685 19.5001 5.5ZM12.5001 5.5C12.5001 3.29086 14.291 1.5 16.5001 1.5C17.5898 1.5 18.579 1.93611 19.2999 2.64258L19.6564 2.99316L18.9572 3.70703L18.5997 3.35742C18.0581 2.8267 17.3177 2.5 16.5001 2.5C14.8433 2.5 13.5001 3.84315 13.5001 5.5V6H12.5001V5.5Z" fill="#0B0B0C"></path>
<path d="M20 4.29297L21.707 6L21 6.70703L20 5.70703L19 6.70703L18.293 6L20 4.29297Z" fill="#0B0B0C"></path>
<path d="M13 6.70703L11.293 5L12 4.29297L13 5.29297L14 4.29297L14.707 5L13 6.70703Z" fill="#0B0B0C"></path>
</svg>