<svg width="24" height="24" viewBox="0 0 24 24" fill="none" xmlns="http://www.w3.org/2000/svg">
<path fill-rule="evenodd" clip-rule="evenodd" d="M14.6465 8.35359L11.2929 5.00004L14.6464 1.64648L15.3536 2.35359L12.7071 5.00004L15.3536 7.64648L14.6465 8.35359Z" fill="#0B0B0C"></path>
<path fill-rule="evenodd" clip-rule="evenodd" d="M12.5 5.49981V4.49981L20.9999 4.50007L21.5 4.50009V14.0001H20.5V5.50005L12.5 5.49981Z" fill="#0B0B0C"></path>
<path fill-rule="evenodd" clip-rule="evenodd" d="M9.5 21.0001L9.5 14.5001H10.5L10.5 21.0001H9.5Z" fill="#0B0B0C"></path>
<path fill-rule="evenodd" clip-rule="evenodd" d="M12.1653 13.3081L7.10699 10.779L7.5597 9.88769L13.168 12.6918L13.1681 15.665L12.1653 15.6683L12.1653 13.3081Z" fill="#0B0B0C"></path>
<path fill-rule="evenodd" clip-rule="evenodd" d="M10 13.941L15.4431 11.2195L15.8903 12.1139L10 15.059L4.10975 12.1139L4.55696 11.2195L10 13.941Z" fill="#0B0B0C"></path>
<path fill-rule="evenodd" clip-rule="evenodd" d="M10 8.44744L16.5 11.5063V18.4938L10 21.5526L3.5 18.4938V11.5063L10 8.44744ZM4.5 12.1409V17.8592L10 20.4474L15.5 17.8592V12.1409L10 9.55263L4.5 12.1409Z" fill="#0B0B0C"></path>
</svg>