<svg width="24" height="24" viewBox="0 0 24 24" fill="none" xmlns="http://www.w3.org/2000/svg">
<path fill-rule="evenodd" clip-rule="evenodd" d="M1.5 1.5H22.5V22.5H1.5V1.5ZM2.5 2.5V21.5H21.5V2.5H2.5Z" fill="#0B0B0C"></path>
<path fill-rule="evenodd" clip-rule="evenodd" d="M3.5 3.5H20.5V16.5978L15.8174 20.5H3.5V3.5ZM4.5 4.5V19.5H15.4553L19.5 16.1294V4.5H4.5Z" fill="#0B0B0C"></path>
<path fill-rule="evenodd" clip-rule="evenodd" d="M6.5 6.5H17.5V14.9615L14.4538 17.5H6.5V6.5ZM7.5 7.5V16.5H14.0917L16.5 14.4931V7.5H7.5Z" fill="#0B0B0C"></path>
<path d="M11 11H13V13H11V11Z" fill="#0B0B0C"></path>
<path fill-rule="evenodd" clip-rule="evenodd" d="M10.5 10.5H13.5V13.5H10.5V10.5ZM11.5 11.5V12.5H12.5V11.5H11.5Z" fill="#0B0B0C"></path>
</svg>