<svg width="24" height="24" viewBox="0 0 24 24" fill="none" xmlns="http://www.w3.org/2000/svg">
<path fill-rule="evenodd" clip-rule="evenodd" d="M18 3.5C17.1965 3.5 16.5 4.19525 16.5 5.10996H15.5C15.5 3.69407 16.5944 2.5 18 2.5C19.4056 2.5 20.5 3.69407 20.5 5.10996V7.5H22.5V16C22.5 18.4853 20.4853 20.5 18 20.5H6C3.51472 20.5 1.5 18.4853 1.5 16V7.5H19.5V5.10996C19.5 4.19525 18.8035 3.5 18 3.5ZM9.5 8.5H5.5V12.4058L9.5 13.3658V8.5ZM4.5 8.5H2.5V10.5H4.5V8.5ZM4.5 11.5H2.5V16C2.5 17.933 4.067 19.5 6 19.5H18C19.933 19.5 21.5 17.933 21.5 16V11.5H10.5V14.6342L4.5 13.1942V11.5ZM10.5 10.5V8.5H21.5V10.5H10.5Z" fill="#0B0B0C"></path>
</svg>