<svg width="24" height="24" viewBox="0 0 24 24" fill="none" xmlns="http://www.w3.org/2000/svg">
<path fill-rule="evenodd" clip-rule="evenodd" d="M1.5 5.5H22.5V18.4H1.5V5.5ZM2.5 6.5V17.4H21.5V6.5H2.5Z" fill="#0B0B0C"></path>
<path fill-rule="evenodd" clip-rule="evenodd" d="M7.92857 17.9L7.92857 6L8.92857 6L8.92857 17.9H7.92857Z" fill="#0B0B0C"></path>
<path fill-rule="evenodd" clip-rule="evenodd" d="M15.7857 17.9L15.7857 6L16.7857 6L16.7857 17.9H15.7857Z" fill="#0B0B0C"></path>
<path fill-rule="evenodd" clip-rule="evenodd" d="M16.2857 10.3889L8.42857 10.3889V9.38889L16.2857 9.38889V10.3889Z" fill="#0B0B0C"></path>
<path fill-rule="evenodd" clip-rule="evenodd" d="M20.3571 17.4H14.8726L18.7048 20.5H20.3571V17.4ZM19.3571 18.4V19.5H19.0587L17.6988 18.4H19.3571Z" fill="#0B0B0C"></path>
<path fill-rule="evenodd" clip-rule="evenodd" d="M4.35713 17.4H9.84168L6.00944 20.5H4.35713V17.4ZM5.35713 18.4V19.5H5.65561L7.01544 18.4H5.35713Z" fill="#0B0B0C"></path>
</svg>