<svg width="24" height="24" viewBox="0 0 24 24" fill="none" xmlns="http://www.w3.org/2000/svg">
<path fill-rule="evenodd" clip-rule="evenodd" d="M5.5 9.55001V4H6.5V9.55001C7.64112 9.78164 8.5 10.7905 8.5 12C8.5 13.2095 7.64112 14.2184 6.5 14.45V20H5.5V14.45C4.35888 14.2184 3.5 13.2095 3.5 12C3.5 10.7905 4.35888 9.78164 5.5 9.55001ZM11.5 5.55001V4H12.5V5.55001C13.6411 5.78164 14.5 6.79052 14.5 8C14.5 9.20948 13.6411 10.2184 12.5 10.45V20H11.5V10.45C10.3589 10.2184 9.5 9.20948 9.5 8C9.5 6.79052 10.3589 5.78164 11.5 5.55001ZM17.5 13.55V4H18.5V13.55C19.6411 13.7816 20.5 14.7905 20.5 16C20.5 17.2095 19.6411 18.2184 18.5 18.45V20H17.5V18.45C16.3589 18.2184 15.5 17.2095 15.5 16C15.5 14.7905 16.3589 13.7816 17.5 13.55ZM12 6.5C11.1716 6.5 10.5 7.17157 10.5 8C10.5 8.82843 11.1716 9.5 12 9.5C12.8284 9.5 13.5 8.82843 13.5 8C13.5 7.17157 12.8284 6.5 12 6.5ZM6 10.5C5.17157 10.5 4.5 11.1716 4.5 12C4.5 12.8284 5.17157 13.5 6 13.5C6.82843 13.5 7.5 12.8284 7.5 12C7.5 11.1716 6.82843 10.5 6 10.5ZM18 14.5C17.1716 14.5 16.5 15.1716 16.5 16C16.5 16.8284 17.1716 17.5 18 17.5C18.8284 17.5 19.5 16.8284 19.5 16C19.5 15.1716 18.8284 14.5 18 14.5Z" fill="#0B0B0C"></path>
</svg>