<svg width="24" height="24" viewBox="0 0 24 24" fill="none" xmlns="http://www.w3.org/2000/svg">
<path fill-rule="evenodd" clip-rule="evenodd" d="M6.90901 9.07687C5.58082 9.07687 4.5 10.1594 4.5 11.5C4.5 12.8405 5.58082 13.923 6.90901 13.923C8.23721 13.923 9.31803 12.8405 9.31803 11.5C9.31803 10.1594 8.23721 9.07687 6.90901 9.07687ZM3.5 11.5C3.5 9.61172 5.024 8.07687 6.90901 8.07687C8.79403 8.07687 10.318 9.61172 10.318 11.5C10.318 13.3882 8.79403 14.923 6.90901 14.923C5.024 14.923 3.5 13.3882 3.5 11.5Z" fill="#0B0B0C"></path>
<path fill-rule="evenodd" clip-rule="evenodd" d="M17.0907 15.6539C15.7625 15.6539 14.6816 16.7365 14.6816 18.077C14.6816 19.4175 15.7625 20.5001 17.0907 20.5001C18.4188 20.5001 19.4997 19.4175 19.4997 18.077C19.4997 16.7365 18.4188 15.6539 17.0907 15.6539ZM13.6816 18.077C13.6816 16.1887 15.2056 14.6539 17.0907 14.6539C18.9757 14.6539 20.4997 16.1887 20.4997 18.077C20.4997 19.9652 18.9757 21.5001 17.0907 21.5001C15.2056 21.5001 13.6816 19.9652 13.6816 18.077Z" fill="#0B0B0C"></path>
<path fill-rule="evenodd" clip-rule="evenodd" d="M17.0907 2.5C15.7625 2.5 14.6816 3.58257 14.6816 4.92308C14.6816 6.26359 15.7625 7.34617 17.0907 7.34617C18.4188 7.34617 19.4997 6.26359 19.4997 4.92308C19.4997 3.58257 18.4188 2.5 17.0907 2.5ZM13.6816 4.92308C13.6816 3.03484 15.2056 1.5 17.0907 1.5C18.9757 1.5 20.4997 3.03484 20.4997 4.92308C20.4997 6.81132 18.9757 8.34617 17.0907 8.34617C15.2056 8.34617 13.6816 6.81132 13.6816 4.92308Z" fill="#0B0B0C"></path>
<path fill-rule="evenodd" clip-rule="evenodd" d="M9.08326 9.49971L14.374 6.08336L14.9165 6.92344L9.62572 10.3398L9.08326 9.49971Z" fill="#0B0B0C"></path>
<path fill-rule="evenodd" clip-rule="evenodd" d="M14.374 16.9168L9.08326 13.5005L9.62572 12.6604L14.9165 16.0767L14.374 16.9168Z" fill="#0B0B0C"></path>
</svg>