<svg width="24" height="24" viewBox="0 0 24 24" fill="none" xmlns="http://www.w3.org/2000/svg">
<path d="M19.5 21C19.5 20.4477 19.0523 20 18.5 20C17.9477 20 17.5 20.4477 17.5 21C17.5 21.5523 17.9477 22 18.5 22C19.0523 22 19.5 21.5523 19.5 21ZM20.5 21C20.5 22.1046 19.6046 23 18.5 23C17.3954 23 16.5 22.1046 16.5 21C16.5 19.8954 17.3954 19 18.5 19C19.6046 19 20.5 19.8954 20.5 21Z" fill="#0B0B0C"></path>
<path d="M8 10.5V11.5H4L4 10.5H8Z" fill="#0B0B0C"></path>
<path d="M10 12.5V13.5L3 13.5L3 12.5L10 12.5Z" fill="#0B0B0C"></path>
<path d="M6 14.5V15.5H2L2 14.5H6Z" fill="#0B0B0C"></path>
<path d="M8.5 21C8.5 20.4477 8.05228 20 7.5 20C6.94772 20 6.5 20.4477 6.5 21C6.5 21.5523 6.94772 22 7.5 22C8.05228 22 8.5 21.5523 8.5 21ZM9.5 21C9.5 22.1046 8.60457 23 7.5 23C6.39543 23 5.5 22.1046 5.5 21C5.5 19.8954 6.39543 19 7.5 19C8.60457 19 9.5 19.8954 9.5 21Z" fill="#0B0B0C"></path>
<path d="M5.11328 17.0762L4.58301 20.5H5.85742V21.5H3.41699L4.125 16.9238L5.11328 17.0762ZM17.2148 11.3125L15.9414 21.5H9V20.5H15.0586L16.2227 11.1875L17.2148 11.3125ZM14.0986 8.5V9.5H5.85742V8.5H14.0986Z" fill="#0B0B0C"></path>
<path d="M22.5391 12.5L21.8984 21.0371L21.8643 21.5H20.0498V20.5H20.9365L21.4609 13.5H16.9414L16.0664 20.5H17.3496V21.5H14.9336L16.0586 12.5H22.5391Z" fill="#0B0B0C"></path>
<path d="M14.5 6C14.5 5.89927 14.5044 5.79935 14.5107 5.7002H14V4.7002H14.6846C15.2211 2.85643 16.8732 1.5001 18.8887 1.5C20.2541 1.5 21.56 2.04615 22.3906 3.08887L21.6094 3.71191C20.9962 2.94219 19.9971 2.5 18.8887 2.5C17.4508 2.50009 16.2337 3.40494 15.7383 4.7002H19V5.7002H15.5127C15.5048 5.79897 15.5 5.89892 15.5 6C15.5 6.10108 15.5048 6.20103 15.5127 6.2998H19V7.2998H15.7383C16.2337 8.59506 17.4508 9.49991 18.8887 9.5C19.9971 9.5 20.9962 9.05781 21.6094 8.28809L22.3906 8.91113C21.56 9.95385 20.2541 10.5 18.8887 10.5C16.8732 10.4999 15.2211 9.14357 14.6846 7.2998H14V6.2998H14.5107C14.5044 6.20065 14.5 6.10073 14.5 6Z" fill="#0B0B0C"></path>
</svg>