<svg width="24" height="24" viewBox="0 0 24 24" fill="none" xmlns="http://www.w3.org/2000/svg">
<path fill-rule="evenodd" clip-rule="evenodd" d="M9.47157 10.7213C10.1009 11.1933 10.9932 11.5 12 11.5C13.0068 11.5 13.8991 11.1933 14.5284 10.7213C15.1576 10.2495 15.5 9.63576 15.5 9H16.5C16.5 10.0211 15.947 10.9074 15.1284 11.5213C14.31 12.1351 13.2023 12.5 12 12.5C10.7977 12.5 9.68999 12.1351 8.87157 11.5213C8.053 10.9074 7.5 10.0211 7.5 9H8.5C8.5 9.63576 8.84243 10.2495 9.47157 10.7213Z" fill="#0B0B0C"></path>
<path fill-rule="evenodd" clip-rule="evenodd" d="M3.5 5.5H20.5V22.5H3.5V5.5ZM4.5 6.5V21.5H19.5V6.5H4.5Z" fill="#0B0B0C"></path>
<path fill-rule="evenodd" clip-rule="evenodd" d="M12 2.5C9.40484 2.5 7.5 4.16535 7.5 6H6.5C6.5 3.41637 9.07232 1.5 12 1.5C14.9277 1.5 17.5 3.41637 17.5 6H16.5C16.5 4.16535 14.5952 2.5 12 2.5Z" fill="#0B0B0C"></path>
</svg>