<svg width="24" height="24" viewBox="0 0 24 24" fill="none" xmlns="http://www.w3.org/2000/svg">
<path fill-rule="evenodd" clip-rule="evenodd" d="M1.5 4.5H5.5V19.5H1.5V4.5ZM2.5 5.5V18.5H4.5V5.5H2.5Z" fill="#0B0B0C"></path>
<path fill-rule="evenodd" clip-rule="evenodd" d="M9.5 9.5C8.39543 9.5 7.5 10.3954 7.5 11.5C7.5 12.6046 8.39543 13.5 9.5 13.5C10.6046 13.5 11.5 12.6046 11.5 11.5C11.5 10.3954 10.6046 9.5 9.5 9.5ZM6.5 11.5C6.5 9.84315 7.84315 8.5 9.5 8.5C11.1569 8.5 12.5 9.84315 12.5 11.5C12.5 13.1569 11.1569 14.5 9.5 14.5C7.84315 14.5 6.5 13.1569 6.5 11.5Z" fill="#0B0B0C"></path>
<path fill-rule="evenodd" clip-rule="evenodd" d="M13.5 6.5H22.5V14.5H13.5V6.5ZM14.5 7.5V13.5H21.5V7.5H14.5Z" fill="#0B0B0C"></path>
<path fill-rule="evenodd" clip-rule="evenodd" d="M4.5 13.5H22.5V19.5H4.5V13.5ZM5.5 14.5V18.5H21.5V14.5H5.5Z" fill="#0B0B0C"></path>
<path fill-rule="evenodd" clip-rule="evenodd" d="M1.5 22V19H2.5V22H1.5Z" fill="#0B0B0C"></path>
<path fill-rule="evenodd" clip-rule="evenodd" d="M21.5 22V19H22.5V22H21.5Z" fill="#0B0B0C"></path>
</svg>