<svg width="24" height="24" viewBox="0 0 24 24" fill="none" xmlns="http://www.w3.org/2000/svg">
<path fill-rule="evenodd" clip-rule="evenodd" d="M4.5 13.5H10.9867L16.7336 17.7507L16.3124 18.1316H22.5V21.3928L12.8167 22.5151L7.43316 19.5526H4.5V13.5ZM15.1568 17.8282L10.6571 14.5H5.5V18.5526H7.69013L13.0189 21.4849L21.5 20.502V19.1316H15.2062L14.1172 20.1161L10.296 17.3525L10.8821 16.5422L14.0472 18.8313L15.1568 17.8282Z" fill="#0B0B0C"></path>
<path fill-rule="evenodd" clip-rule="evenodd" d="M1.5 12.5L5.5 12.5V20.5H1.5V12.5ZM2.5 13.5V19.5H4.5V13.5L2.5 13.5Z" fill="#0B0B0C"></path>
<path fill-rule="evenodd" clip-rule="evenodd" d="M17 6.5L11 6.5V5.5L17 5.5V6.5Z" fill="#0B0B0C"></path>
<path fill-rule="evenodd" clip-rule="evenodd" d="M17 8.5L11 8.5V7.5L17 7.5V8.5Z" fill="#0B0B0C"></path>
<path fill-rule="evenodd" clip-rule="evenodd" d="M17 2.5C14.4825 2.5 12.5 4.51246 12.5 7C12.5 9.48754 14.4825 11.5 17 11.5C18.5344 11.5 19.8268 11.143 20.6132 10.1831L21.3868 10.8169C20.317 12.1226 18.6463 12.5 17 12.5C13.9257 12.5 11.5 10.0353 11.5 7C11.5 3.96469 13.9257 1.5 17 1.5C18.6463 1.5 20.317 1.8774 21.3868 3.18312L20.6132 3.81688C19.8268 2.85705 18.5344 2.5 17 2.5Z" fill="#0B0B0C"></path>
</svg>