<svg width="24" height="24" viewBox="0 0 24 24" fill="none" xmlns="http://www.w3.org/2000/svg">
<path d="M17.5605 16.4385L20.4502 17.5L19.1729 17.9697L17.5605 18.5605L16.9697 20.1729L16.5 21.4502L15.4385 18.5605L12.5498 17.5L15.4385 16.4385L16.5 13.5498L17.5605 16.4385ZM16.2979 17.001L16.2178 17.2178L16.001 17.2979L15.4502 17.5L16.001 17.7021L16.2178 17.7822L16.2979 17.999L16.5 18.5488L16.7021 17.999L16.7822 17.7822L16.999 17.7021L17.5488 17.5L16.999 17.2979L16.7822 17.2178L16.7021 17.001L16.5 16.4502L16.2979 17.001ZM10.0986 10.9004L14.4502 12.5L10.0986 14.0986L8.5 18.4502L6.90039 14.0986L2.5498 12.5L6.90039 10.9004L8.5 6.5498L10.0986 10.9004ZM7.75977 11.4629L7.68066 11.6807L7.46289 11.7598L5.44922 12.5L7.46289 13.2402L7.68066 13.3193L7.75977 13.5371L8.5 15.5498L9.24023 13.5371L9.31934 13.3193L9.53711 13.2402L11.5498 12.5L9.53711 11.7598L9.31934 11.6807L9.24023 11.4629L8.5 9.44922L7.75977 11.4629ZM17.5605 6.43848L20.4502 7.5L19.1729 7.96973L17.5605 8.56055L16.9697 10.1729L16.5 11.4502L15.4385 8.56055L12.5498 7.5L15.4385 6.43848L16.5 3.5498L17.5605 6.43848ZM16.2979 7.00098L16.2178 7.21777L16.001 7.29785L15.4502 7.5L16.001 7.70215L16.2178 7.78223L16.2979 7.99902L16.5 8.54883L16.7021 7.99902L16.7822 7.78223L16.999 7.70215L17.5488 7.5L16.999 7.29785L16.7822 7.21777L16.7021 7.00098L16.5 6.4502L16.2979 7.00098Z" fill="#0B0B0C"></path>
</svg>