<svg width="24" height="24" viewBox="0 0 24 24" fill="none" xmlns="http://www.w3.org/2000/svg">
<path d="M5.5 10V19.5H18.5V10H19.5V20.5H4.5V10H5.5Z" fill="#0B0B0C"></path>
<path d="M14.5 10V20H13.5V10H14.5Z" fill="#0B0B0C"></path>
<path d="M20 7.5H4V6.5H20V7.5Z" fill="#0B0B0C"></path>
<path d="M17.5 16C17.5 15.4477 17.0523 15 16.5 15C15.9477 15 15.5 15.4477 15.5 16C15.5 16.5523 15.9477 17 16.5 17C17.0523 17 17.5 16.5523 17.5 16Z" fill="#0B0B0C"></path>
<path d="M19.5 7.125L18.0996 4.5H5.90039L4.5 7.125V8C4.5 8.39782 4.65815 8.77924 4.93945 9.06055C5.22076 9.34185 5.60217 9.5 6 9.5C6.39783 9.5 6.77924 9.34185 7.06055 9.06055C7.34185 8.77924 7.5 8.39782 7.5 8V7H8.5V8C8.5 8.39782 8.65815 8.77924 8.93945 9.06055C9.22076 9.34185 9.60217 9.5 10 9.5C10.3978 9.5 10.7792 9.34185 11.0605 9.06055C11.3419 8.77924 11.5 8.39782 11.5 8V7H12.5V8C12.5 8.39782 12.6581 8.77924 12.9395 9.06055C13.2208 9.34185 13.6022 9.5 14 9.5C14.3978 9.5 14.7792 9.34185 15.0605 9.06055C15.3419 8.77924 15.5 8.39782 15.5 8V7H16.5V8C16.5 8.39782 16.6581 8.77924 16.9395 9.06055C17.2208 9.34185 17.6022 9.5 18 9.5C18.3978 9.5 18.7792 9.34185 19.0605 9.06055C19.3419 8.77924 19.5 8.39782 19.5 8V7.125ZM20.5 8C20.5 8.66304 20.2364 9.29874 19.7676 9.76758C19.2987 10.2364 18.663 10.5 18 10.5C17.337 10.5 16.7013 10.2364 16.2324 9.76758C16.1472 9.68232 16.0713 9.58961 16 9.49414C15.9287 9.58961 15.8528 9.68232 15.7676 9.76758C15.2987 10.2364 14.663 10.5 14 10.5C13.337 10.5 12.7013 10.2364 12.2324 9.76758C12.1472 9.68232 12.0713 9.58961 12 9.49414C11.9287 9.58961 11.8528 9.68232 11.7676 9.76758C11.2987 10.2364 10.663 10.5 10 10.5C9.33696 10.5 8.70126 10.2364 8.23242 9.76758C8.14716 9.68232 8.07132 9.58961 8 9.49414C7.92868 9.58961 7.85284 9.68232 7.76758 9.76758C7.29874 10.2364 6.66304 10.5 6 10.5C5.33696 10.5 4.70126 10.2364 4.23242 9.76758C3.76358 9.29874 3.5 8.66304 3.5 8V6.875L3.55859 6.76465L5.15918 3.76465L5.2998 3.5H18.7002L18.8408 3.76465L20.4414 6.76465L20.5 6.875V8Z" fill="#0B0B0C"></path>
</svg>