<svg width="24" height="24" viewBox="0 0 24 24" fill="none" xmlns="http://www.w3.org/2000/svg">
<path fill-rule="evenodd" clip-rule="evenodd" d="M10.8045 13.68C11.8438 13.4939 13.1129 13.1328 14.1432 12.538C15.2098 11.9222 15.8838 11.332 16.237 10.842C16.5971 10.3426 16.557 10.0603 16.4812 9.92912C16.4055 9.79794 16.1811 9.62205 15.5685 9.68417C14.9676 9.74511 14.1195 10.0337 13.0529 10.6495C12.0226 11.2443 11.0754 12.1629 10.3945 12.9698C10.1278 13.2859 9.90724 13.5786 9.74283 13.8195C10.0337 13.7976 10.3974 13.753 10.8045 13.68ZM8.72761 14.7261C8.67877 14.6983 8.58792 14.6378 8.52232 14.5242C8.45672 14.4106 8.44977 14.3017 8.45015 14.2455C8.45057 14.1837 8.46061 14.1305 8.46944 14.0937C8.48714 14.0198 8.51551 13.9487 8.54223 13.8896C8.59736 13.7675 8.67905 13.6232 8.77692 13.4684C8.9749 13.1553 9.26754 12.7548 9.63019 12.325C10.352 11.4695 11.3854 10.4575 12.5529 9.78347C13.684 9.1304 14.672 8.76996 15.4676 8.68928C16.2515 8.60978 16.9838 8.79966 17.3473 9.42912C17.7107 10.0586 17.5089 10.7878 17.0482 11.4269C16.5805 12.0755 15.7743 12.7509 14.6432 13.404C13.4757 14.0781 12.0826 14.467 10.9809 14.6644C10.4273 14.7635 9.93413 14.8167 9.56396 14.8316C9.38099 14.839 9.21515 14.8376 9.08187 14.8243C9.01728 14.8178 8.94159 14.8069 8.86874 14.7853C8.83241 14.7745 8.78137 14.7566 8.72761 14.7261Z" fill="#0B0B0C"></path>
<path fill-rule="evenodd" clip-rule="evenodd" d="M8.50784 10.1292C9.30005 9.43475 10.2024 8.46814 10.787 7.41618C11.3916 6.32807 11.6754 5.46195 11.7352 4.84751C11.7965 4.21829 11.6212 3.9938 11.4992 3.92069C11.3771 3.84757 11.1022 3.8024 10.6082 4.17241C10.1259 4.53373 9.54573 5.22232 8.9411 6.31043C8.35656 7.3624 8.00228 8.65734 7.81977 9.71703C7.74934 10.1259 7.70583 10.492 7.68405 10.7865C7.91868 10.6195 8.20214 10.3972 8.50784 10.1292ZM7.27127 12.1071C7.21584 12.1075 7.10654 12.1005 6.99201 12.0319C6.87749 11.9633 6.81694 11.8686 6.78953 11.8185C6.75923 11.7632 6.74161 11.7109 6.73103 11.674C6.70981 11.5998 6.69907 11.5228 6.69276 11.4572C6.67971 11.3218 6.67826 11.1531 6.68543 10.9669C6.69991 10.5902 6.75189 10.0881 6.84897 9.52444C7.04224 8.40233 7.42317 6.98443 8.08324 5.79655C8.72323 4.6448 9.38471 3.82484 10.0195 3.34938C10.6426 2.88262 11.3603 2.67244 11.9849 3.04657C12.6094 3.4207 12.7934 4.17103 12.7161 4.96478C12.6374 5.77332 12.2848 6.77832 11.6448 7.93006C10.9848 9.11795 9.99321 10.1701 9.15433 10.9054C8.73295 11.2748 8.34032 11.5728 8.03345 11.7744C7.88177 11.8741 7.74043 11.9572 7.62096 12.0133C7.56311 12.0404 7.49356 12.0693 7.42108 12.0873C7.38498 12.0963 7.33254 12.1067 7.27127 12.1071Z" fill="#0B0B0C"></path>
<path fill-rule="evenodd" clip-rule="evenodd" d="M12.3344 17.5362C13.3434 17.908 14.642 18.2486 15.8453 18.2684C17.0899 18.2888 17.9763 18.1307 18.5304 17.8936C19.0979 17.6508 19.1962 17.3902 19.1939 17.2479C19.1916 17.1057 19.0848 16.8416 18.5093 16.5801C17.9472 16.3247 17.0553 16.1374 15.8106 16.1169C14.6073 16.0972 13.319 16.3954 12.3215 16.7342C11.9366 16.865 11.6023 16.9993 11.3404 17.119C11.6063 17.2474 11.9451 17.3927 12.3344 17.5362ZM9.99934 17.3777C9.96973 17.3289 9.91795 17.2291 9.9158 17.0956C9.91365 16.9621 9.96224 16.864 9.9903 16.8162C10.0213 16.7633 10.0565 16.7231 10.0823 16.6963C10.1342 16.6426 10.194 16.5968 10.2464 16.5603C10.3547 16.4848 10.4974 16.404 10.6595 16.3224C10.9875 16.1575 11.4419 15.9665 11.9725 15.7862C13.0288 15.4274 14.4357 15.0948 15.7945 15.1171C17.112 15.1387 18.1586 15.3358 18.8982 15.6719C19.6242 16.0019 20.182 16.5364 20.1938 17.2643C20.2055 17.9923 19.6646 18.5088 18.9488 18.815C18.2197 19.127 17.1788 19.2899 15.8614 19.2683C14.5026 19.246 13.0842 18.8669 12.0158 18.4732C11.4791 18.2755 11.0183 18.0694 10.6848 17.8936C10.52 17.8067 10.3746 17.7211 10.2639 17.6421C10.2102 17.6038 10.1489 17.5561 10.0953 17.5006C10.0686 17.473 10.0321 17.4315 9.99934 17.3777Z" fill="#0B0B0C"></path>
</svg>