<svg width="24" height="24" viewBox="0 0 24 24" fill="none" xmlns="http://www.w3.org/2000/svg">
<path fill-rule="evenodd" clip-rule="evenodd" d="M1.50009 6.50469C1.50009 4.84613 2.84237 3.5 4.50011 3.5C5.80432 3.5 6.91319 4.33311 7.32683 5.49609H22.5V20.4961H4.53324C4.5222 20.4962 4.51114 20.4961 4.50007 20.4961C2.84319 20.4961 1.5 19.153 1.5 17.4961C1.5 17.4881 1.50003 17.4801 1.50009 17.4721V6.50469ZM2.5 17.5L2.50009 17.4765C2.51062 16.381 3.40199 15.4961 4.50007 15.4961C5.60468 15.4961 6.5 16.3914 6.5 17.496C6.5 18.6006 5.60462 19.4961 4.50007 19.4961C3.39675 19.4961 2.50211 18.6028 2.5 17.5ZM6.5 15.2599C5.96927 14.7849 5.26841 14.4961 4.50007 14.4961C3.73173 14.4961 3.03086 14.7849 2.50009 15.2599V6.50469C2.50009 5.39665 3.39641 4.5 4.50011 4.5C5.60381 4.5 6.5 5.39652 6.5 6.50456V15.2599ZM7.5 17.4961V17.4961H16.5035C16.578 15.8781 17.8801 14.5798 19.5 14.5167V11.4789C17.9611 11.2587 16.7452 10.0375 16.533 8.49609H7.5V10.7929L8.75 9.54289L12.2071 13L8.75 16.4571L7.5 15.2071V17.4961ZM7.5 13.7929L8.75 15.0429L10.7929 13L8.75 10.9571L7.5 12.2071V13.7929ZM7.5 7.49609H20.5V18.4961H7.32926C7.19756 18.8687 6.99433 19.2075 6.73608 19.4961H21.5V6.49609H7.49999C7.5 6.49891 7.5 6.50173 7.5 6.50456V7.49609ZM17.5465 8.49609C17.7394 9.48427 18.5144 10.2642 19.5 10.4643V8.49609H17.5465ZM19.5 15.5179C18.4339 15.5792 17.5774 16.4292 17.5051 17.4961H19.5V15.5179Z" fill="#0B0B0C"></path>
</svg>