<svg width="24" height="24" viewBox="0 0 24 24" fill="none" xmlns="http://www.w3.org/2000/svg">
<path fill-rule="evenodd" clip-rule="evenodd" d="M17.5 2.5V11.5H16.5V2.5H17.5Z" fill="#0B0B0C"></path>
<path fill-rule="evenodd" clip-rule="evenodd" d="M21.5 7.5L12.5 7.5V6.5L21.5 6.5V7.5Z" fill="#0B0B0C"></path>
<path fill-rule="evenodd" clip-rule="evenodd" d="M15.3613 3.30662L17.6934 4.86132L17.1387 5.69338L14.8066 4.13867L15.3613 3.30662Z" fill="#0B0B0C"></path>
<path fill-rule="evenodd" clip-rule="evenodd" d="M19.1934 4.13867L16.8613 5.69338L16.3066 4.86132L18.6387 3.30662L19.1934 4.13867Z" fill="#0B0B0C"></path>
<path fill-rule="evenodd" clip-rule="evenodd" d="M15.3613 10.6934L17.6934 9.13867L17.1387 8.30662L14.8066 9.86132L15.3613 10.6934Z" fill="#0B0B0C"></path>
<path fill-rule="evenodd" clip-rule="evenodd" d="M19.1934 9.86132L16.8613 8.30662L16.3066 9.13867L18.6387 10.6934L19.1934 9.86132Z" fill="#0B0B0C"></path>
<path fill-rule="evenodd" clip-rule="evenodd" d="M20.6934 5.36133L19.1387 7.69338L18.3066 7.13868L19.8613 4.80662L20.6934 5.36133Z" fill="#0B0B0C"></path>
<path fill-rule="evenodd" clip-rule="evenodd" d="M19.1387 6.30662L20.6934 8.63868L19.8613 9.19338L18.3066 6.86133L19.1387 6.30662Z" fill="#0B0B0C"></path>
<path fill-rule="evenodd" clip-rule="evenodd" d="M13.3066 5.36133L14.8613 7.69338L15.6934 7.13868L14.1387 4.80662L13.3066 5.36133Z" fill="#0B0B0C"></path>
<path fill-rule="evenodd" clip-rule="evenodd" d="M14.8613 6.30662L13.3066 8.63868L14.1387 9.19338L15.6934 6.86133L14.8613 6.30662Z" fill="#0B0B0C"></path>
<path fill-rule="evenodd" clip-rule="evenodd" d="M8 11.5V15.5H7V11.5H8Z" fill="#0B0B0C"></path>
<path fill-rule="evenodd" clip-rule="evenodd" d="M7.5 15.5C6.94772 15.5 6.5 15.9477 6.5 16.5C6.5 17.0523 6.94772 17.5 7.5 17.5C8.05228 17.5 8.5 17.0523 8.5 16.5C8.5 15.9477 8.05228 15.5 7.5 15.5ZM5.5 16.5C5.5 15.3954 6.39543 14.5 7.5 14.5C8.60457 14.5 9.5 15.3954 9.5 16.5C9.5 17.6046 8.60457 18.5 7.5 18.5C6.39543 18.5 5.5 17.6046 5.5 16.5Z" fill="#0B0B0C"></path>
<path fill-rule="evenodd" clip-rule="evenodd" d="M7.5 2.5C6.95065 2.5 6.42379 2.71827 6.03531 3.10682C5.64683 3.49537 5.42857 4.02239 5.42857 4.57193V12.8055C5.42857 12.9691 5.34856 13.1223 5.21432 13.2158C4.51548 13.7025 3.99015 14.3996 3.71482 15.2056C3.4395 16.0117 3.42855 16.8846 3.68357 17.6973C3.93859 18.5099 4.44627 19.22 5.13269 19.7241C5.81911 20.2282 6.64845 20.5 7.5 20.5C8.35155 20.5 9.18089 20.2282 9.86731 19.7241C10.5537 19.22 11.0614 18.5099 11.3164 17.6973C11.5715 16.8846 11.5605 16.0117 11.2852 15.2056C11.0099 14.3996 10.4845 13.7025 9.78568 13.2158C9.65144 13.1223 9.57143 12.9691 9.57143 12.8055V4.57193C9.57143 4.02239 9.35317 3.49537 8.96469 3.10682C8.57621 2.71827 8.04935 2.5 7.5 2.5ZM5.32814 2.39978C5.90413 1.82367 6.68538 1.5 7.5 1.5C8.31462 1.5 9.09586 1.82367 9.67186 2.39978C10.2479 2.97589 10.5714 3.75723 10.5714 4.57193V12.553C11.3382 13.15 11.9161 13.959 12.2315 14.8824C12.5756 15.8899 12.5893 16.9809 12.2706 17.9967C11.9518 19.0124 11.3173 19.9 10.4592 20.5301C9.6012 21.1602 8.5645 21.5 7.5 21.5C6.43551 21.5 5.3988 21.1602 4.54077 20.5301C3.68275 19.9 3.04819 19.0124 2.72944 17.9967C2.41069 16.9809 2.42438 15.8899 2.76851 14.8824C3.0839 13.959 3.66177 13.15 4.42857 12.553V4.57193C4.42857 3.75723 4.75214 2.97589 5.32814 2.39978Z" fill="#0B0B0C"></path>
</svg>