<svg width="24" height="24" viewBox="0 0 24 24" fill="none" xmlns="http://www.w3.org/2000/svg">
<path d="M22.5 22.4998H1.5V11.658L2.37793 12.6726C2.37822 12.6729 2.37913 12.6737 2.37988 12.6746C2.38161 12.6765 2.38478 12.6799 2.38867 12.6843C2.39659 12.6933 2.40922 12.7079 2.42578 12.7263C2.45891 12.7632 2.50921 12.818 2.5752 12.8884C2.70771 13.0299 2.90417 13.2341 3.15723 13.4792C3.66387 13.9701 4.39396 14.6244 5.28613 15.2781C7.0844 16.5955 9.47903 17.864 12 17.864C14.521 17.864 16.9156 16.5955 18.7139 15.2781C19.606 14.6244 20.3361 13.9701 20.8428 13.4792C21.0958 13.2341 21.2923 13.0299 21.4248 12.8884C21.4908 12.818 21.5411 12.7632 21.5742 12.7263C21.5908 12.7079 21.6034 12.6933 21.6113 12.6843C21.6152 12.6799 21.6184 12.6765 21.6201 12.6746L21.6221 12.6726L22.5 11.658V22.4998ZM21.5 14.2332C20.9707 14.7434 20.2202 15.414 19.3047 16.0847C17.4422 17.4491 14.8362 18.864 12 18.864C9.16383 18.864 6.55776 17.4491 4.69531 16.0847C3.77979 15.414 3.02934 14.7434 2.5 14.2332V21.4998H21.5V14.2332ZM6.30566 2.75854L8.54004 3.88062L8.31543 4.3269L8.20703 4.54077L9.08398 4.83374H15.1738L21.6328 9.86108L21.4492 10.2273L20.2197 12.6873L15.5029 10.1677V10.7439L9.91992 11.8601L9.75977 11.7703L5.70996 9.52026L5.625 9.69019L5.40039 10.1365L4.95312 9.91284L2.71875 8.79077L2.94336 8.34448L5.63379 2.9812L5.8584 2.53491L6.30566 2.75854ZM6.16309 8.62866L10.085 10.8064L14.5029 9.92358V8.83374H11.0029V7.83374H15.5029V9.03296L19.7842 11.321L20.3721 10.1462L14.8311 5.83374H8.9209L7.75488 5.44507L6.16309 8.62866ZM4.06055 8.34546L4.9541 8.7937L7.18066 4.35913L7.19727 4.32495L6.30371 3.87671L4.06055 8.34546Z" fill="#0B0B0C"></path>
</svg>