<svg width="24" height="24" viewBox="0 0 24 24" fill="none" xmlns="http://www.w3.org/2000/svg">
<path d="M22.5 22.4998H1.5V12.7996L2.05469 12.8601C2.05551 12.8602 2.05792 12.8609 2.05957 12.8611C2.06296 12.8615 2.06845 12.8613 2.0752 12.8621C2.08866 12.8635 2.1086 12.8661 2.13477 12.8689C2.18745 12.8746 2.2653 12.8826 2.36523 12.8933C2.56555 12.9147 2.85553 12.9454 3.21191 12.9822C3.9249 13.0557 4.90557 13.1537 5.97461 13.2517C8.12127 13.4485 10.5982 13.6433 12 13.6433C13.4018 13.6433 15.8787 13.4485 18.0254 13.2517C19.0944 13.1537 20.0751 13.0557 20.7881 12.9822C21.1445 12.9454 21.4344 12.9147 21.6348 12.8933C21.7347 12.8826 21.8126 12.8746 21.8652 12.8689C21.8914 12.8661 21.9113 12.8635 21.9248 12.8621C21.9315 12.8613 21.937 12.8615 21.9404 12.8611C21.9421 12.8609 21.9435 12.8602 21.9443 12.8601L22.5 12.7996V22.4998ZM20.8906 13.9773C20.1751 14.0511 19.191 14.1494 18.1172 14.2478C15.9782 14.4439 13.4553 14.6433 12 14.6433C10.5447 14.6433 8.02178 14.4439 5.88281 14.2478C4.80905 14.1494 3.82494 14.0511 3.10938 13.9773C2.87551 13.9532 2.67037 13.9309 2.5 13.9129V21.4998H21.5V13.9129C21.3296 13.9309 21.1245 13.9532 20.8906 13.9773Z" fill="#0B0B0C"></path>
<path d="M9.94425 11.8705L15.4826 10.7632L15.4827 10.352L15.4818 10.1549L20.2159 12.6828L21.6261 9.86197L15.2732 4.91613L15.1397 4.81305L14.9789 4.81286L9.05399 4.81296L7.62508 4.33722L7.25127 4.21228L4.84026 9.03483L9.94425 11.8705ZM7.74818 5.44735L8.94693 5.84595L9.02079 5.84609L14.8587 5.84593L20.3732 10.1385L19.7838 11.3175L15.4818 9.02003L15.483 7.8131L10.9792 7.81278L11.0003 8.32991L11.0207 8.84654L14.5166 8.8471L14.517 9.30747L14.5165 9.89673L10.0545 10.7895L6.15968 8.62448L7.74818 5.44735Z" fill="#0B0B0C"></path>
<path d="M8.5374 3.87626L5.39776 10.1327L2.71644 8.78711L5.85608 2.5307L8.5374 3.87626ZM4.05873 8.34186L4.9525 8.79038L7.1951 4.32151L6.30133 3.87299L4.05873 8.34186Z" fill="#0B0B0C"></path>
</svg>