<svg width="24" height="24" viewBox="0 0 24 24" fill="none" xmlns="http://www.w3.org/2000/svg">
<path d="M22.5 22.4997H1.5V12.1862L2.22559 12.5544L2.22852 12.5554C2.23069 12.5565 2.23454 12.5579 2.23926 12.5602C2.24868 12.565 2.26302 12.5723 2.28223 12.5817C2.32078 12.6007 2.37839 12.6296 2.4541 12.6657C2.60579 12.7381 2.82964 12.8413 3.1123 12.9665C3.67794 13.2169 4.48053 13.5513 5.42578 13.8854C7.32591 14.5571 9.76277 15.2145 12 15.2145C14.2372 15.2145 16.6741 14.5571 18.5742 13.8854C19.5195 13.5513 20.3221 13.2169 20.8877 12.9665C21.1704 12.8413 21.3942 12.7381 21.5459 12.6657C21.6216 12.6296 21.6792 12.6007 21.7178 12.5817C21.737 12.5723 21.7513 12.565 21.7607 12.5602C21.7655 12.5579 21.7693 12.5565 21.7715 12.5554L21.7734 12.5544L22.5 12.1862V22.4997ZM21.293 13.8815C20.7091 14.14 19.8816 14.4844 18.9072 14.8288C16.9681 15.5142 14.4054 16.2145 12 16.2145C9.59462 16.2145 7.03186 15.5142 5.09277 14.8288C4.11844 14.4844 3.29094 14.14 2.70703 13.8815C2.63377 13.8491 2.56548 13.8154 2.5 13.7858V21.4997H21.5V13.7858C21.4345 13.8154 21.3662 13.8491 21.293 13.8815ZM6.30566 2.75848L8.54004 3.88055L8.31543 4.32684L8.20703 4.54071L9.08398 4.83368H15.1738L21.6328 9.86102L21.4492 10.2272L20.2197 12.6872L15.5029 10.1677V10.7438L9.91992 11.86L9.75977 11.7702L5.70996 9.5202L5.625 9.69012L5.40039 10.1364L4.95312 9.91278L2.71875 8.79071L2.94336 8.34442L5.63379 2.98114L5.8584 2.53485L6.30566 2.75848ZM6.16309 8.6286L10.085 10.8063L14.5029 9.92352V8.83368H11.0029V7.83368H15.5029V9.0329L19.7842 11.321L20.3721 10.1462L14.8311 5.83368H8.9209L7.75488 5.44501L6.16309 8.6286ZM4.06055 8.3454L4.9541 8.79364L7.19727 4.32489L6.30371 3.87665L4.06055 8.3454Z" fill="#0B0B0C"></path>
</svg>