<svg width="24" height="24" viewBox="0 0 24 24" fill="none" xmlns="http://www.w3.org/2000/svg">
<path fill-rule="evenodd" clip-rule="evenodd" d="M3 10.5001L8.5 10.5001V20.5001L2.5 20.5001V10.5001L3 10.5001ZM3.5 11.5001V19.5001L7.5 19.5001V11.5001L3.5 11.5001Z" fill="#0B0B0C"></path>
<path fill-rule="evenodd" clip-rule="evenodd" d="M12.063 2.5041L12 3.00012C12.063 2.5041 12.063 2.5041 12.063 2.5041L12.0652 2.50438L12.0686 2.50483L12.0789 2.50624L12.1131 2.51131C12.1417 2.51574 12.1819 2.52236 12.2319 2.53167C12.3319 2.55026 12.4719 2.57969 12.6388 2.6239C12.9707 2.71178 13.419 2.86078 13.8724 3.1059C14.7824 3.59786 15.7693 4.51703 15.7693 6.11994V8.80145L22.6006 9.01882L20.4138 20.4999L20 20.5L20 20C20 20.5 20 20.5 20 20.5L6.50551 20.5002V19.5002L19.5863 19.5L21.3994 9.9811L14.7693 9.77014V6.11994C14.7693 5.01806 14.1215 4.37732 13.3969 3.98557C13.033 3.78884 12.664 3.66503 12.3828 3.59057C12.3523 3.58247 12.3229 3.57499 12.2947 3.56809L8.45692 12.2033L7.54311 11.7972L11.6941 2.45728L12.063 2.5041Z" fill="#0B0B0C"></path>
</svg>