<svg width="24" height="24" viewBox="0 0 24 24" fill="none" xmlns="http://www.w3.org/2000/svg">
<path fill-rule="evenodd" clip-rule="evenodd" d="M3 14.5002L8.5 14.5001V4.50017L2.5 4.50017V14.5002L3 14.5002ZM3.5 13.5002V5.50017L7.5 5.50017V13.5001L3.5 13.5002Z" fill="#0B0B0C"></path>
<path fill-rule="evenodd" clip-rule="evenodd" d="M12.063 22.4961L12 22.0001C12.063 22.4961 12.063 22.4961 12.063 22.4961L12.0652 22.4958L12.0686 22.4954L12.0789 22.494L12.1131 22.4889C12.1417 22.4845 12.1819 22.4779 12.2319 22.4686C12.3319 22.45 12.4719 22.4205 12.6388 22.3763C12.9707 22.2884 13.419 22.1394 13.8724 21.8943C14.7824 21.4024 15.7693 20.4832 15.7693 18.8803V16.1988L22.6006 15.9814L20.4138 4.50028L20 4.50027L20 5.00027C20 4.50027 20 4.50027 20 4.50027L6.50551 4.5V5.5L19.5863 5.50026L21.3994 15.0191L14.7693 15.2301V18.8803C14.7693 19.9822 14.1215 20.6229 13.3969 21.0147C13.033 21.2114 12.664 21.3352 12.3828 21.4097C12.3523 21.4178 12.3229 21.4252 12.2947 21.4321L8.45692 12.7969L7.54311 13.2031L11.6941 22.5429L12.063 22.4961Z" fill="#0B0B0C"></path>
</svg>