<svg width="24" height="24" viewBox="0 0 24 24" fill="none" xmlns="http://www.w3.org/2000/svg">
<path d="M12.4042 2.01603C13.4085 2 14.4071 2.0095 15.4044 2C15.4649 3.21191 15.8873 4.44638 16.7471 5.30321C17.6052 6.18141 18.819 6.5834 20 6.71938V9.90739C18.8933 9.86998 17.7814 9.63247 16.7771 9.14082C16.3397 8.93656 15.9322 8.67351 15.5334 8.40453C15.5282 10.7179 15.5426 13.0283 15.519 15.3322C15.4591 16.439 15.1052 17.5405 14.4813 18.4525C13.4776 19.9708 11.7355 20.9606 9.94619 20.9915C8.84867 21.0562 7.7523 20.7475 6.81707 20.1786C5.26719 19.2357 4.17657 17.5096 4.01773 15.657C3.99772 15.2646 3.99465 14.8715 4.00852 14.4789C4.14664 12.9725 4.86893 11.5314 5.99004 10.551C7.2608 9.40921 9.04089 8.8653 10.7076 9.18713C10.7231 10.3599 10.6777 11.5314 10.6777 12.7041C9.91626 12.45 9.0265 12.5212 8.3612 12.998C7.87445 13.3289 7.50661 13.8156 7.31432 14.3833C7.15548 14.7847 7.20094 15.2306 7.21015 15.657C7.39259 16.9562 8.60349 18.0481 9.89612 17.93C10.7531 17.9205 11.5743 17.4074 12.0209 16.6563C12.1654 16.3933 12.3271 16.1243 12.3358 15.8149C12.4112 14.3988 12.3812 12.9885 12.3904 11.5724C12.3968 8.38078 12.3812 5.19811 12.4048 2.01663L12.4042 2.01603Z" fill="#0B0B0C"></path>
</svg>