<svg width="24" height="24" viewBox="0 0 24 24" fill="none" xmlns="http://www.w3.org/2000/svg">
<path fill-rule="evenodd" clip-rule="evenodd" d="M11.9754 20.5C8.66077 20.5 5.79232 18.5209 4.45324 15.646L3.54675 16.0683C5.04028 19.2747 8.24949 21.5 11.9754 21.5C17.1345 21.5 21.3 17.2374 21.3 12C21.3 6.76262 17.1345 2.5 11.9754 2.5C8.76559 2.5 5.93812 4.15226 4.26247 6.65969L5.0939 7.21531C6.59505 4.969 9.11898 3.5 11.9754 3.5C16.5637 3.5 20.3 7.29626 20.3 12C20.3 16.7037 16.5637 20.5 11.9754 20.5Z" fill="#0B0B0C"></path>
<path fill-rule="evenodd" clip-rule="evenodd" d="M4.89169 7L4.89169 3L3.89169 3L3.89169 8L9.19169 8V7L4.89169 7Z" fill="#0B0B0C"></path>
<path fill-rule="evenodd" clip-rule="evenodd" d="M12.5 12.75V9H11.5V13.25L15.7 16.4L16.3 15.6L12.5 12.75Z" fill="#0B0B0C"></path>
</svg>