<svg width="24" height="24" viewBox="0 0 24 24" fill="none" xmlns="http://www.w3.org/2000/svg">
<path fill-rule="evenodd" clip-rule="evenodd" d="M8.5 2.5C5.84419 2.5 3.5 5.2911 3.5 9C3.5 12.7089 5.84419 15.5 8.5 15.5C11.1558 15.5 13.5 12.7089 13.5 9C13.5 5.2911 11.1558 2.5 8.5 2.5ZM2.5 9C2.5 4.97691 5.08068 1.5 8.5 1.5C11.9193 1.5 14.5 4.97691 14.5 9C14.5 13.0231 11.9193 16.5 8.5 16.5C5.08068 16.5 2.5 13.0231 2.5 9Z" fill="#0B0B0C"></path>
<path fill-rule="evenodd" clip-rule="evenodd" d="M21.5 11.2856C21.5 8.341 19.4246 6.07129 17 6.07129V5.07129C20.0982 5.07129 22.5 7.91832 22.5 11.2856C22.5 14.6528 20.0982 17.4999 17 17.4999C15.7653 17.4999 14.6376 17.2402 13.6668 16.3729L14.3331 15.6271C15.0592 16.2758 15.9139 16.4999 17 16.4999C19.4246 16.4999 21.5 14.2301 21.5 11.2856Z" fill="#0B0B0C"></path>
<path fill-rule="evenodd" clip-rule="evenodd" d="M7.5 8H8.5V10.7929L10.6464 8.64645L11.3536 9.35355L8.5 12.2071V22H7.5V8Z" fill="#0B0B0C"></path>
<path fill-rule="evenodd" clip-rule="evenodd" d="M16.1153 22.0001V13.4287H17.1153V22.0001L16.1153 22.0001Z" fill="#0B0B0C"></path>
<path fill-rule="evenodd" clip-rule="evenodd" d="M10 22.5H6V21.5H10V22.5Z" fill="#0B0B0C"></path>
<path fill-rule="evenodd" clip-rule="evenodd" d="M18.9232 22.5H14.3078V21.5H18.9232V22.5Z" fill="#0B0B0C"></path>
</svg>