<svg width="24" height="24" viewBox="0 0 24 24" fill="none" xmlns="http://www.w3.org/2000/svg">
<path fill-rule="evenodd" clip-rule="evenodd" d="M18.5 16C17.9477 16 17.5 16.4477 17.5 17C17.5 17.5523 17.9477 18 18.5 18C19.0523 18 19.5 17.5523 19.5 17C19.5 16.4477 19.0523 16 18.5 16ZM16.5 17C16.5 15.8954 17.3954 15 18.5 15C19.6046 15 20.5 15.8954 20.5 17C20.5 18.1046 19.6046 19 18.5 19C17.3954 19 16.5 18.1046 16.5 17Z" fill="#0B0B0C"></path>
<path fill-rule="evenodd" clip-rule="evenodd" d="M4 6.5L8 6.5V7.5L4 7.5L4 6.5Z" fill="#0B0B0C"></path>
<path fill-rule="evenodd" clip-rule="evenodd" d="M3 8.5L10 8.5V9.5L3 9.5L3 8.5Z" fill="#0B0B0C"></path>
<path fill-rule="evenodd" clip-rule="evenodd" d="M2 10.5L6 10.5V11.5L2 11.5L2 10.5Z" fill="#0B0B0C"></path>
<path fill-rule="evenodd" clip-rule="evenodd" d="M7.5 16C6.94772 16 6.5 16.4477 6.5 17C6.5 17.5523 6.94772 18 7.5 18C8.05228 18 8.5 17.5523 8.5 17C8.5 16.4477 8.05228 16 7.5 16ZM5.5 17C5.5 15.8954 6.39543 15 7.5 15C8.60457 15 9.5 15.8954 9.5 17C9.5 18.1046 8.60457 19 7.5 19C6.39543 19 5.5 18.1046 5.5 17Z" fill="#0B0B0C"></path>
<path fill-rule="evenodd" clip-rule="evenodd" d="M5.85714 4.5H17.5664L15.9414 17.5H9V16.5H15.0586L16.4336 5.5H5.85714V4.5ZM5.11317 13.0765L4.58333 16.5H5.85714V17.5H3.41667L4.12493 12.9235L5.11317 13.0765Z" fill="#0B0B0C"></path>
<path fill-rule="evenodd" clip-rule="evenodd" d="M16.0586 8.5H22.5389L21.8639 17.5H20.05V16.5H20.9361L21.4611 9.5H16.9414L16.0664 16.5H17.35V17.5H14.9336L16.0586 8.5Z" fill="#0B0B0C"></path>
</svg>