<svg width="24" height="24" viewBox="0 0 24 24" fill="none" xmlns="http://www.w3.org/2000/svg">
<path fill-rule="evenodd" clip-rule="evenodd" d="M11.9999 3.5C9.7908 3.5 7.99994 5.29086 7.99994 7.5C7.99994 9.70914 9.7908 11.5 11.9999 11.5C14.2091 11.5 15.9999 9.70914 15.9999 7.5C15.9999 5.29086 14.2091 3.5 11.9999 3.5ZM6.99994 7.5C6.99994 4.73858 9.23852 2.5 11.9999 2.5C14.7614 2.5 16.9999 4.73858 16.9999 7.5C16.9999 10.2614 14.7614 12.5 11.9999 12.5C9.23852 12.5 6.99994 10.2614 6.99994 7.5ZM12 15.5C8.37348 15.5 5.34086 17.9011 4.48318 21.1284L3.51672 20.8716C4.49299 17.198 7.92854 14.5 12 14.5C16.0714 14.5 19.5069 17.198 20.4832 20.8716L19.5167 21.1284C18.659 17.9011 15.6264 15.5 12 15.5Z" fill="#0B0B0C"></path>
</svg>