<svg width="24" height="24" viewBox="0 0 24 24" fill="none" xmlns="http://www.w3.org/2000/svg">
<path fill-rule="evenodd" clip-rule="evenodd" d="M7.5 9.49998C5.84314 9.49998 4.5 10.8431 4.5 12.5C4.5 14.1568 5.84314 15.5 7.5 15.5C9.15685 15.5 10.5 14.1568 10.5 12.5C10.5 10.8431 9.15685 9.49998 7.5 9.49998ZM3.5 12.5C3.5 10.2908 5.29086 8.49998 7.5 8.49998C9.70913 8.49998 11.5 10.2908 11.5 12.5C11.5 14.7091 9.70913 16.5 7.5 16.5C5.29086 16.5 3.5 14.7091 3.5 12.5Z" fill="#0B0B0C"></path>
<path fill-rule="evenodd" clip-rule="evenodd" d="M7.5 18.5C5.06563 18.5 3.04961 20.0618 2.48221 22.1321L2.35006 22.6144L1.38562 22.35L1.51778 21.8678C2.21122 19.3376 4.64207 17.5 7.5 17.5C10.3579 17.5 12.7888 19.3376 13.4822 21.8678L13.6144 22.35L12.6499 22.6144L12.5178 22.1321C11.9504 20.0618 9.93436 18.5 7.5 18.5Z" fill="#0B0B0C"></path>
<path fill-rule="evenodd" clip-rule="evenodd" d="M13 2L12.5 2.00001L12.5 9.65554L12.5 9.65764L12.5 11.6283L13.3536 10.7747C13.3513 10.777 13.3535 10.7752 13.3615 10.7683C13.3728 10.7586 13.3955 10.7392 13.4331 10.7079C13.4873 10.6629 13.5557 10.6069 13.6252 10.5504C13.7122 10.4798 13.8074 10.4029 13.8692 10.3531C13.9012 10.3272 13.9243 10.3087 13.9325 10.302L15.4425 9.04581H22.5001L22.5 1.50015L13.0006 1.5L13 2ZM13.5 2.49992V9.36098L15.0809 8.04581H21.5V2.49992H13.5ZM13 2L13.0006 1.5L12.5 1.50015L12.5 2.00001L13 2Z" fill="#0B0B0C"></path>
</svg>