<svg width="24" height="24" viewBox="0 0 24 24" fill="none" xmlns="http://www.w3.org/2000/svg">
<path fill-rule="evenodd" clip-rule="evenodd" d="M7.99999 2.5C6.06699 2.5 4.49999 4.067 4.49999 6C4.49999 7.933 6.06699 9.5 7.99999 9.5C9.93299 9.5 11.5 7.933 11.5 6C11.5 4.067 9.93299 2.5 7.99999 2.5ZM3.49999 6C3.49999 3.51472 5.51471 1.5 7.99999 1.5C10.4853 1.5 12.5 3.51472 12.5 6C12.5 8.48528 10.4853 10.5 7.99999 10.5C5.51471 10.5 3.49999 8.48528 3.49999 6Z" fill="#0B0B0C"></path>
<path fill-rule="evenodd" clip-rule="evenodd" d="M9.09923 12.6079C8.70384 12.5017 8.38798 12.5 7.99999 12.5C5.1035 12.5 3.20214 14.5908 2.48106 17.1363L1.51892 16.8637C2.31833 14.0418 4.51431 11.5 7.99999 11.5L8.01328 11.5C8.39909 11.5 8.82943 11.5 9.35865 11.6421C9.89168 11.7853 10.4973 12.064 11.2773 12.584L10.7226 13.416C10.0027 12.936 9.49691 12.7147 9.09923 12.6079Z" fill="#0B0B0C"></path>
<path fill-rule="evenodd" clip-rule="evenodd" d="M13.5 16.5H14.5V21.1384L17.5 19.4241L20.5 21.1384V16.5H21.5V22.8616L17.5 20.5758L13.5 22.8616V16.5Z" fill="#0B0B0C"></path>
<path fill-rule="evenodd" clip-rule="evenodd" d="M17.5 9.49997C15.2909 9.49997 13.5 11.2908 13.5 13.5C13.5 15.7091 15.2909 17.5 17.5 17.5C19.7091 17.5 21.5 15.7091 21.5 13.5C21.5 11.2908 19.7091 9.49997 17.5 9.49997ZM12.5 13.5C12.5 10.7385 14.7386 8.49997 17.5 8.49997C20.2614 8.49997 22.5 10.7385 22.5 13.5C22.5 16.2614 20.2614 18.5 17.5 18.5C14.7386 18.5 12.5 16.2614 12.5 13.5Z" fill="#0B0B0C"></path>
<path fill-rule="evenodd" clip-rule="evenodd" d="M17.2 13.7526L18.6284 12.1655L19.3717 12.8345L17.2 15.2474L15.6284 13.5011L16.3717 12.8322L17.2 13.7526Z" fill="#0B0B0C"></path>
</svg>