<svg width="24" height="24" viewBox="0 0 24 24" fill="none" xmlns="http://www.w3.org/2000/svg">
<path d="M12.5 7C12.5 5.067 10.933 3.5 9 3.5C7.067 3.5 5.5 5.067 5.5 7C5.5 8.933 7.067 10.5 9 10.5C10.933 10.5 12.5 8.933 12.5 7ZM13.5 7C13.5 9.48528 11.4853 11.5 9 11.5C6.51472 11.5 4.5 9.48528 4.5 7C4.5 4.51472 6.51472 2.5 9 2.5C11.4853 2.5 13.5 4.51472 13.5 7Z" fill="#0B0B0C"></path>
<path d="M9 13.5C12.6373 13.5 15.6411 16.2479 16.4873 19.8867L15.5127 20.1133C14.7541 16.8512 12.0983 14.5 9 14.5C5.90167 14.5 3.24586 16.8512 2.4873 20.1133L1.5127 19.8867C2.35885 16.2479 5.3627 13.5 9 13.5Z" fill="#0B0B0C"></path>
<path d="M18.5 7C18.5 5.067 16.933 3.5 15 3.5V2.5C17.4853 2.5 19.5 4.51472 19.5 7C19.5 9.48528 17.4853 11.5 15 11.5V10.5C16.933 10.5 18.5 8.933 18.5 7Z" fill="#0B0B0C"></path>
<path d="M15 13.5C18.6373 13.5 21.6411 16.2479 22.4873 19.8867L21.5127 20.1133C20.7541 16.8512 18.0983 14.5 15 14.5V13.5Z" fill="#0B0B0C"></path>
</svg>