<svg width="24" height="24" viewBox="0 0 24 24" fill="none" xmlns="http://www.w3.org/2000/svg">
<path fill-rule="evenodd" clip-rule="evenodd" d="M10.0001 4.5C7.79093 4.5 6.00007 6.29086 6.00007 8.5C6.00007 10.7091 7.79093 12.5 10.0001 12.5C12.2092 12.5 14.0001 10.7091 14.0001 8.5C14.0001 6.29086 12.2092 4.5 10.0001 4.5ZM5.00007 8.5C5.00007 5.73858 7.23865 3.5 10.0001 3.5C12.7615 3.5 15.0001 5.73858 15.0001 8.5C15.0001 11.2614 12.7615 13.5 10.0001 13.5C7.23865 13.5 5.00007 11.2614 5.00007 8.5Z" fill="#0B0B0C"></path>
<path fill-rule="evenodd" clip-rule="evenodd" d="M10.0001 16.5C6.37361 16.5 3.34098 18.9011 2.4833 22.1284L2.35488 22.6116L1.38843 22.3548L1.51685 21.8716C2.49312 18.198 5.92867 15.5 10.0001 15.5C14.0715 15.5 17.507 18.198 18.4833 21.8716L18.6117 22.3548L17.6453 22.6116L17.5168 22.1284C16.6592 18.9011 13.6265 16.5 10.0001 16.5Z" fill="#0B0B0C"></path>
<path d="M19.0001 11.5025C19.2762 11.5025 19.5001 11.2781 19.5001 11.0013C19.5001 10.7244 19.2762 10.5 19.0001 10.5C18.7239 10.5 18.5001 10.7244 18.5001 11.0013C18.5001 11.2781 18.7239 11.5025 19.0001 11.5025Z" fill="#0B0B0C"></path>
<path fill-rule="evenodd" clip-rule="evenodd" d="M19.0001 2.5C17.5808 2.5 16.5001 3.55263 16.5001 4.76828V5.26828H15.5001V4.76828C15.5001 2.92617 17.1057 1.5 19.0001 1.5C20.8945 1.5 22.5001 2.92617 22.5001 4.76828C22.5001 6.21334 21.5014 7.4843 20.1442 7.94894C19.7283 8.09134 19.5001 8.38662 19.5001 8.63909V9.2669H18.5001V8.63909C18.5001 7.78699 19.1913 7.21821 19.8203 7.00285C20.8121 6.66333 21.5001 5.74614 21.5001 4.76828C21.5001 3.55263 20.4194 2.5 19.0001 2.5Z" fill="#0B0B0C"></path>
</svg>