<svg width="24" height="24" viewBox="0 0 24 24" fill="none" xmlns="http://www.w3.org/2000/svg">
<path fill-rule="evenodd" clip-rule="evenodd" d="M4.5 1.5H19.5V20.5H4.5V1.5ZM5.5 2.5V19.5H18.5V2.5H5.5Z" fill="#0B0B0C"></path>
<path fill-rule="evenodd" clip-rule="evenodd" d="M5 16.5H19V17.5H5V16.5Z" fill="#0B0B0C"></path>
<path fill-rule="evenodd" clip-rule="evenodd" d="M18.5 19.5H13.7151L16.9861 22.5H18.5V19.5ZM17.5 20.5V21.5H17.3752L16.2849 20.5H17.5Z" fill="#0B0B0C"></path>
<path fill-rule="evenodd" clip-rule="evenodd" d="M5.5 19.5H10.2849L7.01389 22.5H5.5V19.5ZM6.5 20.5V21.5H6.62476L7.7151 20.5H6.5Z" fill="#0B0B0C"></path>
<path d="M17 10C17 10.5523 16.5523 11 16 11C15.4477 11 15 10.5523 15 10C15 9.44772 15.4477 9 16 9C16.5523 9 17 9.44772 17 10Z" fill="#0B0B0C"></path>
</svg>