<svg width="24" height="24" viewBox="0 0 24 24" fill="none" xmlns="http://www.w3.org/2000/svg">
<path fill-rule="evenodd" clip-rule="evenodd" d="M6 14.5C4.067 14.5 2.5 16.067 2.5 18C2.5 19.933 4.067 21.5 6 21.5C7.933 21.5 9.5 19.933 9.5 18C9.5 16.067 7.933 14.5 6 14.5ZM1.5 18C1.5 15.5147 3.51472 13.5 6 13.5C8.48528 13.5 10.5 15.5147 10.5 18C10.5 20.4853 8.48528 22.5 6 22.5C3.51472 22.5 1.5 20.4853 1.5 18ZM6.5 16V17.691L8.01246 18.4472L7.56525 19.3416L5.5 18.309V16H6.5Z" fill="#0B0B0C"></path>
<path fill-rule="evenodd" clip-rule="evenodd" d="M6.5 10.5H18.46V11.5H6.5V10.5ZM10.5 13.5H18.5V14.5H10.5V13.5ZM12.5 16.5H18.5V17.5H12.5V16.5Z" fill="#0B0B0C"></path>
<path fill-rule="evenodd" clip-rule="evenodd" d="M3.5 1.5H15.2071L20.5 6.79289V21.5H11.5V20.5H19.5V7.20711L14.7929 2.5H4.5V13H3.5V1.5Z" fill="#0B0B0C"></path>
<path fill-rule="evenodd" clip-rule="evenodd" d="M15.5 6.5V2H14.5V7.5H20V6.5H15.5Z" fill="#0B0B0C"></path>
</svg>