<svg width="24" height="24" viewBox="0 0 24 24" fill="none" xmlns="http://www.w3.org/2000/svg">
<path fill-rule="evenodd" clip-rule="evenodd" d="M1.57231 11.4554C2.71841 9.56182 6.2243 5.5 12.0001 5.5C17.7654 5.5 21.4256 9.54922 22.4425 11.4814L22.5593 11.7033L19.3155 18.5H4.68467L1.43262 11.6862L1.57231 11.4554ZM2.56981 11.7472L5.31545 17.5H18.6847L21.4375 11.7321C20.3831 9.94129 17.0735 6.5 12.0001 6.5C6.94259 6.5 3.75798 9.9215 2.56981 11.7472Z" fill="#0B0B0C"></path>
<path fill-rule="evenodd" clip-rule="evenodd" d="M5.49995 7.79268L7.20705 9.49979L6.49995 10.2069L4.79284 8.49979L5.49995 7.79268Z" fill="#0B0B0C"></path>
<path fill-rule="evenodd" clip-rule="evenodd" d="M12.5 5.5V8.5H11.5V5.5H12.5Z" fill="#0B0B0C"></path>
<path fill-rule="evenodd" clip-rule="evenodd" d="M18.6934 7.86139L17.1387 10.1934L16.3066 9.63874L17.8613 7.30669L18.6934 7.86139Z" fill="#0B0B0C"></path>
<path fill-rule="evenodd" clip-rule="evenodd" d="M9.91713 16.3907C9.5571 16.8895 9.45825 17.5129 9.49795 17.9551L8.50196 18.0445C8.44548 17.4154 8.57703 16.5387 9.10625 15.8054C9.65418 15.0462 10.5863 14.4998 12 14.4998C13.4165 14.4998 14.3263 15.0488 14.8613 15.8107C15.3752 16.5425 15.4999 17.4081 15.5 17.9998L14.5 17.9998C14.5 17.5201 14.3943 16.8857 14.043 16.3854C13.7128 15.9152 13.1226 15.4998 12 15.4998C10.8744 15.4998 10.2584 15.9177 9.91713 16.3907Z" fill="#0B0B0C"></path>
<path fill-rule="evenodd" clip-rule="evenodd" d="M14.4744 12.1583L13.4745 15.1581L12.5258 14.8419L13.5257 11.8421L14.4744 12.1583Z" fill="#0B0B0C"></path>
</svg>