<svg width="24" height="24" viewBox="0 0 24 24" fill="none" xmlns="http://www.w3.org/2000/svg">
<path d="M21.5812 8.0397C21.468 7.64607 21.2474 7.2897 20.943 7.00847C20.6299 6.71859 20.2462 6.51123 19.8281 6.40596C18.2633 6.00403 11.9942 6.00403 11.9942 6.00403C9.38063 5.97505 6.76773 6.1025 4.17022 6.38566C3.7521 6.49871 3.36913 6.7107 3.05537 7.00278C2.74708 7.29185 2.52378 7.64832 2.40713 8.03889C2.12691 9.51002 1.99076 11.0038 2.00051 12.5C1.99052 13.9949 2.12633 15.4881 2.40713 16.9611C2.52128 17.35 2.74375 17.7049 3.05287 17.9915C3.362 18.2782 3.74695 18.4852 4.17022 18.5948C5.75584 18.996 11.9942 18.996 11.9942 18.996C14.611 19.025 17.2273 18.8975 19.8281 18.6143C20.2462 18.5091 20.6299 18.3017 20.943 18.0118C21.2513 17.7252 21.4704 17.3687 21.5804 16.9806C21.8679 15.51 22.0077 14.0157 21.9978 12.5187C22.0194 11.0153 21.8798 9.51393 21.5812 8.03889V8.0397ZM10.0011 15.2803V9.72053L15.2171 12.5008L10.0011 15.2803Z" fill="#0B0B0C"></path>
</svg>